<svg xmlns="http://www.w3.org/2000/svg" width="328" height="205" fill="none"><g clip-path="url(#a)"><path fill="#fff" d="M328 0H0v205h328V0Z"/><path fill="#EBF3FA" d="m39.594 185.326 87.349-.457 23.283-.007 7.714-.003 23.327-.007 106.576-.029s24.377-31.548-1.662-61.51c-26.997-31.066-40.125-5.766-48.423-49.495C216.869-36.254 10.344 27.81 64.514 121.477c19.504 33.727-38.394 15.801-24.92 63.849Z"/><path fill="#233862" d="M140.634 180.023s.332 3.838-.479 4.238l-10.385-.021s0-1.199 1.668-1.465c1.668-.267 4.598-1.243 5.094-3.418.496-2.175 4.102.666 4.102.666ZM170.432 178.537s.312 5.324-.499 5.724l-10.385-.021s0-1.199 1.668-1.465c1.668-.267 4.598-1.243 5.094-3.418.496-2.175 4.122-.82 4.122-.82Z"/><path fill="#2A4E96" d="M170.786 179.192s-2.062 1.062-2.944 1.255c-.981.217-2.822.079-2.822.079-3.533-9.469-14.486-47.961-14.486-47.961-.476 10.644-2.398 21.259-4.393 29.792l-.16.68v.004a186.723 186.723 0 0 1-.152.637c-2.424 10.069-4.853 16.927-4.853 16.927s-.627.793-2.373.431c-2.002-.416-2.67-1.295-2.67-1.295 1.296-41.014 2.018-64.142 2.018-64.142s17.338-9.366 22.048-1.36c4.71 8.007 10.787 64.953 10.787 64.953Z"/><path fill="#AEC3FF" d="M163.799 119.77c-2.247-8.036-2.617-15.666-2.6-21.983.024-8.99.832-15.323-1.874-16.391 0 0-8.36-2.43-14.114-3.501-.917-.505-1.935-1.033-2.707-1.347-1.816-.737-8.9-11.034-10.101-13.5-1.201-2.465-3.188-13.206-3.188-13.206l-2.761.88s-.829 12.057-.431 15.2c.397 3.142 9.168 16.654 9.896 17.837 3.122 11.413 0 29.986 1.427 34.127.733 2.13 14.347 6.033 21.798 5.542.371-.024.727-.06 1.065-.107l.004-.001c1.762-.245 3.045-.808 3.514-1.796.23-.48.267-1.061.072-1.754Z"/><path fill="#FFB27D" d="M129.215 49.843s1.56-4.532.419-4.664c-1.141-.132-4.004-.118-4.357.648-.353.765 1.177 4.895 1.177 4.895l2.761-.88Z"/><path fill="#ED7D2B" d="m99.52 61.133-9.207-5.568a2.852 2.852 0 0 1 1.763-1.296 2.853 2.853 0 0 1 2.164.33 1.26 1.26 0 0 0 1.73-.427l2.492-4.12 2.156 1.303-2.492 4.12a1.258 1.258 0 0 0 .427 1.732 2.85 2.85 0 0 1 1.297 1.763 2.85 2.85 0 0 1-.33 2.163Z"/><path fill="#F99746" d="m99.52 61.133-6.12-3.701c-1.418-1.184-.725-2.197-.015-2.372a2.854 2.854 0 0 1 2.165.33 1.26 1.26 0 0 0 1.73-.426l2.492-4.12.846.511-2.492 4.12a1.257 1.257 0 0 0 .427 1.731 2.85 2.85 0 0 1 1.297 1.764 2.85 2.85 0 0 1-.33 2.163Z"/><path fill="#F99746" d="m126.454 34.291-7.452 9.394c-2.59 4.282-7.069 6.337-11.361 6.51l-.002-.001a14.01 14.01 0 0 1-4.238-.465c-1.103-.301-2.374.293-3.073 1.446l-.146.242-.795 1.313-1.57-.95.8-1.324c.766-1.27.725-2.818-.115-3.757-3.586-4.011-4.931-10.648-1.502-16.32l5.046-10.848 24.408 14.76Z"/><path fill="#ED7D2B" d="M95.284 38.002c.61-3.52-1.093-5.437-2.895-7.467-1.44-1.623-2.93-3.301-3.251-5.8-.355-2.77.934-5.599 3.21-7.037 1.73-1.094 3.642-1.128 5.248-.1 2.28 1.465 3.127 4.3 2.45 8.197a23.378 23.378 0 0 1-1.615 5.247l-1.43-.663c.04-.087 3.978-8.733-.258-11.453-1.46-.94-2.853-.337-3.552.105-1.74 1.1-2.764 3.363-2.489 5.504.259 2.016 1.525 3.443 2.867 4.954 1.878 2.116 4.007 4.515 3.27 8.782l-1.555-.269Z"/><path fill="#F99746" d="M113.049 48.745c2.834-2.174 5.322-1.557 7.957-.904 2.106.522 4.285 1.062 6.646.185 2.619-.972 4.525-3.428 4.742-6.11.164-2.042-.692-3.75-2.35-4.694-2.355-1.339-5.259-.773-8.396 1.636a23.353 23.353 0 0 0-3.897 3.868l1.252.958c.058-.076 5.885-7.578 10.262-5.091 1.511.857 1.623 2.37 1.557 3.195-.166 2.052-1.695 4.009-3.719 4.76-1.905.707-3.757.248-5.718-.238-2.747-.68-5.86-1.452-9.296 1.184l.96 1.25Z"/><path fill="#ED7D2B" d="M107.639 50.194a14.01 14.01 0 0 1-4.238-.465c-1.103-.301-2.374.293-3.073 1.446l-.146.242c-.548.283-.963.64-1.159 1.093l-1.206-.73.8-1.324c.766-1.27.725-2.818-.115-3.757-3.586-4.011-4.931-10.648-1.502-16.32l5.046-10.848 4.035 2.44s-16.383 22.199 1.558 28.223Z"/><path fill="#F99746" d="m100.377 53.684-4.02-2.43a1.163 1.163 0 0 1-.391-1.593 1.163 1.163 0 0 1 1.592-.392l4.019 2.431c.546.33.723 1.046.392 1.592a1.162 1.162 0 0 1-1.592.392Z"/><path fill="#fff" d="m101.607 40.175.432-.714c2.044 1.105 2.307.974 3.147-.414l4.221-6.98c.595-.983.294-1.27-.438-1.845l-.52-.446.385-.636c1.589.724 3.481 1.341 4.863 1.624l-5.947 9.834c-.862 1.427-.852 1.67 1.057 2.956l-.432.714-6.768-4.093Z"/><path fill="#FFB27D" d="M125.277 45.827s-.147 1.56.353 1.854c.501.294.677-1.854.677-1.854s.03 1.762.412 1.882c.383.12.619-2.03.619-2.03s.04 1.708.3 1.649c.259-.06.436-1.649.436-1.649s.117 1.24.471 1.017c.353-.222.688-1.552.688-1.552l-3.956.683ZM129.215 49.843s1.066-.837 1.302-1.603c.235-.765.927-2.052.559-2.208-.368-.155-1.443 1.502-1.443 1.502l-.418 2.309ZM147.704 76.662l-.134.697s-.621 2.14 1.999 2.99c2.619.849 4.827 1.242 5.087-.453.016-1.35-.018-3.456.177-4.536.073-.402.184-.82.354-1.286l-5.178-1.131-1.58-.053-.725 3.772Z"/><path fill="#E2915A" d="m148.429 72.89-.482 2.542c4.919 1.303 7.07-.893 7.24-1.358l-5.177-1.131-1.581-.053Z"/><path fill="#FFB27D" d="M155.946 73.02c-1.526 3.1-5.717 1.809-7.483 1.091a10.98 10.98 0 0 1-.802-.357c-.535-.317-.602-1.32-.417-2.556.365-2.446 1.715-5.81 2.363-6.585.975-1.166 2.512-2.293 6.47-.058 3.959 2.235 1.824 4.493-.131 8.465Z"/><path fill="#233862" d="M149.176 61.133s1.912.381 4.387.041c2.01-.276 4.029 1.216 4.654 1.808a1.149 1.149 0 0 0-.055-.491s.264.325.22.666c.027.034.038.056.027.059 0 0 .393.036.602.212 0 0-.161-.072-.251.02a.114.114 0 0 1-.035.022c2.415 2.134 1.434 6.621.248 7.39-1.426.926-3.877 3.474-3.877 3.474s.087-.93.587-1.957c.501-1.026-.434-1.288-1.476-2.111-1.042-.823.328-1.924-.47-3.05-.798-1.125-4.722-1.695-4.493-2.32-1.262-.907-.108-3.619-.068-3.763Z"/><path fill="#fff" d="M149.806 71.877s-.255.384-1.277-.07c0 0-.858-.38-.659-.831 0 0 .973-.013 1.936.901Z"/><path fill="#ED7D2B" d="M148.656 82.358s-2.362 15.67-20.023 26.551l-1.649 4.788h6.375s15.819-13.266 16.88-30.889l-1.583-.45Z"/><path fill="#DB6516" d="M148.656 82.358v-2.375l2.911.824-1.328 2.001-1.583-.45Z"/><path fill="#9DB0F4" d="M147.704 76.662 146 78.118s-.471 2.034.677 4.24l3.434-1.963s-2.028-.98-2.407-3.733ZM150.111 80.395s.341 1.844 1.235 2.756c0 0 3.869-.677 4.942-2.531l-1.62-2.531s-.387 1.727-4.557 2.306Z"/><path fill="#FFB27D" d="M173.29 121.008s.007 3.508-.315 4.205c-.323.698-1.771 2.971-2.438 3.457-.667.486.144-2.81-.066-3.413-.209-.602-.466 1.189-.775 1.263-.309.074-.393-1.505-.464-2.076-.071-.571 1.315-2.143 1.729-3.417.413-1.275 2.329-.019 2.329-.019Z"/><path fill="#AEC3FF" d="M159.27 81.395s3.402.927 5.707 6c2.418 5.319 8.887 17.134 9.127 18.765.241 1.63-.428 16.86-.428 16.86s-2.832.109-3.706-1.234c0 0-.985-13.369-1.421-14.096-.436-.726-11.578-14.013-10.639-17.385.938-3.372 1.36-8.91 1.36-8.91Z"/><path fill="#9DB0F4" d="M163.728 121.524c-.844.723-1.982 1.353-3.515 1.796l-.004.001a2.787 2.787 0 0 1-1.065.107c-6.227-.641-5.269-24.83-2.253-26.618 3.179-1.884 4.309.977 4.309.977-.018 6.317.352 13.947 2.599 21.983.195.693.158 1.274-.071 1.754Z"/><path fill="#233862" d="M145.834 163.651c.042-.189.09-.392.147-.61l-.147.61ZM146.141 162.357c1.905-9.017-.149-33.179.768-33.639.942-.471 3.625 3.847 3.625 3.847-.476 10.644-2.398 21.259-4.393 29.792Z"/><path fill="#FFB27D" d="m99.557 180.773-.55-3.955 2.307-1.928.727 5.237-2.484.646Z"/><path fill="#233862" d="M107.217 184.306h-9.404s-.225-1.433.266-2.521c.47-1.043 1.203-1.687 1.27-2.487.597.616 1.333 1.011 2.692.829.167.27 1.076 1.715 1.632 2.115.615.441 3.355.284 3.544 2.064Z"/><path fill="#F99746" d="M105.327 127.367a473.9 473.9 0 0 0-1.527 13.958c-2.189 23.162-1.759 37.318-1.759 37.318s-.158.419-1.515.425c-.767.005-1.518-.163-1.518-.163s-4.9-15.125-4.522-23.731c.045-1.036.166-1.976.382-2.786 1.176-4.404-4.35-21.244 1.657-27.516 6.005-6.27 9.085.224 8.802 2.495Z"/><path fill="#ED7D2B" d="M105.328 127.367a474.056 474.056 0 0 0-1.528 13.958l-9.314 13.849c.045-1.036.167-1.976.382-2.786 1.176-4.404-4.35-21.244 1.657-27.516 6.005-6.27 9.085.224 8.803 2.495Z"/><path fill="#FFB27D" d="M112.729 80.178s-.227-1.13-.482-1.993c-.113-.382.674-2.889 1.219-3.197.545-.309 1.963 1.38 1.562 2.676-.206.666-.545 2.833-.545 2.833l-1.754-.319Z"/><path fill="#FFB27D" d="M112.729 80.178s-.296-.655-.564-.761c-.267-.107-.554-1.178-.75-1.603 0 0 .189-.278.521.08.203.217.654.857.654.857l.139 1.427ZM73.908 83.98a6.437 6.437 0 0 0-.21.531 11.182 11.182 0 0 1-.002-.161c-.004-.398-1.49-2.565-2.101-2.7-.611-.136-1.474 1.894-.71 3.016.391.576 1.35 2.549 1.35 2.549l1.584-.818s.09-.714.316-.893c.224-.18.184-1.289.248-1.753 0 0-.263-.21-.475.229ZM83.786 179.587c-.133-1.268-.166-4.603-.166-4.603s3.398-1.086 3.273-.34c-.615 3.667-.448 5.483-.448 5.483l-1.374.821-1.285-1.361Z"/><path fill="#F99746" d="M102.489 127.131S89.36 163.119 86.776 178.73c0 0-.599.411-1.716.275-1.267-.155-1.614-1.035-1.614-1.035s-2.371-18.71 2.343-25.205c3.239-4.463-1.397-24.062 6.146-25.634 7.544-1.571 10.554 0 10.554 0Z"/><path fill="#163560" d="M100.157 92.512v-.001a19.98 19.98 0 0 0-.261-.984v-.002a21.125 21.125 0 0 0-.955-2.643 14.066 14.066 0 0 0-.629-1.255l-.096-.168-.001-.001c-.508-.853-1.03-1.442-1.5-1.624-.858-.332-1.813-.24-2.47-.103.144-.201.471-.315.471-.315-.42 0-1.277.543-1.277.543-6.047-1.352-5.694 7.202-5.282 9.14.41 1.94-1.537 2.881-4.282 4.865-5.24 3.786-5.153 7.798-5.153 7.798.048.02.1.043.153.07.21-.519.658-1.502 1.127-1.71-.014.046-.395 1.319-.503 2.032.798.44 1.902 1.121 3.102 1.89l.001.001a241.198 241.198 0 0 1 4.796 3.168c-.068-.39-.134-.947-.035-1.262l.452 1.401.06.183c.905.614 1.62 1.105 1.983 1.357l.1.068c.106.072.162.112.162.112-.12-.495.409-1.786 1.296-3.413.06-.113.125-.229.19-.346.287-.514.607-1.056.951-1.615.124-.202.25-.404.38-.609l.001-.002c.104-.165.21-.33.319-.497v-.002c.258-.397.524-.797.795-1.198a57.029 57.029 0 0 1 2.182-3.014c1.068-1.377 2.116-2.573 2.993-3.356a6.002 6.002 0 0 0 .405-1.215c.026-.108.048-.218.068-.326a14.18 14.18 0 0 0 .22-2.565c.07 1.112.043 1.951-.032 2.585a7.34 7.34 0 0 1-.056.387v.002c-.047.271-.1.494-.159.68.144-.178.27-.374.382-.587.073-.14.14-.286.198-.44.708-1.806.517-4.501-.096-7.029Z"/><path fill="#FFB27D" d="M99.021 101.178c.02.006-1.693 1.246-3.146 1.071-1.367-.162-2.478-1.738-2.46-1.744.54-.194.586-.982.085-4.265l.26.012 4.352.209s.102 1.344.285 2.599c.154 1.053.366 2.041.624 2.118Z"/><path fill="#ED975D" d="M98.112 96.46s.102 1.346.285 2.6c-2.376.285-3.947-1.688-4.638-2.808l4.353.209Z"/><path fill="#163560" d="M93.254 95.857s-1.531-1.775-2.078-3.406c-.39-1.164-.44-5.688 4.11-5.713 0 0 1.312-.065 2.65.576 1.065.51 2.671 1.712 1.685 5.813l-.21 1.367-6.157 1.363Z"/><path fill="#fff" d="M105.876 126.44s-5.664 3.366-12.776 1.636c-.084-.021-5.856-.942-5.856-.942.099-.271.845-4.73.942-4.98 1.262-3.256 3.568-20.927 5.495-21.799.492.536 1.898.903 3.1.796 1.386-.123 1.85-.721 1.735-1.365a43.584 43.584 0 0 1 2.712 1.399c1.402 2.1 4.648 25.255 4.648 25.255Z"/><path fill="#FFB27D" d="M99.079 97.53s-5.585.925-6.107-2.561c-.523-3.487-1.595-5.716 1.948-6.454 3.543-.738 4.437.488 4.895 1.61.457 1.121.703 7.075-.736 7.405Z"/><path fill="#163560" d="M97.457 88.05s-.924 4.32-3.186 5.274c-2.263.955-3.377.477-3.377.477s1.591-1.702 1.593-4.26c0 0 3.524-3.266 4.97-1.49Z"/><path fill="#163560" d="M97.126 88.439s1.281.743 1.692 1.59c.412.846.809 2.656 1.332 2.514 0 0 .742-2.953-.79-4.333-1.624-1.463-2.234.229-2.234.229Z"/><path fill="#2B478B" d="M114.521 80.258c-.227-.08-.562-.269-.998-.308-.389-.035-.878.092-.878.092s-1.575 9.794-1.692 10.313c-.117.519-6.758 8-8.549 7.97-1.617-.027-3.532 1.221-3.888 1.461 0 0 3.766 7.962 3.953 9.458.205 1.627 2.154 26.688 2.154 26.688s-.116 1.166 2.062.539c2.179-.627 2.723-1.146 2.723-1.146s-2.001-19.729-2.421-25.865a11.67 11.67 0 0 0-.382-2.289 2.32 2.32 0 0 1 .375-1.971c2.754-3.781 7.103-9.906 7.346-11.208.356-1.913.195-13.734.195-13.734Z"/><path fill="#233862" d="M91.621 184.306h-9.404s-.225-1.433.266-2.521c.47-1.043 1.203-1.687 1.27-2.487.597.616 1.333 1.011 2.692.829.167.27 1.076 1.715 1.632 2.115.615.441 3.355.284 3.544 2.064Z"/><path fill="#2B478B" d="M98.081 110.017c-.317-1.951-4.363-9.782-4.363-9.782s-2.558-.765-4.242-.155c-1.684.61-10.395-4.308-10.674-4.761-.28-.453-4.945-9.147-4.945-9.147s-.387-.224-1.007.1c-.613.319-.616.943-.616.943s3.601 10.946 4.56 12.64c.577 1.021 5.434 4.576 9.2 7.238a2.362 2.362 0 0 1 .978 2.246c-.506 3.743-.635 5.851-1.218 12.274-.483 5.328-.668 15.644-.668 15.644s4.214 1.458 7.122 1.652c2.909.193 3.542-2.872 3.542-2.872s2.657-24.015 2.331-26.02Z"/><path fill="#fff" d="M97.249 95.806s.678.398 1.48.279c.548-.083.673-.734.673-.734s-.382-.12-.99.002a4.22 4.22 0 0 0-1.163.453Z"/><path fill="#163560" d="M206.031 95.075s1.735 2.86-1.527 4.66c0 0 2.508.903 3.381.562 0 0-.217.225-.381.308 0 0 2.356.748 3.53.339 1.175-.408 3.704-11.816-3.251-12.418 0 0-5.485-1.965-6.645 4.157-1.16 6.122-3.273 5.528-3.273 5.528s.513.433.796.512c0 0 .456-.029.597-.217 0 0-.175.309-.311.385 0 0 2.224.84 3.586.366 1.362-.474 3.477-2.857 3.498-4.182Z"/><path fill="#233862" d="M199.05 185.139h8.872s.213-1.352-.251-2.378c-.444-.984-1.135-1.592-1.198-2.346-.563.58-1.257.954-2.54.781-.157.255-1.014 1.619-1.539 1.996-.58.417-3.166.268-3.344 1.947Z"/><path fill="#2B478B" d="M206.381 181.751s-.757.245-1.547.315c-1.398.125-1.601-.292-1.601-.292s-1.389-12.363-5.885-35.994c-.648-3.413-.904-5.302-1.138-8.336-.07-.908-.139-1.919-.214-3.104-.203-3.185.28-8.545 2.67-9.954 1.087-.641 2.567-.465 4.558 1.102.156.124.317.256.48.398 5.826 5.039 3.437 19.51 3.673 26.314.039 1.128.151 2.045.383 2.674.301.813.946 1.939 1.092 3.001 1.223 8.824-2.471 23.876-2.471 23.876Z"/><path fill="#233862" d="m207.377 152.2-11.167-14.756c-.07-.908-.139-1.919-.214-3.104-.203-3.185.28-8.545 2.67-9.954l4.558 1.102c.156.124.317.256.48.398 5.826 5.039 3.437 19.51 3.673 26.314ZM238.941 166.467l-3.692-8.068s-1.318.369-2.058 1.218c-.711.814-1.225.669-2.843-.454.609.941.691 1.495 1.068 2.733.297.037 1.989 1.674 3.722 2.125.691.18 2.202 2.982 3.803 2.446Z"/><path fill="#2B478B" d="M200.225 127.927s7.95 27.639 10.863 29.418c2.913 1.779 18.23 4.226 21.343 5.56 0 0 .379-.543.157-1.705-.05-.258-.489-1.186-.489-1.186s-9.511-7.15-15.772-7.872c-1.553-.179 3.163-23.904-7.335-24.851-9.59-.866-8.767.636-8.767.636Z"/><path fill="#FFB27D" d="M188.882 82.58s.214-1.066.454-1.88c.107-.36-.636-2.725-1.15-3.016-.514-.291-1.852 1.302-1.474 2.525.195.628.515 2.673.515 2.673l1.655-.301Z"/><path fill="#FFB27D" d="M188.882 82.58s.279-.617.532-.718c.252-.1.522-1.111.708-1.512 0 0-.179-.262-.492.075-.191.206-.617.81-.617.81l-.131 1.346ZM225.509 86.168c.054.112.13.313.197.501l.002-.152c.004-.376 1.406-2.42 1.983-2.548.577-.128 1.391 1.787.67 2.846-.369.544-1.274 2.405-1.274 2.405l-1.494-.772s-.086-.673-.298-.843c-.212-.17-.175-1.215-.235-1.653 0 0 .248-.198.449.216ZM201.815 102.394c-.02.005 1.597 1.175 2.968 1.011 1.289-.154 2.338-1.64 2.322-1.646-.51-.183-.554-.926-.082-4.024l-.244.011-4.107.197s-.096 1.27-.269 2.452c-.145.994-.345 1.927-.588 1.999Z"/><path fill="#ED975D" d="M202.672 97.943s-.096 1.27-.269 2.452c2.242.269 3.725-1.592 4.376-2.648l-4.107.196Z"/><path fill="#163560" d="M207.256 97.374s1.445-1.675 1.961-3.214c.368-1.098.415-5.367-3.877-5.39 0 0-1.239-.061-2.502.543-1.004.481-2.519 1.616-1.59 5.485l.199 1.29 5.809 1.286Z"/><path fill="#FFB27D" d="M196.663 126.862s4.029 2.542 10.739.909c.079-.019 3.815-.615 3.815-.615-.094-.256-4.02-6.743-4.112-6.978-1.19-3.072 1.566-17.738-.252-18.56-.464.505-1.79.851-2.925.75-1.308-.115-1.745-.68-1.637-1.287-1.447.684-2.558 1.319-2.558 1.319-1.323 1.982-3.07 24.462-3.07 24.462ZM201.76 98.952s5.269.873 5.762-2.417c.493-3.29 1.505-5.392-1.838-6.088-3.343-.697-4.187.46-4.618 1.518-.432 1.058-.664 6.675.694 6.987Z"/><path fill="#163560" d="M203.29 90.008s.872 4.075 3.007 4.976c2.134.901 3.185.45 3.185.45s-1.501-1.606-1.503-4.02c0 0-3.324-3.08-4.689-1.406Z"/><path fill="#163560" d="M203.602 90.375s-1.208.7-1.596 1.5c-.388.798-.763 2.505-1.257 2.372 0 0-.699-2.786.746-4.088 1.532-1.38 2.107.216 2.107.216Z"/><path fill="#F99746" d="M226.745 89.22s-3.398 10.328-4.302 11.925c-.545.964-6.665 4.774-10.218 7.286a.596.596 0 0 0-.136.163l-.004.005c-.887 1.371-3.643 9.858-2.985 11.381 2.771 6.403 4.67 8.879 5.361 10.675a1.706 1.706 0 0 1-1.02 2.221 29.12 29.12 0 0 1-4.794 1.255c-.378.065-.766.123-1.164.173-5.46.693-9.157-.588-11.034-1.535a2.497 2.497 0 0 1-1.368-2.372c.113-2.025 1.126-4.03 1.582-8.901.346-3.696-2.842-9.321-2.708-11.288.053-.778.665-1.709.996-2.312l.001-.002c.587-1.068.909-2.032.518-2.568-2.598-3.566-8.209-8.484-8.438-9.712-.336-1.805-.184-12.958-.184-12.958.214-.075.53-.254.942-.29.366-.033.827.086.827.086s1.487 9.24 1.597 9.73c.111.49 6.376 7.548 8.066 7.52 1.525-.026 3.676 1.152 4.011 1.379 0 0-1.369 2.426-1.711 5.703-.238 2.292 1.293 1.273 2.254-.296 1.302-2.126 3.923-5.151 3.923-5.151s2.132-.555 3.721.021c1.588.576 9.807-4.065 10.07-4.492.264-.427 4.666-8.63 4.666-8.63s.365-.211.95.093c.578.302.581.89.581.89Z"/><path fill="#fff" d="M203.29 97.166s-.225.455-.528.463c-.303.008-1.073-.065-1.126-.143-.052-.079-.18-.554-.18-.554s1.273-.05 1.834.234Z"/><path fill="#ED7D2B" d="M213.441 132.876a29.12 29.12 0 0 1-4.794 1.255c-1.884-2.598-5.073-5.866-4.252-11.877.848-6.214 6.957-12.753 7.69-13.655-.887 1.371-3.643 9.858-2.984 11.381 2.77 6.403 4.669 8.879 5.36 10.675a1.705 1.705 0 0 1-1.02 2.221ZM194.952 107.894c.587-1.067.909-2.032.518-2.568-2.598-3.566-8.209-8.484-8.438-9.712.556 1.335 7.351 5.321 9.262 7.035 1.889 1.693-1.264 5.162-1.342 5.245Z"/><path fill="#6BB7BF" d="M80.897 58.712s1.273 1.745 1.137 3.734c-.102 1.477-1.418 2.971-1.507 3.03l2.078 1.109s1.54-2.736 1.021-5.021c-.159-.7-.895-1.821-1.437-2.32-.596-.55-1.292-.532-1.292-.532Z"/><path fill="#86D1CD" d="m76.649 58.897-1.316-2.909s6.14.208 8.175 5.212c0 0-4.296-3.065-6.859-2.303Z"/><path fill="#6BB7BF" d="M53.454 132.897s-1.464-1.105-1.841-2.756c-.28-1.226.422-2.764.48-2.833l-1.961-.391s-.581 2.603.403 4.333c.3.53 1.175 1.26 1.738 1.533.62.301 1.181.114 1.181.114Z"/><path fill="#86D1CD" d="m56.862 131.704 1.784 2.042s-5.043 1.339-7.926-2.229c0 0 4.246 1.436 6.142.187Z"/><path fill="#F1A34F" d="M277.903 142.403s-.128-1.918 3.473-2.846c1.613-.416 5.207.324 2.929 3.859-2.37 3.677-4.482 2.35-4.482 2.35s4.942-3.868 2.964-5.637c-2.182-1.952-3.021 1.916-3.021 1.916s-.879-.047-1.863.358Z"/><path fill="#DB7714" d="M279.181 145.987s-1.347-.729-.813-2.347l1.936.335s-.745 1.752 1.076 1.964c0 0-1.752.416-2.199.048Z"/><path fill="#5685D8" d="M152.909 43.114s2.012-2.897 5.097-.845l1.879-1.797s-1.755-1.333-5.804 1.057c-2.65 1.564-1.172 1.585-1.172 1.585Z"/><path fill="#739AF0" d="M150.924 45.955s-.398-3.326 5.169-5.4c0 0-2.012.974-2.633 4.29l-2.536 1.11Z"/><path fill="#F99746" d="M173.291 28.316s1.645-1.04 1.818-2.295c0 0 1.602.087 1.948.606 0 0-.736 2.078-1.602 2.468 0 0-1.948.13-2.164-.78ZM120.346 146.871s-1.755-1.108-1.939-2.448c0 0-1.709.093-2.079.647 0 0 .785 2.217 1.709 2.633 0 0 2.078.138 2.309-.832Z"/><path fill="#86D1CD" d="M192.388 61.053s1.763-1.114 1.949-2.459c0 0 1.716.093 2.087.65 0 0-.788 2.226-1.716 2.644 0 0-2.088.139-2.32-.835Z"/><path fill="#FFB27D" d="M226.696 112.096s-1.019-1.236-1.567-1.41c-.548-.174-1.609-.995-1.747-.656-.138.338.713.86.668 1.246-.045.387-2.706 1.008-2.69 1.417.017.409.626 1.398 1.641 1.285 1.015-.114 3.59-.725 4.119-.461.528.264-.424-1.421-.424-1.421Z"/><path fill="#AEC3FF" d="M254.143 106.08c-1.502 2.019-3.262 3.613-5.07 4.87-5.745 3.997-11.978 4.593-11.978 4.593-1.493-.478-6.082-.978-8.793-1.415h-.001c-1.182-.19-2.007-.368-2.062-.527l.068-2.362s9.951-.526 11.599-1.29c2.599-2.239 4.895-5.146 6.39-7.417 1.264-1.918 2.678-3.335 5.01-4.166 3.371-1.202 9.503 1.447 4.837 7.714Z"/><path fill="#9DB0F4" d="m249.581 109.464-.507 1.486c-5.746 3.997-11.979 4.592-11.979 4.592-1.2 0-6.082-.977-8.793-1.414.107.009 7.382.578 8.99.411 1.62-.167 9.161-6.703 9.161-6.703l3.128 1.628Z"/><path fill="#233862" d="M243.084 184.306h10.997c.788-.535-.212-5.759-.212-5.759s-3.002-1.139-3.52 1.177c-.52 2.315-3.823 3.05-5.571 3.333-1.197.195-1.575.852-1.694 1.249ZM259.395 184.306h10.997c.788-.535-.212-5.759-.212-5.759s-3.002-1.139-3.52 1.177c-.52 2.315-3.823 3.05-5.571 3.333-1.197.195-1.575.852-1.694 1.249Z"/><path fill="#2B478B" d="M246.043 131.009s.494 6.167 1.075 13.581c.79 10.07 2.919 35.039 2.919 35.039s1.397 1.192 4.49.54c0 0 2.632-8.614 3.419-18.445l.037-.486c.732-10.008 1.871-31.083 1.871-31.083l-13.811.854Z"/><path fill="#233862" d="M245.874 128.878s.663 8.298 1.244 15.712l10.829 17.134.036-.486c.733-10.008 1.871-31.083 1.871-31.083l-13.98-1.277Z"/><path fill="#2B478B" d="M249.03 128.878s7.854 19.549 10.364 26.959c1.789 5.279 6.832 23.796 6.832 23.796s2.194.668 4.037-.623c0 0 1.876-18.918-1.914-24.252-2.011-2.831-.5-29.42-8.653-29.648-8.153-.228-10.666 3.768-10.666 3.768Z"/><path fill="#FFB27D" d="M252.538 100.059c1.199.631 2.369.671 3.384.455.928-.195 1.724-.604 2.292-.967.582-.372.925-.697.925-.697s-.041-.058-.109-.173c-.354-.606-1.428-2.784-.95-6.284.006-.046-.341.02-.865.143-1.558.369-4.691 1.257-4.829 1.297h-.006s-.038.736-.167 2.055l-.035.364c-.016.155-.032.32-.052.488-.145 1.371.412 3.319.412 3.319Z"/><path fill="#ED975D" d="M252.213 95.888c2.326.534 5.798-2.9 5.798-2.9a3.652 3.652 0 0 0-.796-.452c-1.558.369-4.691 1.257-4.829 1.297h-.006s-.038.736-.167 2.055Z"/><path fill="#FFB27D" d="M251.423 93.647s.956.343 2.176.507c1.783.241 4.128.099 4.865-2.059 1.241-3.632 2.826-5.81-.826-7.293-1.954-.794-3.205-.836-4.055-.533-.738.262-1.173.784-1.502 1.301-.709 1.112-2.136 7.441-.658 8.077Z"/><path fill="#A9453D" d="M249.207 85.857c2.114 1.52 5.039.025 5.948.43.908.403 1.071 1.927 1.088 2.41.016.485.08.893 1.313.603.202-.047.348-.033.448.027.512.303-.142 1.775-.339 2.093 0 0-.284 1.054.346 1.567.076.062 1.313.602 4.294-3.96.469-.716.916-2.33.193-3.883-.723-1.554-3.745-3.055-6.307-3.85-.96-.3-1.672-.288-2.229-.084-.929.34-1.424 1.217-1.916 2.1-.824 1.48-2.839 2.547-2.839 2.547Z"/><path fill="#AEC3FF" d="M262.811 130.244s-1.023.222-2.317.441c-1.266.212-2.791.421-3.87.413-5.514-.044-10.129-1.667-10.129-1.667-1.037 0-1.51-1.605-1.68-3.845-.115-1.517-.091-3.326-.008-5.125.027-.583.06-1.166.096-1.737.073-1.133.158-2.22.235-3.182.072-.902.138-1.693.177-2.306 0-.002-.147-4.293-.089-8.069.041-2.71 1.562-5.177 1.943-5.579 1.103-1.167 4.302-1.906 4.942-2.007l.075-.011c2.63 1.477 6.171-.519 6.171-.519.08.013.159.032.237.05.26-.057 2.918.338 3.537.675 1.529.834 2.417 10.081 2.417 10.081.255 6.282-.065 16.342.432 20.182.164 1.265-1.061 1.95-2.169 2.205Z"/><path fill="#9DB0F4" d="M258.576 97.104s-3.918 4.042-6.72 3.214c0 0-.373-.546.889-.72 1.261-.176 2.623-.104 5.831-2.494Z"/><path fill="#fff" d="M251.395 91.302s-.077.47 1.017.845c0 0 .918.316 1.085-.167 0 0-.729-.694-2.102-.678Z"/><path fill="#9DB0F4" d="M260.724 112.394s-5.69 9.519-8.919 11.194c-2.183 1.133-5.24 1.73-6.99 1.998-.115-1.517-.091-3.326-.008-5.125 2.313-.28 5.835-.727 5.835-.727l10.082-7.34Z"/><path fill="#9DB0F4" d="m253.228 107.612-3.033 10.949s-3.569.226-5.292.163c.073-1.133.075-1.17.152-2.132 0 0 4.098-2.136 8.173-8.98Z"/><path fill="#FFB27D" d="M234.963 119.372s-1.019-1.237-1.567-1.411c-.548-.173-1.609-.994-1.747-.656-.138.339.713.86.668 1.247-.045.387-2.706 1.007-2.69 1.417.017.409.626 1.398 1.641 1.284 1.015-.113 3.59-.724 4.119-.46.528.263-.424-1.421-.424-1.421Z"/><path fill="#AEC3FF" d="M264.865 104.181s.179 5.799-13.039 17.435l-2.654-4.755c-.489-.284 8.539-19.702 11.133-19.547 5.028.3 4.56 6.867 4.56 6.867Z"/><path fill="#AEC3FF" d="M250.753 116.294s-15.032 1.719-15.589 2.017c-.556.299-1.75 1.462-1.352 2.921 0 0 7.781.978 12.062.96 3.693-.016 6.082-.608 6.082-.608l-1.203-5.29Z"/><path fill="#2E3552" d="M304.817 185.139H22.394a.348.348 0 0 1-.347-.346v-.185c0-.191.156-.347.347-.347h282.423c.191 0 .347.156.347.347v.185c0 .19-.156.346-.347.346Z"/></g><defs><clipPath id="a"><path fill="#fff" d="M0 0h328v205H0z"/></clipPath></defs></svg>