<svg xmlns="http://www.w3.org/2000/svg" width="328" height="224" fill="none"><rect width="328" height="224" fill="#F9F9F9" rx="12"/><path fill="#3F5FAF" d="m260.1 108.164-13.038 6.529.224-2.643 9.104-9.646 3.71 5.76Z"/><path fill="#5F7EE4" d="m247.918 96.746 29.83 27.853c1.403 1.309 3.682.743 4.316-1.072l21.559-61.838c.704-2.018-1.129-4.005-3.188-3.456l-68.281 18.212c-2.02.539-2.656 3.098-1.128 4.528l16.891 15.772"/><path fill="#3960DD" d="m294.473 67.005-38.16 37.572-9.063 9.964c-.687.692-1.853.102-1.707-.862l2.543-16.786 46.387-29.888Z"/><path fill="#5F7EE4" d="M24.651 162.425a.431.431 0 0 1-.4-.585c.157-.412.322-.828.486-1.236a.43.43 0 1 1 .795.322 70.26 70.26 0 0 0-.48 1.221.43.43 0 0 1-.4.276v.002Zm94.436-.328h-.028a22.926 22.926 0 0 1-1.774-.181.43.43 0 0 1 .12-.851c.568.08 1.144.139 1.707.174a.429.429 0 0 1 .401.455.429.429 0 0 1-.426.404v-.001Zm4.364-.174a.43.43 0 0 1-.06-.855c.56-.079 1.128-.182 1.689-.305a.428.428 0 0 1 .182.839c-.582.128-1.171.235-1.754.317a.403.403 0 0 1-.06.004h.003Zm-10.359-1.004a.444.444 0 0 1-.133-.021 29.006 29.006 0 0 1-1.67-.608.43.43 0 0 1 .317-.799 28.28 28.28 0 0 0 1.62.589.43.43 0 0 1-.133.838l-.001.001Zm16.248-.623a.431.431 0 0 1-.163-.828 27.394 27.394 0 0 0 1.572-.709.429.429 0 0 1 .375.772c-.534.262-1.079.509-1.621.732a.428.428 0 0 1-.163.033Zm-21.837-1.869a.424.424 0 0 1-.209-.055 37.276 37.276 0 0 1-1.524-.902.431.431 0 0 1-.138-.592.427.427 0 0 1 .589-.139c.494.308.996.605 1.492.883a.43.43 0 0 1-.21.805Zm48.456-.751a.429.429 0 0 1 0-.859c.571 0 1.153-.015 1.731-.039a.429.429 0 0 1 .445.411.428.428 0 0 1-.409.448c-.591.026-1.185.039-1.767.04v-.001Zm-4.366-.236c-.016 0-.032 0-.047-.003a37.417 37.417 0 0 1-1.756-.239.43.43 0 0 1 .137-.848 39.658 39.658 0 0 0 1.713.233.43.43 0 0 1-.047.857Zm-16.881-.076a.427.427 0 0 1-.354-.188.432.432 0 0 1 .113-.597c.47-.323.941-.664 1.4-1.016a.43.43 0 0 1 .521.683c-.471.361-.955.712-1.437 1.043a.43.43 0 0 1-.241.075h-.002Zm27.351-.125a.43.43 0 0 1-.057-.855c.564-.077 1.14-.166 1.716-.264a.43.43 0 0 1 .144.848c-.585.101-1.172.191-1.744.268a.392.392 0 0 1-.059.005v-.002Zm-135.16-.056a.43.43 0 0 1-.385-.617c.255-.532.52-1.063.788-1.582a.43.43 0 0 1 .76.396 57.195 57.195 0 0 0-.777 1.56.43.43 0 0 1-.386.243Zm118.691-.955a.459.459 0 0 1-.121-.017 34.866 34.866 0 0 1-1.686-.548.43.43 0 0 1 .283-.81 33.5 33.5 0 0 0 1.645.532.432.432 0 0 1-.121.843Zm22.482-.151a.431.431 0 0 1-.101-.848c.549-.134 1.116-.28 1.684-.435a.427.427 0 0 1 .525.302.428.428 0 0 1-.301.527c-.575.156-1.149.305-1.705.441a.408.408 0 0 1-.102.013Zm-65.681-1.035a.427.427 0 0 1-.259-.088 52.837 52.837 0 0 1-1.388-1.093.43.43 0 0 1 .538-.669c.456.371.916.732 1.367 1.076a.432.432 0 0 1 .083.602.426.426 0 0 1-.341.17v.002Zm71.567-.665a.427.427 0 0 1-.406-.297.428.428 0 0 1 .274-.541 98.316 98.316 0 0 0 1.651-.559.43.43 0 0 1 .281.813c-.564.196-1.125.385-1.665.563a.444.444 0 0 1-.133.021h-.002Zm-34.063-.394a.433.433 0 0 1-.19-.044 35.463 35.463 0 0 1-1.567-.828.43.43 0 0 1 .417-.751c.197.11.397.219.596.327.399-.397.793-.807 1.172-1.222a.43.43 0 0 1 .631.581 34.37 34.37 0 0 1-1.003 1.055l.134.067a.431.431 0 0 1-.19.815Zm39.83-1.68a.43.43 0 0 1-.155-.831c.544-.211 1.087-.424 1.626-.639a.43.43 0 0 1 .317.799c-.542.217-1.088.432-1.634.644a.415.415 0 0 1-.154.028v-.001Zm-149.888-.509a.431.431 0 0 1-.364-.656c.31-.504.63-1.004.953-1.488a.426.426 0 0 1 .594-.119.43.43 0 0 1 .118.596c-.316.477-.632.97-.937 1.465a.427.427 0 0 1-.364.204v-.002Zm67.868-.71a.421.421 0 0 1-.288-.113c-.412-.377-.833-.77-1.288-1.198a.43.43 0 0 1 .587-.626c.452.427.87.815 1.279 1.19a.432.432 0 0 1-.29.748v-.001Zm36.958-.284a.43.43 0 0 1-.253-.083 35.155 35.155 0 0 1-1.404-1.083.431.431 0 0 1-.065-.604.428.428 0 0 1 .603-.065c.446.363.907.718 1.371 1.057a.431.431 0 0 1-.252.777v.001Zm50.741-.802a.43.43 0 0 1-.166-.827c.537-.226 1.073-.452 1.61-.681a.43.43 0 0 1 .337.79c-.537.231-1.076.459-1.614.685a.424.424 0 0 1-.166.033h-.001Zm-42.005-1.213a.432.432 0 0 1-.347-.682c.336-.464.665-.946.982-1.43a.428.428 0 1 1 .715.471 38.92 38.92 0 0 1-1.005 1.463.427.427 0 0 1-.346.178h.001Zm47.628-1.224a.43.43 0 0 1-.174-.822c.532-.238 1.063-.477 1.594-.718a.429.429 0 0 1 .567.215.431.431 0 0 1-.214.569c-.533.242-1.065.481-1.6.719a.416.416 0 0 1-.174.037h.001Zm-97.768-.707a.423.423 0 0 1-.297-.121l-1.26-1.217a.43.43 0 0 1-.013-.608.427.427 0 0 1 .605-.013l1.262 1.22a.43.43 0 0 1-.297.739Zm-59.897-.079a.43.43 0 0 1-.334-.699c.368-.46.75-.918 1.132-1.361a.427.427 0 0 1 .604-.043.43.43 0 0 1 .042.606c-.375.434-.749.884-1.11 1.335a.424.424 0 0 1-.334.16v.002Zm96.689-.012a.426.426 0 0 1-.308-.131c-.41-.427-.811-.87-1.195-1.314a.428.428 0 1 1 .647-.563c.374.434.766.865 1.164 1.281a.43.43 0 0 1-.308.727Zm66.547-1.76a.43.43 0 0 1-.183-.818c.527-.249 1.053-.5 1.579-.752a.427.427 0 0 1 .571.202.432.432 0 0 1-.202.573c-.526.253-1.054.504-1.583.755a.435.435 0 0 1-.182.041v-.001Zm-50.013-1.461a.43.43 0 0 1-.383-.625c.26-.514.513-1.04.75-1.565a.425.425 0 0 1 .566-.214.43.43 0 0 1 .213.569 39.817 39.817 0 0 1-.767 1.6.426.426 0 0 1-.382.235h.003Zm-57.78-.907a.422.422 0 0 1-.287-.112 80.863 80.863 0 0 0-1.304-1.16.432.432 0 0 1-.042-.606.428.428 0 0 1 .603-.043c.424.37.868.764 1.316 1.172a.43.43 0 0 1-.288.749h.001Zm113.305-.312a.43.43 0 0 1-.191-.814c.521-.261 1.042-.523 1.561-.786a.426.426 0 0 1 .575.189.43.43 0 0 1-.188.577c-.521.265-1.043.527-1.567.789a.439.439 0 0 1-.19.046v-.001Zm-164.6-.062a.43.43 0 0 1-.294-.742c.43-.405.87-.805 1.313-1.187a.428.428 0 0 1 .603.044.432.432 0 0 1-.044.606c-.432.374-.865.766-1.286 1.163a.431.431 0 0 1-.294.116h.002Zm88.726-.296a.425.425 0 0 1-.358-.195 30.957 30.957 0 0 1-.929-1.517.429.429 0 1 1 .742-.43c.285.496.589.993.903 1.476a.428.428 0 0 1-.358.664v.002Zm81.328-2.441a.43.43 0 0 1-.2-.811c.515-.272 1.03-.546 1.544-.821a.427.427 0 0 1 .579.178.428.428 0 0 1-.177.581c-.515.277-1.031.55-1.548.823a.425.425 0 0 1-.198.048v.002Zm-123.465-.823a.43.43 0 0 1-.257-.085c-.47-.354-.944-.697-1.406-1.019a.429.429 0 0 1 .488-.705c.471.328.952.678 1.432 1.037a.431.431 0 0 1-.257.774v-.002Zm-41.83-.296a.43.43 0 0 1-.242-.784c.487-.333.985-.66 1.482-.969a.43.43 0 0 1 .451.73c-.486.302-.974.62-1.45.948a.418.418 0 0 1-.24.076v-.001Zm106.661-.536a.43.43 0 0 1-.407-.564c.18-.547.35-1.106.505-1.662a.427.427 0 0 1 .528-.296.43.43 0 0 1 .296.53c-.16.567-.333 1.138-.517 1.697a.429.429 0 0 1-.407.295h.002Zm64.024-1.263a.432.432 0 0 1-.208-.807c.509-.283 1.018-.567 1.526-.853a.43.43 0 0 1 .418.749c-.51.286-1.019.573-1.53.856a.433.433 0 0 1-.207.055h.001Zm-89.544-.085a.427.427 0 0 1-.398-.27 31.01 31.01 0 0 1-.612-1.672.429.429 0 1 1 .812-.274c.182.545.382 1.092.596 1.626a.429.429 0 0 1-.396.59h-.002Zm-44.484-1.096a.43.43 0 0 1-.19-.044 29.464 29.464 0 0 0-1.568-.722.43.43 0 0 1 .334-.791c.548.234 1.09.483 1.613.744a.43.43 0 0 1-.19.815l.001-.002Zm-31.346-.065a.432.432 0 0 1-.181-.82 38.052 38.052 0 0 1 1.622-.712c.218-.09.47.016.558.235a.43.43 0 0 1-.234.56c-.531.218-1.064.453-1.585.696a.417.417 0 0 1-.18.041Zm170.701-1.79a.43.43 0 0 1-.216-.8c.504-.294 1.007-.591 1.508-.887a.427.427 0 0 1 .586.152.431.431 0 0 1-.151.589c-.503.297-1.006.594-1.512.889a.423.423 0 0 1-.215.059v-.002Zm-145.074-.32a.46.46 0 0 1-.115-.016 34.407 34.407 0 0 0-1.678-.424.43.43 0 0 1 .19-.838c.576.13 1.154.276 1.717.434a.43.43 0 0 1-.114.844Zm-19.887-.012a.43.43 0 0 1-.114-.844 36.502 36.502 0 0 1 1.716-.431.43.43 0 0 1 .189.84 37.39 37.39 0 0 0-1.677.421.455.455 0 0 1-.114.015v-.001Zm13.876-1.13c-.016 0-.03 0-.046-.003-.571-.06-1.15-.107-1.724-.142a.43.43 0 0 1 .05-.858c.586.034 1.18.083 1.764.145a.429.429 0 0 1 .38.472.429.429 0 0 1-.424.386Zm-7.863-.006a.429.429 0 0 1-.045-.857 40.122 40.122 0 0 1 1.764-.143.43.43 0 0 1 .05.858 39.863 39.863 0 0 0-1.768.142h-.001Zm91.068-.196a.431.431 0 0 1-.422-.502c.095-.568.181-1.145.252-1.718a.43.43 0 0 1 .479-.373.43.43 0 0 1 .371.48c-.073.584-.16 1.176-.259 1.756a.43.43 0 0 1-.421.358v-.001Zm-28.702-1.278a.429.429 0 0 1-.42-.349 33.804 33.804 0 0 1-.284-1.757.429.429 0 1 1 .848-.114c.076.57.168 1.146.275 1.71a.429.429 0 0 1-.421.51h.002Zm101.841-.21a.429.429 0 0 1-.224-.796c.497-.305.992-.611 1.488-.919a.43.43 0 0 1 .451.73c-.497.31-.994.618-1.492.923a.424.424 0 0 1-.223.063v-.001Zm5.189-3.267a.431.431 0 0 1-.233-.792c.489-.316.979-.633 1.467-.952a.43.43 0 0 1 .467.72c-.49.32-.981.639-1.472.956a.423.423 0 0 1-.231.068h.002Zm-77.764-1.36h-.007a.429.429 0 0 1-.421-.437 38.087 38.087 0 0 0-.009-1.738.43.43 0 1 1 .857-.023 39.202 39.202 0 0 1 .008 1.776.43.43 0 0 1-.428.423v-.001Zm-29.837-1.275a.428.428 0 0 1-.428-.43c0-.59.015-1.189.047-1.779a.433.433 0 0 1 .451-.407.431.431 0 0 1 .405.453c-.03.574-.046 1.157-.046 1.733 0 .238-.191.43-.428.43h-.001Zm112.716-.747a.427.427 0 0 1-.356-.189.433.433 0 0 1 .116-.597c.483-.327.965-.655 1.446-.986a.429.429 0 0 1 .484.71c-.483.33-.965.66-1.45.988a.422.422 0 0 1-.239.073l-.001.001Zm5.04-3.493a.43.43 0 0 1-.247-.781c.475-.338.95-.676 1.423-1.017a.43.43 0 0 1 .499.699c-.475.341-.95.682-1.427 1.02a.429.429 0 0 1-.247.079h-.001Zm-88.286-.616a.43.43 0 0 1-.424-.371 41.67 41.67 0 0 0-.275-1.715.429.429 0 1 1 .843-.156c.106.577.202 1.166.283 1.753a.428.428 0 0 1-.425.489h-.002Zm-28.898-1.257a.43.43 0 0 1-.421-.51c.11-.581.237-1.166.377-1.739a.428.428 0 1 1 .832.205 32.26 32.26 0 0 0-.367 1.693.427.427 0 0 1-.419.35l-.002.001Zm27.579-4.74a.43.43 0 0 1-.409-.303 38.773 38.773 0 0 0-.547-1.648.43.43 0 1 1 .807-.29c.198.551.386 1.118.559 1.686a.43.43 0 0 1-.41.555Zm-25.875-1.154a.431.431 0 0 1-.398-.589c.219-.55.454-1.1.702-1.634a.431.431 0 0 1 .57-.21.433.433 0 0 1 .208.572c-.241.52-.471 1.056-.683 1.59a.432.432 0 0 1-.399.271Zm23.569-4.533a.427.427 0 0 1-.377-.224 21.755 21.755 0 0 0-.873-1.483.428.428 0 1 1 .718-.468c.315.488.62 1.007.909 1.541a.433.433 0 0 1-.173.583.41.41 0 0 1-.203.051h-.001Zm-20.731-.902a.43.43 0 0 1-.353-.673c.341-.494.704-.976 1.076-1.43a.428.428 0 1 1 .661.546c-.358.435-.706.898-1.033 1.372a.426.426 0 0 1-.353.185h.002Zm17.031-3.961a.43.43 0 0 1-.285-.109 11.802 11.802 0 0 0-1.333-1.034.43.43 0 0 1 .472-.718c.488.324.971.698 1.433 1.112a.431.431 0 0 1-.285.751l-.002-.002Zm-12.815-.464a.43.43 0 0 1-.251-.778 13.652 13.652 0 0 1 1.526-.968.43.43 0 0 1 .408.756c-.481.261-.962.568-1.43.908a.424.424 0 0 1-.252.082h-.001Zm7.379-2.149c-.019 0-.036 0-.054-.002l-.123-.015a8.524 8.524 0 0 0-1.54-.033.43.43 0 0 1-.059-.858 9.438 9.438 0 0 1 1.695.036l.135.016a.43.43 0 0 1-.053.855l-.001.001Z"/><path fill="#EBEBEB" d="M267.977 169.859c12.297 0 22.265-1.436 22.265-3.209 0-1.772-9.968-3.208-22.265-3.208s-22.266 1.436-22.266 3.208c0 1.773 9.969 3.209 22.266 3.209Z"/></svg>
