<svg xmlns="http://www.w3.org/2000/svg" width="328" height="224" fill="none"><rect width="328" height="224" fill="#EFF5FF" rx="12"/><g clip-path="url(#a)"><path fill="#1A3151" d="M151.118 160.396a5.056 5.056 0 0 0-1.548.552c-1.622.882-3.167 1.724-4.729 2.245-2.352.803-4.763.927-7.36-.49-5.288-2.881-7.247-10.013-4.195-15.209 3.762-6.408 10.599-5.616 16.132-2.161 2.389 1.493 5.401.096 5.994-2.475v-24.78h-.11v.541h-24.385c-1.871-.499-3.085-2.304-2.939-4.18a3.95 3.95 0 0 1 .528-2.005c1.425-2.504 2.731-4.983 2.861-7.591.014-1.346-.295-2.732-1.077-4.171-2.871-5.3-9.986-7.27-15.171-4.214-3.285 1.935-4.673 4.687-4.78 7.659-.011 2.715 1.018 5.593 2.631 8.184.5.803.674 1.679.59 2.51-.037 1.749-1.234 3.368-3.015 3.811H89.338c-.07.107-.144.211-.211.321-1.83 2.996-1.453 5.227 1.278 7.111 1.751 1.209 3.597 2.248 5.129 3.814 2.337 2.394 2.49 3.805.705 6.765-2.01 3.332-1.998 3.467 1.09 5.836.83.637 1.706 1.113.543 2.315-1.715 1.769-1.1 3.495.373 4.785 2.071 1.809 2.383 4.129 1.993 6.726-.34 2.265-.84 4.501-1.262 6.749-1.141 6.069.447 8.886 5.918 10.48 5.71 1.664 11.391.222 17.087-.33 3.816-.369 7.576-1.701 11.479-.732 2.535.628 3.934 2.183 4.26 5.028.475 4.151 1.709 8.117 2.411 12.201.573 3.332 2.02 4.371 5.013 4.236 2.507-.113 6.095-.166 10.257-.183v-30.295c-.461-1.969-2.344-3.253-4.289-3.05l.006-.003Z"/><path fill="#145566" d="M176.054 61.534c1.175 2.363 4.429 3.019 6.404 1.01 4.577-4.65 11.049-7.01 16.191-1.653 4.17 4.343 3.917 11.737-.559 15.77-2.197 1.98-4.575 2.422-7.047 2.189-1.639-.144-3.339-.603-5.12-1.082a5.056 5.056 0 0 0-1.633-.175c-1.939.254-3.473 1.944-3.467 3.966l3.324 13.95h-.006l2.212 9.286.078.335.076.316.107-.025 24.009-5.746c2.349.265 4.099 2.619 3.377 5.101-1.259 4.309-2.253 8.491 1.051 12.184 4.021 4.489 11.397 4.746 15.733.569 5.348-5.152 2.996-11.638-1.641-16.229-1.891-1.873-1.408-4.89.641-6.208l14.676-3.512c.77-5.427.703-10.77-.16-15.767-2.537-12.877-7.522-22.836-15.401-30.069C212.744 30.904 194.1 26.845 174.301 30a46.533 46.533 0 0 0-5.469 1.217l3.83 16.08 3.392 14.24v-.003Z"/><path fill="#D1E7F5" d="M200.653 193.935c3.574-.194 1.84-2.43.191-5.9-13.367-28.163 2.554-50.861 5.162-54.038 3.906-4.76 6.901-9.945 8.989-15.252h-15.09c-2.298.806-3.467 3.625-2.062 5.887 3.445 5.546 4.229 12.401-2.164 16.167-5.184 3.053-12.299 1.087-15.171-4.214-2.361-4.36-.424-8.196 1.798-12.094 1.279-2.245.121-4.943-2.102-5.746h-24.683v23.192c0 .321-.045.628-.112.921v.098c-.624 2.535-3.611 3.898-5.98 2.417-5.533-3.453-12.372-4.242-16.129 2.169-3.049 5.196-.792 12.206 4.496 15.085 2.557 1.391 4.816 1.304 7.045.563 1.584-.541 3.141-1.388 4.706-2.287a4.038 4.038 0 0 1 1.571-.51c2.032-.36 3.833.769 4.291 2.983v.068c.07.298.115.608.115.932v29.362c16.107-.059 40.742.434 45.131.194l-.002.003Z"/><path fill="#A1DBC6" d="M177.538 78.236c-3.763-6.408-10.6-5.62-16.133-2.16-2.388 1.492-5.4.095-5.993-2.476a4.06 4.06 0 0 1-.113-.921V42.431c-8.241.372-16.258 2.862-23.952 6.641-2.068 1.017-4.103 2.127-6.12 3.273-14.146 8.03-22.016 20.358-21.351 38.423.374 10.137-4.127 17.516-10.782 23.718-1.202 1.121-2.396 2.236-3.383 3.583-.129.177-.255.36-.376.546h21.204c1.784-.442 2.979-2.062 3.015-3.811a3.96 3.96 0 0 0-.604-2.183c-1.675-2.695-2.717-5.7-2.616-8.511.107-2.969 1.495-5.72 4.78-7.658 5.184-3.053 12.299-1.087 15.171 4.213.781 1.44 1.087 2.825 1.076 4.172-.028 2.729-1.385 5.314-2.875 7.922a3.992 3.992 0 0 0-.514 1.671c-.149 1.875 1.065 3.681 2.939 4.179h24.386V95.118c0-.327.045-.637.115-.932.463-1.97 2.346-3.256 4.291-3.05.528.056 1.059.219 1.568.509 1.565.896 3.122 1.743 4.706 2.284 2.352.803 4.763.927 7.36-.49 5.288-2.881 7.247-10.013 4.195-15.21l.006.007Z"/></g><defs><clipPath id="a"><path fill="#fff" d="M88 29h157v165H88z"/></clipPath></defs></svg>
