<svg xmlns="http://www.w3.org/2000/svg" width="328" height="224" fill="none"><rect width="328" height="224" fill="#EFF1F5" rx="12"/><g fill="#3C3A3A" clip-path="url(#a)"><path d="M112.169 153.567a8.553 8.553 0 0 1-1.394-.109 9.126 9.126 0 0 1-1.37-.329 8.42 8.42 0 0 1-.67-.245 9.591 9.591 0 0 1-1.904-1.045 14.242 14.242 0 0 0-.575-.387 11.77 11.77 0 0 0-.52-.313 8.615 8.615 0 0 0-.91-.449 7.845 7.845 0 0 0-.794-.281 10.803 10.803 0 0 0-.375-.106l-.371-.095a29.684 29.684 0 0 1-.615-.161 11.08 11.08 0 0 1-.646-.199 8.998 8.998 0 0 1-.706-.276 10.255 10.255 0 0 1-.794-.39 13.139 13.139 0 0 1-.909-.542c-.325-.21-.675-.451-1.052-.731a29.655 29.655 0 0 1-1.225-.958c-.44-.361-.914-.767-1.424-1.222-.546.04-1.087.067-1.618.08-.531.013-1.055.008-1.567-.012a19.167 19.167 0 0 1-1.493-.112 15.06 15.06 0 0 1-1.398-.225c-.446-.094-.876-.21-1.281-.35a8.336 8.336 0 0 1-1.143-.483 6.2 6.2 0 0 1-.982-.631 5.048 5.048 0 0 1-1.126-1.242 4.642 4.642 0 0 1-.479-1.002 5.353 5.353 0 0 1-.25-1.124 6.468 6.468 0 0 1-.022-1.246c.016-.218.041-.441.077-.669a37.433 37.433 0 0 1-2.504-.408 42.657 42.657 0 0 1-2.437-.556 48.273 48.273 0 0 1-4.466-1.395 44.005 44.005 0 0 1-1.923-.755c-.598-.252-1.149-.5-1.646-.74a23.08 23.08 0 0 1-1.316-.683 10.316 10.316 0 0 1-.933-.585 11.834 11.834 0 0 1-1.26-1.041 10.372 10.372 0 0 1-1-1.099 9.09 9.09 0 0 1-.761-1.132 8.363 8.363 0 0 1-.541-1.143 8.113 8.113 0 0 1-.342-1.131 7.637 7.637 0 0 1-.163-1.095 7.082 7.082 0 0 1-.001-1.038 6.435 6.435 0 0 1 .384-1.794c.1-.269.215-.526.345-.771a5.706 5.706 0 0 1 .955-1.309c.187-.189.386-.364.596-.524a5.115 5.115 0 0 1 2.167-.949 5.302 5.302 0 0 1 1.744-.025c.274.043.541.107.803.188.261.081.515.18.764.293.249.112.493.239.733.377.24.136.477.284.708.438.233.154.462.314.69.477.227.163.453.328.678.495l.302.222c.102.074.202.148.304.22.102.073.203.147.307.218l.309.212a13.717 13.717 0 0 0 .624.396 9.408 9.408 0 0 0 .632.34c.054.025.109.051.164.075l.164.071c.053.023.11.046.165.067l.167.063.168.058.17.055a7.797 7.797 0 0 0 .342.099v-.079l-.003-.015v-.032a9.506 9.506 0 0 1-.033-.674c0-.111 0-.223.002-.334.002-.111.007-.221.012-.332a8.605 8.605 0 0 1 .06-.654c.014-.109.03-.215.046-.323.017-.107.037-.214.058-.319-.053-.04-.109-.08-.162-.121l-.161-.121-.161-.121a8.187 8.187 0 0 1-.16-.122l-.16-.123-.158-.122-.158-.124-.157-.124a33.533 33.533 0 0 1-2.569-1.967 27.369 27.369 0 0 1-1.119-1.006c-.354-.337-.69-.677-1.004-1.019a18.967 18.967 0 0 1-.888-1.029c-.275-.344-.53-.69-.765-1.035-.235-.346-.45-.693-.642-1.042a11.369 11.369 0 0 1-.514-1.044c-.021-.05-.043-.098-.062-.148a6.59 6.59 0 0 1-.12-.296c-.02-.05-.038-.1-.058-.148-.019-.05-.038-.1-.055-.15a5.353 5.353 0 0 1-.054-.149l-.052-.149-.051-.15a15.339 15.339 0 0 1-.817-2.13 14.28 14.28 0 0 1-.352-1.454 11.638 11.638 0 0 1-.113-.737 11.713 11.713 0 0 1-.07-.742 11.958 11.958 0 0 1-.027-.749 147.52 147.52 0 0 1 .011-3.247c.017-1.091.051-2.187.11-3.278a57.01 57.01 0 0 1 .264-3.248c.12-1.07.275-2.126.474-3.154a29 29 0 0 1 .739-2.998c.297-.966.645-1.897 1.058-2.78a16.59 16.59 0 0 1 1.433-2.499 13.81 13.81 0 0 1 1.863-2.154 12.672 12.672 0 0 1 2.51-1.825c.456-.254.932-.483 1.428-.686a14.58 14.58 0 0 1 1.541-.534c.533-.152 1.084-.28 1.654-.381.569-.101 1.157-.178 1.763-.23.606-.05 1.229-.076 1.872-.075.641 0 1.301.026 1.978.077a9.273 9.273 0 0 1 .271-1.467 8.403 8.403 0 0 1 .509-1.373c.104-.219.217-.434.34-.643a7.993 7.993 0 0 1 1.363-1.716 7.69 7.69 0 0 1 .916-.745 7.498 7.498 0 0 1 3.199-1.256 8.24 8.24 0 0 1 2.355.003c.4.058.799.143 1.197.26.398.115.796.26 1.19.435a10.579 10.579 0 0 1 2.65 1.682 10.519 10.519 0 0 1 1.42 1.515 10.821 10.821 0 0 1 1.118 1.808 12.583 12.583 0 0 1 .8 2.078 15.635 15.635 0 0 1 .471 2.298 18.725 18.725 0 0 1 .145 2.48 22.804 22.804 0 0 1-.389 3.98c.182.047.365.094.547.143a62.133 62.133 0 0 1 1.089.305c.181.052.362.106.541.162.181.055.361.11.54.169.179.057.359.115.537.175.178.06.357.12.534.182.178.061.355.124.533.188.028-.703.079-1.376.151-2.022.073-.645.168-1.262.287-1.85a17.22 17.22 0 0 1 .419-1.676c.163-.53.346-1.03.554-1.5.206-.472.435-.914.687-1.327.251-.413.524-.797.819-1.15a8.372 8.372 0 0 1 2.036-1.767 8.096 8.096 0 0 1 2.707-1.047c.457-.088.91-.14 1.358-.158.448-.018.887-.005 1.315.032.429.037.843.1 1.24.18a11.733 11.733 0 0 1 2.115.646c.301.127.572.256.809.386.133.072.286.165.455.283.17.118.353.262.55.435.196.174.404.379.619.618.214.239.436.513.659.83.224.314.451.67.674 1.07.225.399.447.844.662 1.34.214.495.423 1.04.621 1.64.198.6.383 1.255.554 1.97a13.548 13.548 0 0 1 3.133 1.42 12.748 12.748 0 0 1 2.635 2.173 7.013 7.013 0 0 1 1.015 1.426 6.592 6.592 0 0 1 .775 3.276 6.684 6.684 0 0 1-.574 2.503 6.06 6.06 0 0 1-.39.737 6.196 6.196 0 0 1-1.669 1.797 6.24 6.24 0 0 1-.7.44 6.575 6.575 0 0 1-1.768.647 9.236 9.236 0 0 1-.39.083l-.198.038c-.066.013-.132.024-.2.036l-.204.033c-.068.009-.137.021-.206.031a6.94 6.94 0 0 1-.208.028c.14.059.279.117.417.178.139.061.274.124.411.187a21.462 21.462 0 0 1 1.194.614 21.306 21.306 0 0 1 .765.455c.125.079.248.16.371.241a14.74 14.74 0 0 1 1.235-.223 14.515 14.515 0 0 1 1.236-.124c.205-.012.409-.019.612-.019a10.356 10.356 0 0 1 1.195.057c.195.022.387.047.578.08.218.037.43.082.635.135a6.69 6.69 0 0 1 1.141.407 5.159 5.159 0 0 1 1.388.943 4.822 4.822 0 0 1 .703.848c.239.363.43.729.575 1.094.146.367.249.735.31 1.102.06.367.082.734.066 1.099a5.702 5.702 0 0 1-.154 1.09 6.878 6.878 0 0 1-.35 1.072 8.447 8.447 0 0 1-.526 1.045c-.202.343-.429.682-.678 1.012-.249.33-.519.655-.807.969.01.053.02.105.028.158.01.053.019.105.027.159l.026.16.024.159.022.159.022.161c.007.054.014.107.019.161l.02.161.05-.027.049-.027.049-.027.051-.027.051-.028.051-.028.051-.028.051-.029c.955-.535 2.088-1.017 3.399-1.447 1.311-.43 2.799-.808 4.465-1.134a66.302 66.302 0 0 1 5.523-.819c2.016-.221 4.209-.39 6.575-.507 2.367-.117 4.907-.181 7.622-.192 2.714-.011 5.602.028 8.66.122 3.061.094 6.292.239 9.696.437 3.403.198 6.978.448 10.722.753a14.294 14.294 0 0 1 4.5 1.12 14.1 14.1 0 0 1 3.809 2.427 13.926 13.926 0 0 1 2.84 3.486 13.696 13.696 0 0 1 1.59 4.295 35.422 35.422 0 0 0 7.218 15.651 35.571 35.571 0 0 0 13.427 10.294 34.94 34.94 0 0 0 11.236 2.834 35.422 35.422 0 0 0 6.986-.119 34.515 34.515 0 0 0 6.722-1.469 34.745 34.745 0 0 0 6.304-2.766 35.157 35.157 0 0 0 2.946-1.852 36.284 36.284 0 0 0 5.342-4.579 35.336 35.336 0 0 0 6.007-8.457 35.526 35.526 0 0 0 3.293-9.86c.206-1.155.358-2.326.452-3.511.082-1.035.115-2.065.098-3.088a31.15 31.15 0 0 0-1.473-8.953 30.48 30.48 0 0 0-2.394-5.539 31.326 31.326 0 0 0-7.852-9.291 30.404 30.404 0 0 0-13.587-6.161 31.16 31.16 0 0 0-9.132-.292 30.63 30.63 0 0 0-5.863 1.28 30.221 30.221 0 0 0-5.501 2.412 30.777 30.777 0 0 0-2.57 1.617 31.357 31.357 0 0 0-6.656 6.29 30.815 30.815 0 0 0-3.244 5.081 30.71 30.71 0 0 0-2.193 5.626 31.544 31.544 0 0 0-1.075 6.039 26.805 26.805 0 0 0 .509 7.79 26.443 26.443 0 0 0 1.569 4.899 26.468 26.468 0 0 0 2.511 4.527 26.962 26.962 0 0 0 5.334 5.721 26.084 26.084 0 0 0 4.308 2.789 26.057 26.057 0 0 0 7.293 2.471c.855.156 1.721.268 2.597.339a26.402 26.402 0 0 0 5.259-.094 25.853 25.853 0 0 0 7.467-2.053 26.1 26.1 0 0 0 4.527-2.585 26.874 26.874 0 0 0 5.696-5.484 26.038 26.038 0 0 0 2.747-4.416 26.294 26.294 0 0 0 1.825-4.88 26.735 26.735 0 0 0 .845-5.233 22.76 22.76 0 0 0-.154-4.469 21.991 21.991 0 0 0-.99-4.195 21.482 21.482 0 0 0-4.185-7.218 21.556 21.556 0 0 0-6.617-5.082 21.979 21.979 0 0 0-4.029-1.524 22.734 22.734 0 0 0-4.411-.73 23.743 23.743 0 0 0-4.698.137c-1.482.194-2.878.53-4.188.986a19.993 19.993 0 0 0-3.668 1.712 20.424 20.424 0 0 0-3.139 2.31 21.52 21.52 0 0 0-2.601 2.783 22.598 22.598 0 0 0-2.055 3.132 23.4 23.4 0 0 0-1.497 3.353 22.901 22.901 0 0 0-.933 3.451 21.131 21.131 0 0 0-.272 5.735c.09.986.255 1.976.503 2.952s.58 1.941 1.007 2.874a15.53 15.53 0 0 0 1.567 2.694 15.091 15.091 0 0 0 2.186 2.411 16.098 16.098 0 0 0 2.859 2.028 19.4 19.4 0 0 0 3.592 1.542 18.017 18.017 0 0 0 5.478.87 17.244 17.244 0 0 0 3.587-.375 17.027 17.027 0 0 0 5.069-1.97 17.639 17.639 0 0 0 2.917-2.143c.443-.404.866-.831 1.265-1.276a17.527 17.527 0 0 0 3.572-6.188c.188-.573.348-1.16.475-1.756a14.207 14.207 0 0 0 .314-2.934 13.836 13.836 0 0 0-1.196-5.647 13.262 13.262 0 0 0-.664-1.294 13.358 13.358 0 0 0-1.677-2.287 12.991 12.991 0 0 0-2-1.78 12.033 12.033 0 0 0-1.115-.707 12.084 12.084 0 0 0-3.715-1.35 12.83 12.83 0 0 0-6.074.327c-.746.226-1.465.519-2.149.875a12.733 12.733 0 0 0-5.018 4.678 12.894 12.894 0 0 0-1.691 4.476 9.082 9.082 0 0 0-.118.924c-.022.309-.031.616-.022.923a9.038 9.038 0 0 0 .231 1.819 8.973 8.973 0 0 0 1.515 3.303 8.233 8.233 0 0 0 1.129 1.248 8.032 8.032 0 0 0 2.043 1.345c.247.112.5.212.759.297a8 8 0 0 0 1.606.354 8.4 8.4 0 0 0 1.645.027 8.178 8.178 0 0 0 4.339-1.681 8.429 8.429 0 0 0 1.136-1.06 8.307 8.307 0 0 0 1.603-2.712c.182-.51.318-1.045.401-1.599a5.64 5.64 0 0 0 .054-1.183 4.8 4.8 0 0 0-.07-.545 3.804 3.804 0 0 0-.334-.98 3.233 3.233 0 0 0-.581-.815 3.52 3.52 0 0 0-.823-.629 3.855 3.855 0 0 0-.992-.386 4.302 4.302 0 0 0-1.602-.074 3.91 3.91 0 0 0-1.03.299 3.488 3.488 0 0 0-.817.511 3.066 3.066 0 0 0-.336.328 3.532 3.532 0 0 0-.705 1.25 4.515 4.515 0 0 0-.201 1.028.826.826 0 0 1-.08.286.797.797 0 0 1-.174.225.872.872 0 0 1-.116.083.754.754 0 0 1-.579.067.746.746 0 0 1-.359-.235.802.802 0 0 1-.14-.251.931.931 0 0 1-.033-.143.65.65 0 0 1-.002-.153c.019-.25.055-.495.101-.732a5.444 5.444 0 0 1 .448-1.329 4.878 4.878 0 0 1 1.231-1.582 4.76 4.76 0 0 1 .547-.399c.193-.121.397-.23.61-.326a5.458 5.458 0 0 1 2.15-.478 5.59 5.59 0 0 1 2.811.7 5.036 5.036 0 0 1 1.607 1.416c.137.188.262.387.371.593a5.28 5.28 0 0 1 .477 1.341 6.042 6.042 0 0 1 .12 1.518c-.01.266-.037.538-.077.815a10.036 10.036 0 0 1-.474 1.888 9.788 9.788 0 0 1-1.894 3.2c-.409.46-.858.878-1.341 1.251a9.633 9.633 0 0 1-3.27 1.647 9.683 9.683 0 0 1-1.848.336 9.88 9.88 0 0 1-2.905-.192 9.242 9.242 0 0 1-1.836-.612 8.687 8.687 0 0 1-.857-.444 9.95 9.95 0 0 1-.809-.53 10.005 10.005 0 0 1-2.682-2.986 10.354 10.354 0 0 1-.886-1.936 10.957 10.957 0 0 1-.479-2.077 10.89 10.89 0 0 1-.056-2.146c.027-.36.072-.718.135-1.075a14.65 14.65 0 0 1 .724-2.624 14.204 14.204 0 0 1 2.71-4.459 14.181 14.181 0 0 1 6.45-4.118 14.32 14.32 0 0 1 8.239-.008 13.474 13.474 0 0 1 3.957 1.946 14.32 14.32 0 0 1 2.238 1.989 14.968 14.968 0 0 1 1.869 2.548c.271.467.517.947.737 1.437a15.338 15.338 0 0 1 1.244 7.893 15.644 15.644 0 0 1-.26 1.625 19.112 19.112 0 0 1-.516 1.906 19.103 19.103 0 0 1-3.878 6.724 19.066 19.066 0 0 1-2.891 2.63 18.818 18.818 0 0 1-5.263 2.713 18.47 18.47 0 0 1-5.782.919 19 19 0 0 1-1.976-.105 19.723 19.723 0 0 1-3.958-.835 21.046 21.046 0 0 1-3.906-1.676 17.615 17.615 0 0 1-3.112-2.202 16.394 16.394 0 0 1-2.377-2.615 16.967 16.967 0 0 1-1.707-2.921 18.333 18.333 0 0 1-1.097-3.114 20.575 20.575 0 0 1-.549-3.2 22.365 22.365 0 0 1-.065-3.174c.052-1.042.175-2.062.357-3.039a24.53 24.53 0 0 1 .996-3.686c.434-1.217.968-2.42 1.601-3.581a24.269 24.269 0 0 1 2.196-3.343 23.107 23.107 0 0 1 2.78-2.973 21.505 21.505 0 0 1 7.275-4.295c1.4-.488 2.892-.848 4.475-1.056a25.53 25.53 0 0 1 5.018-.15c1.603.108 3.157.375 4.649.785 1.492.41 2.922.966 4.274 1.648a23.385 23.385 0 0 1 3.812 2.41 23.593 23.593 0 0 1 5.883 6.704 23.307 23.307 0 0 1 2.977 8.547 23.42 23.42 0 0 1 .178 4.713 28.77 28.77 0 0 1-.893 5.528 27.655 27.655 0 0 1-4.831 9.823 27.857 27.857 0 0 1-3.819 4.057 28.071 28.071 0 0 1-6.984 4.467 27.165 27.165 0 0 1-5.185 1.709 27.504 27.504 0 0 1-5.465.647 28.183 28.183 0 0 1-8.207-1.064 27.793 27.793 0 0 1-2.573-.872 27.9 27.9 0 0 1-2.466-1.118 27.424 27.424 0 0 1-4.551-2.947 28.367 28.367 0 0 1-5.636-6.046 28.085 28.085 0 0 1-2.653-4.783 27.679 27.679 0 0 1-1.659-5.176 27.991 27.991 0 0 1-.626-5.447c-.015-.923.013-1.852.088-2.784a33.024 33.024 0 0 1 2.136-9.342c.383-.983.814-1.947 1.292-2.886a31.78 31.78 0 0 1 1.567-2.743 31.743 31.743 0 0 1 1.833-2.584 32.785 32.785 0 0 1 9.672-8.289 31.69 31.69 0 0 1 5.764-2.53 31.31 31.31 0 0 1 3.035-.822 32.161 32.161 0 0 1 9.499-.63c1.077.086 2.14.226 3.189.415a31.944 31.944 0 0 1 14.243 6.46 32.45 32.45 0 0 1 2.391 2.107 33.128 33.128 0 0 1 4.158 4.92c.607.88 1.168 1.785 1.683 2.713.514.928.98 1.877 1.4 2.846.418.969.79 1.956 1.112 2.959.322 1.003.595 2.023.816 3.056a32.58 32.58 0 0 1 .728 6.329 33.765 33.765 0 0 1-.102 3.237 38.1 38.1 0 0 1-.47 3.659 37.345 37.345 0 0 1-1.961 6.988 36.717 36.717 0 0 1-7.732 12.101 37.497 37.497 0 0 1-8.637 6.702 36.13 36.13 0 0 1-10.028 3.819 36.668 36.668 0 0 1-3.548.594 37.187 37.187 0 0 1-7.279.125 36.472 36.472 0 0 1-11.71-2.953 37.068 37.068 0 0 1-9.927-6.421 37.29 37.29 0 0 1-4.066-4.305 36.95 36.95 0 0 1-5.885-10.391 36.992 36.992 0 0 1-1.638-5.921 12.136 12.136 0 0 0-1.421-3.835 12.576 12.576 0 0 0-4.15-4.327 12.677 12.677 0 0 0-3.748-1.612 12.889 12.889 0 0 0-2.075-.341c-3.708-.3-7.246-.549-10.611-.747a356.107 356.107 0 0 0-9.585-.44 257.713 257.713 0 0 0-8.554-.134c-2.679.008-5.184.064-7.515.174-2.331.108-4.489.269-6.471.48-1.982.21-3.789.472-5.42.785-1.63.313-3.086.676-4.363 1.091-1.277.414-2.378.879-3.3 1.396l-.127.071a8.086 8.086 0 0 1-.128.07l-.127.068a5.236 5.236 0 0 1-.126.067l-.125.067c-.043.021-.084.044-.126.065a15.095 15.095 0 0 1-.25.128c.03.938-.003 1.89-.092 2.84a25.765 25.765 0 0 1-.432 2.846 27.438 27.438 0 0 1-1.741 5.425 24.87 24.87 0 0 1-1.238 2.44 20.6 20.6 0 0 1-1.434 2.164 16.298 16.298 0 0 1-1.595 1.819 11.755 11.755 0 0 1-1.719 1.402c-.557.369-1.112.675-1.665.925-.552.251-1.103.446-1.651.591-.547.145-1.091.24-1.631.291a10.48 10.48 0 0 1-1.602.029c-.528-.03-1.05-.1-1.566-.199a13.726 13.726 0 0 1-1.52-.393 16.587 16.587 0 0 1-1.468-.549 20.385 20.385 0 0 1-1.407-.67l-.016.03-.016.029a.456.456 0 0 0-.017.03.456.456 0 0 0-.017.03.456.456 0 0 0-.017.03.456.456 0 0 0-.017.03.456.456 0 0 0-.017.03.456.456 0 0 0-.017.03c.251.547.472 1.104.66 1.666.188.562.343 1.128.466 1.699a15.348 15.348 0 0 1 .343 3.437 14.497 14.497 0 0 1-.449 3.384 14.042 14.042 0 0 1-1.253 3.205 9.49 9.49 0 0 1-.484.797 8.662 8.662 0 0 1-1.839 1.973 8.64 8.64 0 0 1-.729.508 7.964 7.964 0 0 1-.78.427 8.562 8.562 0 0 1-2.183.7l-.246.04-.246.033a6.66 6.66 0 0 1-.494.041c-.082.004-.165.008-.247.01-.084.003-.166.003-.249.003l-.018.005Zm-14.232-8.046c.38.319.733.604 1.064.858.33.255.637.478.923.678.287.197.554.37.806.52.251.151.484.281.705.392.22.111.428.206.624.287a8.97 8.97 0 0 0 1.087.366c.169.047.335.088.5.131a22.275 22.275 0 0 1 .828.223c.143.043.288.09.439.142a8.428 8.428 0 0 1 .968.404 12.296 12.296 0 0 1 1.8 1.085 8.077 8.077 0 0 0 1.44.812 7.817 7.817 0 0 0 2.32.61 7.201 7.201 0 0 0 1.575-.015 7 7 0 0 0 2.173-.632 6.794 6.794 0 0 0 1.245-.773 6.69 6.69 0 0 0 .557-.483 7.238 7.238 0 0 0 .962-1.15c.143-.212.275-.431.4-.66.231-.43.436-.87.616-1.318a12.886 12.886 0 0 0 .754-2.771 13.405 13.405 0 0 0-.046-4.326 14.574 14.574 0 0 0-.804-2.861 10.9 10.9 0 0 1-.742.751c-.269.248-.558.493-.869.736a17.95 17.95 0 0 1-.999.721 21.42 21.42 0 0 1-1.133.71c-.4.235-.824.468-1.27.7a37.99 37.99 0 0 1-1.41.695c-.493.23-1.012.461-1.553.69-.543.229-1.108.459-1.7.688-.328.127-.681.258-1.059.389a45.755 45.755 0 0 1-2.52.795 53.175 53.175 0 0 1-2.916.748 51.96 51.96 0 0 1-3.152.621c-.535.088-1.075.168-1.613.236v.001Zm-11.82-6.654a6.74 6.74 0 0 0-.088.952 4.817 4.817 0 0 0 .069.893 3.65 3.65 0 0 0 .244.82 3.042 3.042 0 0 0 .442.728c.166.205.355.392.567.562.212.171.448.325.702.464.256.138.532.262.826.372.293.109.606.203.933.283.328.081.673.148 1.03.202.358.054.73.096 1.114.126.383.03.778.049 1.182.056.404.007.819.004 1.24-.009a86.975 86.975 0 0 1-1.16-1.118c-.203-.198-.409-.403-.62-.612-.213-.21-.427-.427-.65-.649a226.562 226.562 0 0 1-1.382-1.414 202.642 202.642 0 0 1-1.505-1.576 22.192 22.192 0 0 1-.73.011c-.122 0-.245 0-.368-.003l-.367-.007a23.73 23.73 0 0 1-.739-.031c-.123-.007-.248-.014-.37-.023l-.372-.027h.001Zm4.862-.067c.276.289.544.569.807.84l.767.789a163.698 163.698 0 0 0 1.425 1.432l.658.646a114.705 114.705 0 0 0 1.217 1.161c.192.179.378.351.56.517a44.257 44.257 0 0 0 3.363-.461 52.05 52.05 0 0 0 3.302-.688 53.69 53.69 0 0 0 3.031-.828c.47-.144.921-.291 1.348-.437.426-.147.828-.293 1.202-.438.619-.241 1.209-.48 1.77-.719a46.558 46.558 0 0 0 1.595-.713c.503-.237.978-.475 1.426-.712.448-.238.868-.476 1.26-.715a19.65 19.65 0 0 0 1.1-.718c.34-.241.652-.483.941-.727.288-.244.551-.49.788-.739.237-.247.451-.499.64-.752a12.642 12.642 0 0 0-.124-.232l-.129-.231a17.101 17.101 0 0 0-.133-.229c-.045-.077-.092-.152-.138-.228l-.143-.226a10.84 10.84 0 0 0-.298-.448 29.803 29.803 0 0 0-.155-.222c-.008-.011-.016-.021-.023-.033l-.024-.032-.024-.033-.024-.033c-.009-.01-.016-.023-.024-.032a.216.216 0 0 1-.024-.035c-.007-.011-.017-.022-.026-.034l-.025-.034-.11-.077a4.315 4.315 0 0 1-.11-.077 5.145 5.145 0 0 1-.109-.076 4.958 4.958 0 0 1-.216-.154l-.108-.077-.106-.077a3.99 3.99 0 0 1-.104-.077 26.05 26.05 0 0 1-2.631.368 31.004 31.004 0 0 1-2.935.11 32.078 32.078 0 0 1-1.585-.052 37.577 37.577 0 0 1-1.667-.131 42.478 42.478 0 0 1-4.223-.639c-.108-.021-.215-.044-.324-.067l-.328-.071-.332-.074c-.111-.026-.223-.051-.334-.078a27.8 27.8 0 0 1-.34-.083l-.341-.085a13.63 13.63 0 0 1-1.21 1.932 12.69 12.69 0 0 1-1.543 1.705 12.126 12.126 0 0 1-1.22.981 10.495 10.495 0 0 1-1.351.803 12.153 12.153 0 0 1-1.465.614 14.528 14.528 0 0 1-1.561.443 16.126 16.126 0 0 1-1.64.283h.008Zm-4.5-1.398c.049.004.1.007.149.009.05.003.1.008.15.01l.15.009.15.008.147.008.149.005.148.006.148.004c-.035-.038-.07-.077-.107-.115-.035-.038-.072-.077-.107-.117l-.109-.116-.109-.118-.109-.119a12.905 12.905 0 0 1-.11-.119l-.11-.12-.112-.12-.043.11a50.38 50.38 0 0 0-.043.111l-.042.111-.041.111-.04.111-.038.111-.037.11-.036.11h.001Zm.99-2.364.29.316.286.312.282.306.279.301.274.296a77.79 77.79 0 0 0 .538.578c.09.094.177.188.263.282.304-.02.605-.046.901-.08a15.882 15.882 0 0 0 1.74-.293 12.576 12.576 0 0 0 1.632-.49 10.553 10.553 0 0 0 1.497-.703c.238-.136.468-.281.691-.438a11.152 11.152 0 0 0 1.475-1.249 10.648 10.648 0 0 0 .835-.953 12.23 12.23 0 0 0 .72-1.036c.112-.179.218-.36.32-.545a49.904 49.904 0 0 1-1.985-.606 64.988 64.988 0 0 1-5.2-1.945 69.278 69.278 0 0 1-1.062-.458l-.277.484c-.093.16-.186.323-.28.483l-.282.483-.285.479c-.097.159-.191.319-.289.478a91.53 91.53 0 0 1-.585.948c-.099.156-.198.313-.298.468a27.248 27.248 0 0 0-.385.617c-.064.106-.128.211-.191.318-.064.106-.126.213-.19.321l-.186.326c-.06.11-.122.219-.182.33l-.178.333c-.06.111-.116.223-.173.336l.006.001ZM70.707 121.98h-.08l-.081.003c-.027 0-.054.002-.082.004a1.067 1.067 0 0 0-.082.007l-.082.009-.082.009a2.404 2.404 0 0 1-.083.013l-.084.015a3.637 3.637 0 0 0-1.083.384 3.723 3.723 0 0 0-.912.698 4.122 4.122 0 0 0-.693.969 4.748 4.748 0 0 0-.433 1.194 5.475 5.475 0 0 0-.089 1.902c.04.316.106.632.2.944.091.311.21.62.354.924.144.305.313.604.505.897.193.293.41.579.651.858.242.279.506.549.793.809.286.261.597.511.93.75.224.162.52.347.88.549.361.202.786.42 1.265.648.48.227 1.012.465 1.591.705a44.795 44.795 0 0 0 3.945 1.425c.725.224 1.475.439 2.245.636.77.196 1.557.377 2.354.532a36.16 36.16 0 0 0 2.409.387 9.576 9.576 0 0 1 .15-.47c.027-.08.053-.159.083-.239.028-.08.058-.161.09-.242.029-.081.061-.162.092-.244.033-.083.065-.166.1-.248.033-.083.069-.166.104-.25.035-.084.072-.168.11-.254l-.003-.003-.003-.002-.002-.003-.003-.003-.003-.003-.003-.003-.003-.003-.003-.002c-.255-.281-.52-.572-.79-.875a58.673 58.673 0 0 1-.825-.941c-.276-.324-.555-.66-.827-1.006a24.915 24.915 0 0 1-.804-1.07 20.57 20.57 0 0 1-.752-1.131 15.996 15.996 0 0 1-.671-1.194 13.423 13.423 0 0 1-.562-1.253c-.167-.428-.31-.865-.426-1.313a13.011 13.011 0 0 1-.29-.06c-.095-.022-.192-.044-.288-.068a10.223 10.223 0 0 1-1.133-.363 9.167 9.167 0 0 1-.554-.242 9.528 9.528 0 0 1-.713-.381c-.117-.069-.232-.14-.346-.211-.115-.073-.228-.147-.34-.221a11.11 11.11 0 0 1-.336-.229l-.33-.233-.327-.236-.323-.238c-.178-.131-.353-.26-.53-.387-.177-.126-.35-.252-.526-.371-.175-.12-.35-.235-.525-.344a9.746 9.746 0 0 0-.529-.308 6.745 6.745 0 0 0-.535-.257 4.954 4.954 0 0 0-.544-.198 3.877 3.877 0 0 0-1.129-.171l-.007-.001Zm49.89 12.008c.45.241.9.464 1.354.663.453.199.908.377 1.365.527.456.15.915.273 1.376.365.461.093.923.155 1.387.182.465.027.93.02 1.398-.027a8.55 8.55 0 0 0 1.407-.259c.47-.128.942-.298 1.416-.516.473-.218.948-.482 1.424-.797.531-.351 1.05-.775 1.551-1.26.5-.486.982-1.03 1.441-1.628.46-.598.895-1.245 1.302-1.935.407-.69.785-1.42 1.13-2.183a25.674 25.674 0 0 0 1.625-4.867c.19-.847.336-1.706.433-2.565.098-.86.146-1.721.14-2.573a19.821 19.821 0 0 1-2.999 1.016 15.641 15.641 0 0 1-1.407.287 15.32 15.32 0 0 1-1.34.153l-.424.242-.422.236c-.14.078-.281.155-.421.23l-.418.225-.417.219c-.139.073-.277.142-.416.214l-.412.207c-.137.069-.274.135-.411.201a19.069 19.069 0 0 1-.666 1.906 15.222 15.222 0 0 1-.558 1.221 16.926 16.926 0 0 1-2.159 3.274 16.756 16.756 0 0 1-2.505 2.409 17.812 17.812 0 0 1-3.586 2.174 7.894 7.894 0 0 1 .05 1.022 7.222 7.222 0 0 1-.095.991 7.152 7.152 0 0 1-.143.646Zm-38.985-7.303c.103.32.223.635.357.948.134.313.284.621.447.927.162.306.337.609.525.911.187.3.386.599.594.896.207.298.426.591.652.884a42.11 42.11 0 0 0 1.442 1.744c.252.289.51.578.77.867.046-.089.096-.178.144-.268a43 43 0 0 1 .305-.543l.16-.276.166-.279.171-.282.177-.285.182-.287c.095-.148.188-.296.281-.444.093-.148.187-.297.279-.447.091-.149.185-.3.275-.451l.274-.454.271-.455c.09-.152.18-.304.269-.458l.267-.46c.089-.153.177-.307.264-.461-.144-.066-.287-.135-.43-.203-.145-.068-.288-.138-.432-.206l-.43-.211-.429-.213a50.248 50.248 0 0 1-.855-.439l-.426-.223a42.873 42.873 0 0 1-.425-.228c-.198.033-.396.066-.597.096-.199.031-.4.059-.6.088a29.794 29.794 0 0 1-1.213.141 20.769 20.769 0 0 1-1.22.078 15.534 15.534 0 0 1-1.22-.007h.005Zm36.348 5.687c.053.037.107.072.161.108l.161.108.161.107.161.105c.053.036.107.07.161.104l.161.102a8.9 8.9 0 0 0 .162.103l.163.101c.01-.051.02-.104.028-.157.009-.052.016-.105.023-.158.007-.052.012-.105.018-.159.006-.054.01-.107.013-.159.004-.054.007-.107.008-.161l.005-.162v-.164c0-.055-.003-.109-.006-.165l-.167.06a4.14 4.14 0 0 1-.168.058l-.169.059-.171.056-.174.056c-.058.018-.116.037-.175.054-.058.019-.118.036-.177.053l-.178.052-.001-.001Zm-16.363-1.713.29.07.288.066c.096.022.192.045.287.064l.285.063.284.06.283.057.281.055c.093.019.186.036.278.053l.625.111c.207.035.412.068.618.101.205.031.41.062.612.091l.606.081c.201.026.402.048.601.07a41.283 41.283 0 0 0 1.764.149 55.743 55.743 0 0 1-3.485-.475c-.295-.048-.592-.101-.89-.154a71.441 71.441 0 0 1-2.696-.54l-.004.01-.004.01-.005.009c0 .003-.003.006-.004.01 0 .003-.003.006-.004.01 0 .003-.003.006-.004.01 0 .003-.003.006-.005.01 0 .003-.002.006-.004.01l.003-.001Zm.513-1.497a66.444 66.444 0 0 0 4.336.791c.466.068.928.131 1.382.187a48.706 48.706 0 0 0 2.643.253 37.995 37.995 0 0 0 2.452.089c-.136-.111-.269-.22-.4-.33-.132-.109-.26-.219-.387-.327a41.17 41.17 0 0 1-.738-.646c-.119-.107-.236-.212-.35-.317-.115-.105-.228-.211-.339-.315-.111-.103-.219-.209-.327-.313a18.505 18.505 0 0 1-.315-.31 24.462 24.462 0 0 0-1.56-.707 26.242 26.242 0 0 0-4.664-1.403 31.012 31.012 0 0 0-1.071-.199 23.679 23.679 0 0 1-.166 1.34 23.098 23.098 0 0 1-.164.89 16.52 16.52 0 0 1-.209.88c-.038.147-.079.292-.122.437h-.001Zm8.801-2.488c.275.14.544.284.804.429.26.145.511.293.755.443a21.229 21.229 0 0 1 3.105 2.305c.171.153.336.307.493.458.131-.016.261-.033.39-.051l.378-.059a16.198 16.198 0 0 0 .721-.138c.116-.025.23-.052.342-.079.111-.029.222-.057.329-.087a9.022 9.022 0 0 0 .619-.195 9.274 9.274 0 0 0-.286-.683 12.094 12.094 0 0 0-.549-1.064 12.922 12.922 0 0 0-.216-.366 16.31 16.31 0 0 0-.712-1.08 13.363 13.363 0 0 0-.522-.676 16.948 16.948 0 0 0-.593-.691 17.306 17.306 0 0 0-.322-.35 29.663 29.663 0 0 0-.694-.707 20.985 20.985 0 0 1-2.071-.181 17.44 17.44 0 0 1-.981-.164 16.907 16.907 0 0 1-2.715-.765 14.302 14.302 0 0 1-1.613-.723 12.4 12.4 0 0 0 .584 1.044 14.801 14.801 0 0 0 .742 1.083 19.315 19.315 0 0 0 1.437 1.708c.182.194.373.392.57.593l.005-.004Zm-11.847 3.299.135.041c.046.015.09.027.136.04l.135.04.136.038.136.039.135.038.136.039.134.037c0-.002 0-.003.002-.005l.001-.004c0-.001 0-.003.002-.004l.001-.004.001-.005c0-.001 0-.003.002-.004l.001-.004c.002-.002 0-.003.002-.004a3.87 3.87 0 0 0-.137-.033l-.138-.034-.136-.035-.138-.034-.137-.034-.137-.034-.137-.034a3.418 3.418 0 0 1-.137-.036l.002-.004Zm17.946-5.906c.075.083.15.165.222.248.072.082.144.163.213.246.069.081.139.163.205.244l.196.242c.064.081.128.161.188.241l.18.237.171.237.161.233c.09.134.178.267.264.4a15.875 15.875 0 0 1 .479.787 17.617 17.617 0 0 1 .414.769 12.97 12.97 0 0 1 .349.753c.052.124.103.247.151.37.353-.198.69-.409 1.009-.632a11.255 11.255 0 0 0 1.722-1.481c.256-.269.498-.549.725-.839.228-.291.441-.591.642-.9.2-.308.388-.626.563-.952.175-.325.339-.658.492-1 .153-.341.294-.688.427-1.043a37.905 37.905 0 0 1-2.333.742 31.609 31.609 0 0 1-4.39.912 27.843 27.843 0 0 1-2.049.187l-.001-.001Zm-24.512 2.332a82.108 82.108 0 0 0 3.073 1.033c.342.107.684.21 1.024.313a70.33 70.33 0 0 0 2.043.576 69.384 69.384 0 0 0 2.024.512 21.873 21.873 0 0 0 .226-.843 17.335 17.335 0 0 0 .412-2.584 35.452 35.452 0 0 0-3.856-.246 39.63 39.63 0 0 0-2.115.028 48.59 48.59 0 0 0-2.245.141l-.073.134c-.024.044-.048.089-.074.134-.024.044-.05.089-.073.133l-.074.134-.073.134c-.024.044-.05.089-.073.133l-.074.134-.073.134Zm35.069-4.853a24.853 24.853 0 0 1-.391 1.165 19.782 19.782 0 0 1-.458 1.131 16.165 16.165 0 0 1-1.139 2.133c.054-.063.109-.125.161-.189l.159-.192.155-.195.153-.198a25.976 25.976 0 0 0 .296-.404l.144-.206.142-.21a18.514 18.514 0 0 0 .472-.761 13.591 13.591 0 0 0 .429-.787 14.968 14.968 0 0 0 .56-1.223c.056-.138.111-.278.163-.418l-.106.045-.105.046c-.036.015-.071.029-.106.045l-.106.044-.106.044-.106.044-.105.043-.104.043h-.002Zm-37.122 4.082.08.031.078.031.08.032.078.031.08.031c.026.01.053.02.08.032l.08.031.081.03a.683.683 0 0 0 .024-.044l.024-.044.024-.045a.49.49 0 0 0 .024-.044.636.636 0 0 0 .024-.044.636.636 0 0 0 .024-.044.683.683 0 0 0 .024-.044l.024-.044-.103.013-.103.013-.103.012-.105.013-.104.014-.105.015-.104.014-.106.014.004-.004Zm12.404-1.518c.229.037.455.077.677.116a29.572 29.572 0 0 1 1.302.271 31.972 31.972 0 0 1 1.235.311c.201.056.398.113.593.171.195.058.388.118.577.181.189.061.376.123.561.189a17.107 17.107 0 0 1-1.159-1.746 13.702 13.702 0 0 1-.575-1.117 11.741 11.741 0 0 1-.428-1.084 10.045 10.045 0 0 1-.162-.531 13.614 13.614 0 0 1-.386-.323l-.187-.166-.182-.169a7.262 7.262 0 0 1-.178-.173l-.174-.175a14.042 14.042 0 0 1-.332-.358 12.608 12.608 0 0 1-.716-.889 11.652 11.652 0 0 1-.889-1.43 11.63 11.63 0 0 1-.668-1.537l-.078-.031-.077-.031c-.026-.01-.053-.02-.078-.032l-.078-.03-.078-.03-.077-.029-.078-.03-.078-.03a37.1 37.1 0 0 1 .427 1.171c.066.196.131.394.195.592a23.16 23.16 0 0 1 .504 1.804 22.287 22.287 0 0 1 .414 2.168c.022.159.041.32.06.482a19.779 19.779 0 0 1 .082.982c.01.165.017.332.024.498.005.167.01.335.011.501v.505l-.004-.001Zm-21.595 1.053c.124.011.25.019.376.027.126.007.251.011.379.014.127.003.253.004.381.003.127 0 .256-.003.383-.007a16.754 16.754 0 0 0 1.161-.077c.13-.013.26-.026.39-.042a29.266 29.266 0 0 1-.397-.237l-.395-.241a96.55 96.55 0 0 1-.393-.243l-.39-.246-.387-.249a91.698 91.698 0 0 1-.766-.507c-.127-.085-.253-.17-.379-.257l-.018.189-.014.191-.01.192c-.003.064-.004.128-.006.193v.194c0 .065.003.129.005.195l.008.196.014.197c.002.021.005.042.006.064l.006.064c.001.021.004.042.007.064l.007.064.007.064.008.064.009.064.008.064v.003Zm.352-3.812c.23.139.465.277.704.414a49.15 49.15 0 0 0 2.237 1.216 52.449 52.449 0 0 0 1.593.786 84.714 84.714 0 0 0 1.671.765l.05-.008.05-.009.049-.008.05-.009.049-.008.05-.009.049-.009.049-.008c.171-.03.342-.06.511-.088.17-.029.34-.056.508-.083.168-.027.335-.052.501-.077l.496-.071.492-.067.486-.061c.161-.02.322-.038.482-.055.16-.019.318-.036.476-.052a572.874 572.874 0 0 1 1.33-2.418 151.643 151.643 0 0 1 1.377-2.415 80.204 80.204 0 0 1 1.45-2.382 58.411 58.411 0 0 1 1.55-2.32 22.458 22.458 0 0 0-2.32-.463 18.45 18.45 0 0 0-1.494-.152 14.913 14.913 0 0 0-2.135.029 12.607 12.607 0 0 0-1.252.187c-.138.029-.278.06-.416.093-.139.034-.277.07-.416.108a12.002 12.002 0 0 0-.822.259c-.136.048-.271.098-.407.149a28.9 28.9 0 0 1-1.738 1.319 22.575 22.575 0 0 1-1.73 1.093c-.19.108-.382.211-.571.307-.19.097-.38.191-.57.278a11.02 11.02 0 0 0-1.418 1.766 9.45 9.45 0 0 0-.775 1.484 8.91 8.91 0 0 0-.195.52l-.001-.001Zm15.34 2.303c.196 0 .391 0 .585.005.193.002.385.007.576.012l.567.02c.188.007.373.017.556.029.184.01.366.023.549.035.18.013.36.027.538.043l.53.05c.175.018.347.037.52.057 0-.148 0-.295-.003-.441a15.76 15.76 0 0 0-.038-.874c-.01-.145-.022-.289-.034-.431a14.33 14.33 0 0 0-.098-.849c-.02-.14-.039-.279-.062-.417a22.085 22.085 0 0 0-.386-1.836 25.423 25.423 0 0 0-.631-2.097 32.731 32.731 0 0 0-.512-1.371c-.09-.227-.185-.453-.28-.678a50.829 50.829 0 0 0-1.457 2.14 64.746 64.746 0 0 0-1.368 2.207 120.634 120.634 0 0 0-1.931 3.375c-.21.377-.416.754-.622 1.13.13-.009.26-.018.388-.025l.385-.021c.127-.007.254-.013.381-.017l.377-.014.373-.012.37-.008c.123-.003.245-.004.366-.004l.364-.002-.003-.006Zm18.637-1.034a22.99 22.99 0 0 0 3.724-.267 29.502 29.502 0 0 0 2.702-.538 34.827 34.827 0 0 0 4.347-1.389 27.784 27.784 0 0 0 .211-.829c.032-.14.065-.279.096-.42.031-.141.061-.282.089-.423a53.28 53.28 0 0 0 .162-.853c.026-.144.05-.286.074-.43.024-.144.046-.288.069-.433a8.74 8.74 0 0 1-.322-.226 8.663 8.663 0 0 1-.595-.489 7.233 7.233 0 0 1-1.194-1.403 6.59 6.59 0 0 1-.896-2.134 6.468 6.468 0 0 1-.151-1.184 6.2 6.2 0 0 1 .081-1.225c.068-.413.178-.827.335-1.241.157-.413.36-.824.614-1.228.255-.404.56-.801.919-1.188a9.81 9.81 0 0 1 1.247-1.121l.026-.02.027-.02.026-.02.027-.02c.009-.007.019-.012.027-.02.009-.007.018-.012.027-.02l.028-.019.028-.02-.135-.268a23.69 23.69 0 0 0-.284-.531l-.147-.263a22.319 22.319 0 0 0-.307-.522c-.052-.087-.106-.172-.159-.259l-.164-.257a35.131 35.131 0 0 0-.163-.248l-.165-.246-.17-.245a9.761 9.761 0 0 0-.173-.242c-.058-.081-.118-.16-.177-.24-.059-.08-.12-.16-.181-.239l-.185-.238-.188-.235a20.853 20.853 0 0 0-3.436-.112c-.575.03-1.15.083-1.727.159a23.204 23.204 0 0 0-3.447.739 24.935 24.935 0 0 0-3.411 1.285 28.06 28.06 0 0 0-1.681.843c-.016.083-.031.164-.048.245l-.051.245-.054.245-.056.244-.061.244-.063.243-.067.242c-.022.081-.047.16-.069.242a26.299 26.299 0 0 1-.649 1.909c-.077.206-.158.41-.238.613-.081.202-.163.404-.246.603l-.25.595c-.084.198-.168.393-.253.586l-.253.581a115.248 115.248 0 0 0-.577 1.33 33.179 33.179 0 0 0-.524 1.301 19.842 19.842 0 0 0-.441 1.283 13.882 13.882 0 0 0-.322 1.281 46.002 46.002 0 0 1 5.885 3.807c.355.27.699.543 1.034.817a35.923 35.923 0 0 1 1.879 1.644l-.004-.001Zm-8.804-2.624a11.603 11.603 0 0 0 2.076 1.224 14.28 14.28 0 0 0 2.451.865 16.284 16.284 0 0 0 1.83.357 41.372 41.372 0 0 0-3.908-2.878 46.38 46.38 0 0 0-2.631-1.594 6.855 6.855 0 0 0-.001.5c.003.084.005.166.01.25a7.11 7.11 0 0 0 .043.505c.01.086.022.17.034.255a7.593 7.593 0 0 0 .094.514l.002.002Zm-26.78.338.039.027a.464.464 0 0 1 .04.027.462.462 0 0 1 .039.027c.013.01.027.017.04.027.012.01.026.017.04.027l.041.027a.466.466 0 0 1 .041.027.466.466 0 0 1 .041.027 8.81 8.81 0 0 1 .228-.549 13.73 13.73 0 0 1 .398-.799 11.804 11.804 0 0 1 .464-.766l-.03.005-.03.006-.03.006a.154.154 0 0 0-.03.005l-.029.006a.156.156 0 0 0-.03.006l-.03.004-.029.004c-.195.03-.387.054-.576.07a6.65 6.65 0 0 1-1.105.004 6.038 6.038 0 0 1-1.038-.173 5.351 5.351 0 0 1-.97-.352 5.658 5.658 0 0 1-.46-.242c.114.11.231.219.349.329.117.11.236.218.356.326.12.108.24.216.363.323.121.106.244.215.368.32l.376.319a45.744 45.744 0 0 0 1.165.939l-.002-.007Zm48.438-2.552-.042.244c-.014.081-.028.162-.044.243l-.045.243a20.96 20.96 0 0 1-.047.244c-.015.081-.032.162-.048.242l-.05.241a8.518 8.518 0 0 1-.053.241l-.053.24c.039-.017.079-.034.117-.052l.117-.053.119-.053c.039-.017.079-.035.118-.054.04-.018.08-.035.119-.054.04-.018.079-.037.119-.054l.119-.055.118-.056.037-.149.035-.15.034-.149c.011-.05.021-.1.033-.149l.031-.151.029-.151.029-.151c.01-.05.018-.101.027-.152l-.106-.034a6.33 6.33 0 0 1-.105-.036l-.105-.037-.103-.038-.101-.039-.102-.039a1.758 1.758 0 0 1-.1-.042l-.099-.041.002.001Zm-24.673-1.263c.045.087.094.172.142.258a9.255 9.255 0 0 0 .305.503c.053.083.109.165.164.246a10.556 10.556 0 0 0 .351.48c.061.078.125.156.188.233.064.077.129.154.195.229l-.002-.161v-.159c0-.053 0-.107.002-.159 0-.053.003-.106.005-.16.001-.054.004-.105.007-.158.002-.052.005-.105.01-.157l.011-.158c.004-.053.008-.106.014-.157l-.172-.088-.174-.087-.174-.087-.174-.085-.174-.085c-.057-.029-.115-.056-.173-.084a29.341 29.341 0 0 0-.351-.165v.001Zm26.941 1.921v.011h.023-.017l-.006-.011Zm.209-1.476a9.658 9.658 0 0 0 .53.076c.091.01.181.02.273.028a8.174 8.174 0 0 0 .559.036l.289.007h.292c.099-.002.198-.004.298-.009.133-.076.266-.156.399-.234l.399-.241c.135-.081.267-.163.402-.246l.404-.252.405-.257a46.753 46.753 0 0 0 .815-.532l.41-.275a14.731 14.731 0 0 0 .654-.46 19.129 19.129 0 0 0 .636-.488 15.526 15.526 0 0 0 .611-.515c.098-.088.196-.176.293-.266.096-.089.191-.179.284-.272a7.687 7.687 0 0 0-.072-.28c-.024-.092-.051-.185-.076-.277a22.224 22.224 0 0 0-.082-.276c-.028-.093-.058-.182-.088-.273a6.174 6.174 0 0 0-.093-.271l-.097-.267a16.265 16.265 0 0 0-.103-.265l-.109-.263a15.033 15.033 0 0 0-.941-1.833 14.375 14.375 0 0 0-.562-.858 16.394 16.394 0 0 0-.619-.818 15.164 15.164 0 0 0-2.178-2.188 17.636 17.636 0 0 0-.823-.635 20.138 20.138 0 0 0-1.362.41c-.147.051-.293.103-.435.157-.143.054-.284.108-.423.163-.138.056-.274.113-.408.17-.133.056-.264.116-.393.175-.129.059-.253.119-.374.179l-.012.114-.011.114c-.004.038-.009.076-.011.113-.003.037-.009.077-.013.116l-.013.115-.013.115-.012.115-.013.117v.046a22.216 22.216 0 0 1 .805 2.524 22.687 22.687 0 0 1 .501 2.562 22.386 22.386 0 0 1 .195 2.567 21.103 21.103 0 0 1-.111 2.535l-.007-.003ZM83.678 96.837h-.117l-.12.003c-.039 0-.078.003-.118.004l-.12.008-.12.008-.122.011c-.04.005-.08.01-.121.013l-.123.015a7.124 7.124 0 0 0-2.718.922 7.58 7.58 0 0 0-1.083.77 8.867 8.867 0 0 0-.914.9c-.278.316-.53.644-.757.977a11.96 11.96 0 0 0-.612.999c-.18.33-.34.655-.479.965-.138.31-.257.605-.359.875a15.85 15.85 0 0 0-.52 1.684 17.072 17.072 0 0 0-.337 1.736 17.847 17.847 0 0 0-.16 1.738c-.024.573-.018 1.139.015 1.69.034.549.098 1.084.188 1.593.09.51.21.995.358 1.447.147.453.322.873.523 1.252a5.235 5.235 0 0 0 1.609 1.843 4.347 4.347 0 0 0 1.034.534 4.56 4.56 0 0 0 1.153.233c.202.014.411.016.625.006a6.417 6.417 0 0 0 .93-.117l.275-.06c.092-.021.185-.045.278-.071.093-.026.188-.054.283-.083.094-.029.189-.061.285-.093a10.237 10.237 0 0 0 .873-.349 15.88 15.88 0 0 1 1.58-1.313 13.883 13.883 0 0 1 1.154-.75c.198-.117.399-.228.602-.334a16.69 16.69 0 0 1 1.242-.584 35.96 35.96 0 0 0 1.732-1.528 47.906 47.906 0 0 0 2.576-2.611 53.876 53.876 0 0 0 1.668-1.901c.275-.324.544-.653.813-.984a10.021 10.021 0 0 1-.1-.16 6.859 6.859 0 0 1-.1-.159c-.035-.053-.067-.105-.101-.159l-.1-.158-.1-.158-.101-.158-.1-.157-.1-.156c-.317-.498-.644-1-.978-1.497a37.94 37.94 0 0 0-1.037-1.464 25.31 25.31 0 0 0-1.108-1.38c-.383-.44-.779-.858-1.19-1.245a12.18 12.18 0 0 0-1.281-1.057 9.197 9.197 0 0 0-1.383-.82 7.492 7.492 0 0 0-1.497-.529 7.03 7.03 0 0 0-1.619-.188l-.001-.003Zm44.989 19.412.094.045.097.046.097.044.099.043.1.041a4.231 4.231 0 0 0 .202.078l.103.038a17.702 17.702 0 0 0 .08-1.398 20.656 20.656 0 0 0-.071-2.122 22.048 22.048 0 0 0-.172-1.421c-.037-.238-.08-.474-.125-.71l-.048.645c-.017.216-.032.434-.051.653l-.053.658-.058.665c-.02.222-.041.445-.064.669l-.069.673c-.024.224-.05.449-.076.674-.027.225-.056.451-.085.676v.003Zm10.522-1.452a14.07 14.07 0 0 1-.235.202c-.078.067-.158.134-.239.2-.08.065-.161.131-.243.195l-.246.192-.248.187a23.226 23.226 0 0 1-.762.538l-.004.003-.004.003-.005.003-.004.003-.004.003-.004.002-.005.003-.004.003a8.35 8.35 0 0 0 .253-.085l.256-.09.257-.095.26-.1c.086-.034.174-.068.261-.105l.265-.11c.089-.037.176-.075.265-.115.089-.038.178-.078.267-.119l-.008-.09-.009-.09c-.003-.03-.005-.06-.01-.089-.002-.03-.007-.06-.01-.09l-.009-.09a1.357 1.357 0 0 0-.012-.089l-.011-.09-.011-.09h.003Zm-36.227-.287.31.131.308.134.308.136c.103.046.204.093.306.14l.307.142.305.145c.102.048.203.098.305.148l.304.151a16.02 16.02 0 0 1 .356-1.285c.068-.213.14-.425.215-.636.075-.212.154-.422.234-.634a36.276 36.276 0 0 1 .515-1.265c.089-.211.18-.421.271-.633l.277-.635.247-.565.246-.57c.082-.191.162-.383.243-.577a32.682 32.682 0 0 0 .897-2.381c.066-.205.131-.41.194-.619l.017-.06.017-.06.016-.06.017-.059.017-.06.017-.06.017-.06c.006-.02.012-.04.016-.059a32.6 32.6 0 0 0-2.594 1.842 34.858 34.858 0 0 0-2.505 2.164 37.771 37.771 0 0 0-1.612 1.619 11.834 11.834 0 0 0 .012.917 15.147 15.147 0 0 0 .075.893 9.934 9.934 0 0 0 .139.869 10.08 10.08 0 0 0 .202.844l.001.003Zm24.979-7.679a7.803 7.803 0 0 0-.878.786c-.263.274-.496.56-.698.855a6.051 6.051 0 0 0-.514.907 5.146 5.146 0 0 0-.458 1.904 4.703 4.703 0 0 0 .328 1.907 5.102 5.102 0 0 0 .702 1.243 4.712 4.712 0 0 0 .26.319c.045.053.092.102.14.154.048.051.096.101.147.149a5.371 5.371 0 0 0 .312.286c.024-.202.047-.404.068-.606l.062-.606.057-.606.052-.607c.017-.202.034-.402.049-.603l.047-.602.045-.599.044-.594.034-.461.034-.456a63.008 63.008 0 0 1 .069-.895c.011-.148.024-.293.037-.439l.038-.434.04-.43.042-.424a.083.083 0 0 1-.007-.018.073.073 0 0 1-.007-.019.083.083 0 0 1-.007-.018c-.002-.006-.006-.013-.007-.019l-.007-.018a.073.073 0 0 1-.007-.019.254.254 0 0 1-.016-.037h-.001Zm-56.003 4.213a14.829 14.829 0 0 0 .519 1.02 18.247 18.247 0 0 0 .932 1.51 26.301 26.301 0 0 0 .716.99c.126.164.255.327.386.49a9.288 9.288 0 0 1-.525-1.234c-.152-.437-.28-.898-.385-1.377-.104-.48-.183-.979-.239-1.493a16.412 16.412 0 0 1-.091-1.578c-.006-.536.012-1.082.058-1.635.045-.552.114-1.106.209-1.661a18.373 18.373 0 0 1 .881-3.291c.2-.535.418-1.045.657-1.527.24-.482.496-.938.772-1.366.275-.428.57-.826.88-1.198.31-.371.639-.713.983-1.024a9.615 9.615 0 0 1 1.08-.847 8.807 8.807 0 0 1 2.423-1.134c.43-.125.874-.217 1.33-.276a8.625 8.625 0 0 1 2.284.004 8.71 8.71 0 0 1 2.064.551c.653.262 1.269.595 1.851.98.582.386 1.13.823 1.645 1.294.514.47.996.973 1.445 1.49.45.516.866 1.045 1.253 1.567.386.524.742 1.04 1.067 1.531.325.491.622.956.889 1.376.021.034.044.068.065.104.021.036.044.068.065.104l.066.104.067.104c.022.034.043.069.066.103l.066.104.067.104.066.105a66.227 66.227 0 0 0 2.868-4.035 57.025 57.025 0 0 0 1.638-2.653 43.275 43.275 0 0 0 1.359-2.528c.201-.407.387-.804.56-1.191a62.22 62.22 0 0 1-4.044-2.163c-.424-.249-.838-.5-1.242-.754A41.578 41.578 0 0 1 94.4 90.17c-.359-.26-.704-.522-1.037-.785a27.134 27.134 0 0 1-.958-.791 34.134 34.134 0 0 0-3.24.34c-.528.082-1.05.178-1.565.286a25.589 25.589 0 0 0-2.994.812 22.753 22.753 0 0 0-2.774 1.143c-.442.219-.871.45-1.29.698a17.63 17.63 0 0 0-2.22 1.557 19.818 19.818 0 0 0-2.025 1.92 20.189 20.189 0 0 0-1.763 2.22 19.503 19.503 0 0 0-1.437 2.462 17.997 17.997 0 0 0-1.044 2.639 15.807 15.807 0 0 0-.585 2.756 14.156 14.156 0 0 0-.061 2.811c.075.939.247 1.878.528 2.806h.003Zm28.415 2.484.115.039.116.038.116.04.116.04.116.04c.038.012.076.027.116.041l.116.041.115.041a8.198 8.198 0 0 0-.028-.153l-.027-.154c-.008-.051-.017-.102-.024-.155l-.022-.155-.021-.157c-.008-.052-.013-.103-.02-.156l-.017-.158c-.006-.053-.012-.105-.016-.158a11.439 11.439 0 0 1-.189.229 3.404 3.404 0 0 1-.095.115l-.093.116a5.89 5.89 0 0 0-.093.116l-.094.117a3.34 3.34 0 0 0-.091.117 4.663 4.663 0 0 0-.092.116h-.004Zm-7.192-1.3a19.896 19.896 0 0 1 1.276.048 18.426 18.426 0 0 1 1.307.143 22.32 22.32 0 0 1 2.003.374c.225.051.45.106.676.165a52.124 52.124 0 0 0-.71-1.38 57.037 57.037 0 0 0-.37-.68 89.545 89.545 0 0 0-.763-1.341c-.128-.22-.26-.441-.39-.66a125.084 125.084 0 0 0-.791-1.299 64.791 64.791 0 0 1-2.122 2.476c-.181.2-.365.398-.548.596a55.965 55.965 0 0 1-1.673 1.71l.09-.013.09-.013.091-.012.09-.012.09-.011.091-.01.09-.01.091-.009.17-.015.17-.013.172-.011c.056-.005.114-.006.172-.009l.174-.007c.058-.001.116-.004.174-.004.057 0 .115-.003.175-.003h.175Zm3.223-5.871a119.059 119.059 0 0 1 1.261 2.071 56.57 56.57 0 0 1 .82 1.42 51.704 51.704 0 0 1 .788 1.452c.129.245.255.491.379.739l.144-.178.146-.177.147-.175a148.63 148.63 0 0 1 .298-.348c.049-.059.1-.115.149-.174l.152-.172.152-.171.031-.034.031-.034.031-.034.032-.034c.009-.012.021-.023.031-.034l.031-.035.031-.034.031-.034c.031-.529.089-1.066.175-1.609.086-.544.196-1.093.335-1.648.138-.555.304-1.115.494-1.68.191-.565.409-1.133.653-1.705a28.39 28.39 0 0 1 1.776-3.453 34.71 34.71 0 0 1 2.395-3.464l-.455-.184c-.151-.06-.302-.124-.453-.186a36.968 36.968 0 0 1-.451-.19c-.15-.063-.3-.126-.448-.191l-.446-.194c-.149-.065-.297-.13-.444-.196l-.441-.198a83.296 83.296 0 0 1-.437-.2 27.73 27.73 0 0 1-.548 1.157 46.47 46.47 0 0 1-1.407 2.59 58.29 58.29 0 0 1-.845 1.403 64.684 64.684 0 0 1-1.933 2.935 73.114 73.114 0 0 1-2.205 3.001v-.002Zm38.579-2.177a17.56 17.56 0 0 1 1.398 1.324 16.466 16.466 0 0 1 2.746 3.917c.144.287.279.58.406.878.026.058.05.118.074.176l.072.178c.024.06.047.119.069.179l.068.181c.023.06.044.121.065.182l.062.182.061.184c.02.061.04.122.058.185.179-.234.345-.471.494-.71.15-.239.286-.483.404-.726a6.04 6.04 0 0 0 .301-.737c.082-.248.146-.495.188-.743a4.057 4.057 0 0 0-.015-1.488 4.013 4.013 0 0 0-.226-.736 4.458 4.458 0 0 0-.386-.724 3.525 3.525 0 0 0-1.161-1.088 4.364 4.364 0 0 0-.79-.359 5.7 5.7 0 0 0-.927-.235 7.838 7.838 0 0 0-.711-.089 8.776 8.776 0 0 0-.734-.029 11.771 11.771 0 0 0-1.518.1l.002-.002Zm-26.611-6.805c-.381.475-.744.952-1.09 1.429-.345.476-.672.954-.98 1.431a29.133 29.133 0 0 0-1.623 2.85c-.233.472-.446.942-.643 1.41-.195.468-.371.932-.528 1.394-.157.461-.296.919-.414 1.373a17.69 17.69 0 0 0-.298 1.348 35.124 35.124 0 0 1 1.66-1.52 36.456 36.456 0 0 1 2.571-2.023 31.496 31.496 0 0 1 2.654-1.707 24.644 24.644 0 0 0 .226-2.002c.017-.225.031-.449.044-.675.012-.225.021-.451.029-.676.007-.226.014-.45.017-.677a51.175 51.175 0 0 0 .004-1.359l-.204-.072-.205-.073a14.766 14.766 0 0 1-.205-.074l-.204-.074-.203-.074-.204-.075c-.067-.026-.135-.05-.203-.075l-.204-.077.003-.002Zm18.513 4.409.064.092.064.091c.021.029.042.061.062.091l.062.092a7.507 7.507 0 0 1 .123.185l.061.093a2.4 2.4 0 0 0 .06.092l.125.194c.041.065.082.129.121.194.04.066.081.131.12.197.04.065.079.131.117.196.039.066.078.131.116.198.038.065.077.132.113.198l.112.199.109.199.02-.237.019-.237.02-.234.018-.234.019-.233c.007-.078.011-.155.017-.232l.017-.231.015-.229a10.779 10.779 0 0 0-.192-.062l-.193-.061-.195-.059-.197-.057-.196-.054-.198-.052a14.47 14.47 0 0 0-.4-.099h-.003Zm3.028 1.002-.011.161-.013.161a310324723095.39 310324723095.39 0 0 1-.038.488c-.004.054-.008.109-.014.163l-.014.165-.014.165c.06-.027.123-.052.185-.078l.188-.078.19-.077c.064-.026.129-.05.194-.075a15.51 15.51 0 0 1 .795-.285c-.058-.033-.117-.064-.176-.095l-.178-.094-.18-.093-.181-.089a10.2 10.2 0 0 0-.182-.088c-.061-.029-.121-.059-.183-.086-.061-.028-.123-.057-.186-.084l-.185-.082.003.001Zm-18.418-4.31c0 .168 0 .335-.002.503-.001.168-.004.334-.007.502a42.07 42.07 0 0 1-.032 1.004c-.007.168-.017.335-.027.503a27.461 27.461 0 0 1-.127 1.501 26.4 26.4 0 0 1 1.601-.736 26.125 26.125 0 0 1 4.06-1.342c.273-.065.546-.125.818-.18a60.897 60.897 0 0 1-2.342-.58c-.262-.07-.524-.143-.787-.216-.263-.074-.526-.148-.789-.224a82.304 82.304 0 0 1-1.579-.48l-.79-.256.003.002Zm-25.52-18.043c-.513 0-1.013.017-1.5.052-.488.034-.961.087-1.422.157-.46.07-.907.156-1.34.26a13.786 13.786 0 0 0-2.44.834 11.464 11.464 0 0 0-2.11 1.248c-.325.241-.636.502-.931.778a12.187 12.187 0 0 0-1.46 1.643c-.439.592-.83 1.225-1.18 1.894a17.9 17.9 0 0 0-.926 2.107c-.27.734-.503 1.497-.704 2.284-.2.787-.368 1.596-.51 2.424a39.978 39.978 0 0 0-.346 2.528 55.372 55.372 0 0 0-.213 2.597c-.053.872-.086 1.75-.109 2.628a19.888 19.888 0 0 1 1.502-3.428 21.435 21.435 0 0 1 2.09-3.103 20.995 20.995 0 0 1 2.55-2.66c.456-.399.927-.774 1.408-1.124.482-.35.975-.675 1.477-.97a22.81 22.81 0 0 1 2.516-1.277 25.641 25.641 0 0 1 2.71-.99 28.581 28.581 0 0 1 2.874-.714c.49-.097.986-.181 1.488-.255.5-.074 1.006-.137 1.516-.19a15.837 15.837 0 0 1-.762-.864 12.766 12.766 0 0 1-.641-.861 11.493 11.493 0 0 1-.274-.428 8.227 8.227 0 0 1-.45-.851 6.982 6.982 0 0 1-.173-.421 11.95 11.95 0 0 1-.377-1.212 10.323 10.323 0 0 1-.172-.807 9.919 9.919 0 0 1-.106-.802 9.457 9.457 0 0 1-.03-.396l-.25-.019a15.8 15.8 0 0 0-.248-.016l-.247-.014a14.432 14.432 0 0 0-.246-.011l-.243-.009c-.08-.003-.161-.004-.242-.005l-.24-.005h-.237l-.002-.002Zm39.488 19.509.406.02c.135.006.269.01.402.014l.397.009.393.002c.13 0 .258 0 .387-.002.128-.002.255-.006.383-.009.127-.004.252-.008.377-.016.124-.005.248-.012.373-.02a73.059 73.059 0 0 0 .059-3.583 57.867 57.867 0 0 0-.114-3.21 47.474 47.474 0 0 0-.272-2.847c-.056-.444-.12-.875-.187-1.29a31.184 31.184 0 0 0-.221-1.202 11.602 11.602 0 0 0-.781-.156 17.811 17.811 0 0 0-.397-.06 9.359 9.359 0 0 0-.4-.047 12.614 12.614 0 0 0-1.217-.064c-.135 0-.274 0-.411.004a14.182 14.182 0 0 0-2.149.22 15.86 15.86 0 0 0-2.478.655c-.438.154-.887.33-1.348.535-.46.205-.931.436-1.411.696-.481.26-.971.552-1.471.875-.499.323-1.007.68-1.522 1.072a40.233 40.233 0 0 1 4.716 2.704 34.944 34.944 0 0 1 2.832 2.109 30.519 30.519 0 0 1 2.525 2.34c.392.409.77.827 1.131 1.254l-.002-.003Zm4.025-11.631c.065.364.126.742.184 1.132a43.856 43.856 0 0 1 .382 3.894 59.92 59.92 0 0 1 .094 3.033 71.363 71.363 0 0 1-.061 3.41l.174-.027.172-.029.171-.03c.057-.01.113-.021.17-.03.056-.01.111-.022.166-.034l.166-.034c.055-.011.11-.024.164-.037l.162-.038a5.067 5.067 0 0 0 1.748-.8 4.92 4.92 0 0 0 .912-.86 4.94 4.94 0 0 0 1.043-2.345 4.934 4.934 0 0 0-.072-1.962 4.985 4.985 0 0 0-.468-1.231 5.213 5.213 0 0 0-.788-1.104 11.574 11.574 0 0 0-1.454-1.317c-.174-.132-.352-.26-.532-.38a11.955 11.955 0 0 0-2.336-1.21h.003Zm-18.013 8.619a74.984 74.984 0 0 0 3.008.957 63.064 63.064 0 0 0 4.475 1.14 48.495 48.495 0 0 0 4.3.723c-.347-.359-.707-.71-1.079-1.053a29.738 29.738 0 0 0-2.367-1.972 33.881 33.881 0 0 0-2.613-1.784 39.663 39.663 0 0 0-4.298-2.302l-.188.163a16.14 16.14 0 0 1-.19.167l-.189.17a9.209 9.209 0 0 0-.189.174l-.191.177a24.403 24.403 0 0 0-.383.364l-.192.188.001.06.003.062.003.061.003.061.003.061.002.062.003.06c0 .02 0 .04.002.062l.011.299.011.299.012.3.01.3.009.3.009.302.008.301c.003.102.006.201.007.302l-.001-.004Zm-2.098-.754.075.028.075.029.075.027c.025.008.049.018.074.027.026.008.05.018.075.027.026.008.05.018.075.027.026.008.05.018.075.027l.075.027-.003-.108c0-.036-.003-.071-.003-.108 0-.036-.003-.072-.003-.109 0-.035-.002-.07-.004-.108 0-.035-.003-.07-.004-.108 0-.035-.003-.07-.004-.108 0-.035-.003-.071-.004-.108 0-.036-.003-.071-.005-.108-.024.025-.046.052-.07.078l-.071.078-.071.08-.07.08-.071.08-.071.08-.07.082-.071.08-.004.008Zm-5.454-2.297c.161.076.322.151.485.225.162.074.325.15.489.222l.491.22.496.218c.166.073.332.144.499.215l.503.212c.168.07.336.14.506.208.168.068.337.138.507.205l.247-.29c.082-.096.166-.191.248-.285.081-.094.165-.186.247-.279l.246-.273.245-.267a44.872 44.872 0 0 1 .491-.518l.244-.252-.007-.22-.007-.221-.007-.22-.006-.221-.005-.22c-.002-.075-.005-.147-.006-.221l-.004-.22-.004-.219v-.319a41.26 41.26 0 0 0-1.716-.598 60.233 60.233 0 0 0-.578-.184c-.193-.061-.387-.12-.58-.176-.194-.059-.389-.114-.584-.17a45.529 45.529 0 0 0-1.172-.316c-.04.164-.081.326-.125.49-.042.163-.087.327-.134.492l-.143.494c-.048.165-.1.33-.152.495a47.147 47.147 0 0 1-.335.995c-.06.166-.12.332-.182.499-.063.166-.126.333-.193.5h-.004Zm-9.154-5.344c.267.201.543.403.827.604a43.162 43.162 0 0 0 2.759 1.794 59.063 59.063 0 0 0 2.043 1.168 61.223 61.223 0 0 0 2.179 1.131l.176-.462a28.411 28.411 0 0 0 .325-.922c.051-.154.102-.306.15-.46.048-.152.096-.304.141-.457.046-.152.089-.304.133-.455.043-.15.083-.303.123-.454.04-.15.078-.302.114-.45a42.563 42.563 0 0 0-2.249-.44 44.953 44.953 0 0 0-2.252-.32c-.376-.043-.75-.082-1.125-.114a42.147 42.147 0 0 0-3.344-.162Zm16.546 3.41v.102l.009-.009.01-.008c.004-.003.005-.006.01-.009a.03.03 0 0 1 .01-.008l.009-.009.01-.008.01-.009a.089.089 0 0 1 .01-.008c-.003 0-.007-.003-.01-.005-.003 0-.007-.003-.01-.004-.003 0-.005-.003-.01-.004l-.009-.004c-.003 0-.006-.003-.01-.005-.003 0-.006-.003-.01-.004l-.01-.004c-.003 0-.007-.003-.01-.005h.001Zm0-1.71.18.072.178.072.178.074.178.074c.059.024.119.05.176.076l.177.075.177.077.176.077c.587-.471 1.165-.9 1.733-1.288a24.258 24.258 0 0 1 1.678-1.05c.55-.313 1.088-.589 1.615-.834a19.645 19.645 0 0 1 1.544-.638 18.43 18.43 0 0 1 1.464-.466 16.89 16.89 0 0 1 2.656-.496 15.209 15.209 0 0 1 2.266-.06c.121.006.241.014.361.023.12.008.239.02.359.031a16.011 16.011 0 0 1 .709.09c.117.018.234.037.352.058-.12-.45-.248-.875-.38-1.278a17.533 17.533 0 0 0-.42-1.138c-.146-.356-.297-.69-.452-1-.156-.312-.317-.6-.482-.867a8.861 8.861 0 0 0-.504-.735 6.587 6.587 0 0 0-.523-.606 5.1 5.1 0 0 0-.536-.48 4.238 4.238 0 0 0-.542-.357 7.933 7.933 0 0 0-.842-.394 9.413 9.413 0 0 0-4.096-.646 7.725 7.725 0 0 0-1.08.155 7.007 7.007 0 0 0-1.049.316 6.258 6.258 0 0 0-1.937 1.198 6.939 6.939 0 0 0-.827.89 8.63 8.63 0 0 0-.712 1.07c-.218.385-.415.8-.595 1.244-.178.444-.338.916-.476 1.417-.138.501-.257 1.03-.356 1.585-.099.555-.177 1.14-.235 1.749-.058.61-.096 1.246-.111 1.91h-.002Zm-16.601-3.269a39.33 39.33 0 0 1 2.324.067 41.259 41.259 0 0 1 3.517.346 47.252 47.252 0 0 1 3.517.632c.074-.419.138-.833.189-1.243.051-.41.09-.815.117-1.215a18.119 18.119 0 0 0 .017-2.332 15.259 15.259 0 0 0-.277-2.174 13.104 13.104 0 0 0-.25-1.019 10.997 10.997 0 0 0-.705-1.845 9.323 9.323 0 0 0-.958-1.562 8.623 8.623 0 0 0-1.913-1.847 9.716 9.716 0 0 0-1.587-.895 8.157 8.157 0 0 0-.987-.364 7.29 7.29 0 0 0-.985-.22 6.522 6.522 0 0 0-1.917-.017 5.99 5.99 0 0 0-2.596 1.015 6.331 6.331 0 0 0-1.454 1.404c-.21.28-.398.58-.56.891a6.92 6.92 0 0 0-.682 2.022 8.19 8.19 0 0 0-.072 2.244c.04.385.106.775.198 1.168.092.392.212.787.358 1.18.055.149.12.3.193.453.074.154.156.306.246.461.09.155.19.312.295.468.106.157.222.316.345.475a12.403 12.403 0 0 0 .828.966c.153.163.312.326.48.49.167.164.34.327.522.492l.223-.01.225-.008c.075-.003.15-.006.224-.007l.225-.006.225-.004c.075 0 .15-.003.226-.003l.226-.002h.226l-.003-.001Z"/><path d="M129.287 161.174a.81.81 0 0 1-.196-.027.695.695 0 0 1-.183-.079.743.743 0 0 1-.278-.294 3.494 3.494 0 0 1-.401-1.406 3.975 3.975 0 0 1 .012-.707 4.62 4.62 0 0 1 .128-.691 5.745 5.745 0 0 1 .522-1.285 6.417 6.417 0 0 1 .996-1.343c.085-.09.173-.178.26-.264.088-.085.178-.169.269-.251a15.041 15.041 0 0 1 .834-.705c.093-.075.187-.149.282-.223l.281-.219.187-.145.183-.144c.061-.048.122-.095.181-.144l.178-.143.176-.146c.057-.048.115-.096.172-.146a7.73 7.73 0 0 0 .168-.148c.055-.05.112-.101.165-.151a6.586 6.586 0 0 0 .817-.918c.097-.133.194-.276.283-.426.089-.151.172-.309.244-.474.072-.165.133-.336.178-.511a2.535 2.535 0 0 0 .054-1.1 2.374 2.374 0 0 0-.372-.909 2.952 2.952 0 0 0-.308-.383 3.351 3.351 0 0 0-.369-.333 4.107 4.107 0 0 0-1.311-.681 3.747 3.747 0 0 0-.452-.115 5.373 5.373 0 0 0-.551-.079 6.877 6.877 0 0 0-1.118-.011 8.983 8.983 0 0 0-.563.051 15.985 15.985 0 0 0-1.129.181c-.188.035-.376.075-.563.114-.186.039-.374.079-.559.121a.862.862 0 0 1-.15.017.74.74 0 0 1-.688-.447.711.711 0 0 1-.063-.296.763.763 0 0 1 .443-.693.736.736 0 0 1 .144-.047l.594-.128a23.182 23.182 0 0 1 1.235-.232 11.6 11.6 0 0 1 1.282-.141c.217-.011.434-.017.653-.014a7.61 7.61 0 0 1 1.316.131 5.742 5.742 0 0 1 2.51 1.174c.185.152.359.318.519.498a4.002 4.002 0 0 1 .763 1.23 3.749 3.749 0 0 1 .261 1.329c.003.202-.008.406-.037.609a4.2 4.2 0 0 1-.127.615 5.365 5.365 0 0 1-.518 1.224 6.826 6.826 0 0 1-.856 1.182 8.3 8.3 0 0 1-.734.731c-.062.056-.124.11-.186.164-.062.054-.126.108-.19.161l-.19.158-.191.153-.191.152-.191.15-.189.148-.268.21a61.358 61.358 0 0 0-.523.419c-.085.069-.17.141-.252.21-.083.071-.163.143-.244.215-.081.073-.158.147-.236.221a6.044 6.044 0 0 0-.441.464 4.974 4.974 0 0 0-.551.785 4.798 4.798 0 0 0-.215.438 3.724 3.724 0 0 0-.254.916c-.02.154-.027.308-.02.459.007.15.03.3.067.445.038.145.092.286.164.422a.75.75 0 0 1 .084.286.712.712 0 0 1-.028.286.703.703 0 0 1-.055.133.93.93 0 0 1-.079.121.85.85 0 0 1-.103.105.79.79 0 0 1-.126.084l-.042.021-.043.019-.044.015-.043.013-.044.01-.044.007-.044.005h-.044l-.008-.003ZM127.979 164.808a1.194 1.194 0 0 1-.277-.037 1.004 1.004 0 0 1-.55-.39.892.892 0 0 1-.124-.266.74.74 0 0 1 .16-.679.79.79 0 0 1 .323-.218l.045-.014.045-.011c.016-.003.03-.006.046-.007.015-.002.031-.005.046-.005l.047-.001h.047c.009-.012.021-.021.032-.031l.035-.03.037-.029.038-.025c.013-.009.027-.016.041-.023l.043-.022c.014-.007.029-.012.043-.018a.777.777 0 0 1 .341-.046.735.735 0 0 1 .575.387.739.739 0 0 1 .058.14.99.99 0 0 1-.066.736 1.072 1.072 0 0 1-.39.418 1.119 1.119 0 0 1-.235.111l-.052.017a.41.41 0 0 1-.053.014c-.016.004-.033.009-.052.011a5.442 5.442 0 0 1-.052.009c-.017.003-.034.004-.052.006l-.051.004h-.051l.003-.001ZM80.94 55.297h-.08a2.206 2.206 0 0 1-.543-.13 2.27 2.27 0 0 1-.495-.254 2.374 2.374 0 0 1-.225-.172 3.073 3.073 0 0 1-.209-.2 2.992 2.992 0 0 1-.362-.483 3.502 3.502 0 0 1-.404-1.063 3.428 3.428 0 0 1-.069-.763 3.23 3.23 0 0 1 .208-1.103c.073-.188.16-.37.257-.54a4.574 4.574 0 0 1 .702-.93c.135-.14.274-.272.42-.396a8.046 8.046 0 0 1 .908-.673 15.105 15.105 0 0 1 .918-.536l.056-.03.055-.03.055-.03.055-.03.055-.03.055-.03.055-.03.055-.03c.128-.066.252-.132.376-.199.125-.066.248-.132.368-.2s.24-.135.356-.205c.116-.07.23-.14.34-.213a5.906 5.906 0 0 0 .623-.468 4.05 4.05 0 0 0 .526-.55 3.08 3.08 0 0 0 .366-.599 3.373 3.373 0 0 0 .295-1.043 4.476 4.476 0 0 0-.13-1.676 5.149 5.149 0 0 0-.371-.984 5.617 5.617 0 0 0-.554-.894 5.366 5.366 0 0 0-.337-.398 4.628 4.628 0 0 0-.772-.667 6.187 6.187 0 0 0-.958-.537 6.943 6.943 0 0 0-1.01-.361 8.46 8.46 0 0 0-1.03-.214 9.75 9.75 0 0 0-1.028-.09 12.124 12.124 0 0 0-1.924.09c-.297.036-.58.081-.842.13-.263.048-.506.1-.725.152a.777.777 0 0 1-.295.01.733.733 0 0 1-.38-.19.778.778 0 0 1-.171-.234.818.818 0 0 1-.07-.294.749.749 0 0 1 .574-.75 15.957 15.957 0 0 1 1.99-.346c.357-.038.722-.065 1.093-.077.372-.011.749-.007 1.129.017s.763.067 1.146.134a9.32 9.32 0 0 1 1.143.272 8.41 8.41 0 0 1 1.119.432 7.69 7.69 0 0 1 1.074.616 6.308 6.308 0 0 1 1.45 1.38 7.118 7.118 0 0 1 .983 1.774c.079.213.148.43.206.65a6.289 6.289 0 0 1 .198 1.22 5.372 5.372 0 0 1-.037 1.073 5.098 5.098 0 0 1-.432 1.477 4.487 4.487 0 0 1-.532.862 5.496 5.496 0 0 1-1.04 1.016 8.082 8.082 0 0 1-.79.534c-.135.082-.272.162-.409.239l-.415.227c-.139.076-.277.148-.416.22l-.053.03-.054.028-.054.028-.054.029-.053.028-.054.029-.054.028-.053.028a10.432 10.432 0 0 0-.766.441c-.126.08-.25.163-.372.25a6.073 6.073 0 0 0-.352.27c-.112.094-.221.19-.323.293a3.742 3.742 0 0 0-.285.319 3.02 3.02 0 0 0-.24.347c-.07.12-.132.246-.183.377a1.82 1.82 0 0 0-.102.811 1.957 1.957 0 0 0 .158.61 1.61 1.61 0 0 0 .213.35c.022.027.048.056.073.083a1.203 1.203 0 0 0 .18.148.855.855 0 0 0 .224.1c.041.012.085.02.13.026.051.006.1.017.147.032a.686.686 0 0 1 .352.245.773.773 0 0 1 .13.691.764.764 0 0 1-.325.418.862.862 0 0 1-.12.06.813.813 0 0 1-.267.05l.003-.002ZM83.9 58.97H83.841l-.11-.009-.11-.009-.111-.008-.11-.009-.11-.008-.11-.009-.11-.008-.111-.009a.718.718 0 0 1-.506-.263.782.782 0 0 1-.171-.394.787.787 0 0 1 .078-.438.69.69 0 0 1 .294-.309.722.722 0 0 1 .43-.091l.11.008.11.009.11.008.11.009.11.009.11.008.11.009.11.008a.735.735 0 0 1 .59.379.795.795 0 0 1 .093.428.787.787 0 0 1-.075.273.696.696 0 0 1-.163.218.743.743 0 0 1-.504.197H83.9ZM109.721 71.476a3.526 3.526 0 0 1-.343-.019 2.115 2.115 0 0 1-.168-.024c-.055-.01-.112-.02-.165-.033a2.858 2.858 0 0 1-.478-.157 2.827 2.827 0 0 1-.885-.609 3.1 3.1 0 0 1-.286-.33 3.822 3.822 0 0 1-.242-.36 5.952 5.952 0 0 1-.205-.385 6.059 6.059 0 0 1-.174-.4 11.235 11.235 0 0 1-.285-.822l-.146-.034c-.048-.011-.096-.024-.144-.037l-.142-.038a4.23 4.23 0 0 1-.142-.04l-.141-.041-.14-.043a10.774 10.774 0 0 1-.275-.093 13.388 13.388 0 0 1-5.032 1.578c-.438.046-.877.067-1.316.067a11.54 11.54 0 0 1-2.607-.302c-.427-.1-.848-.226-1.262-.376-.2-.075-.39-.153-.57-.237a6.092 6.092 0 0 1-.508-.266 4.786 4.786 0 0 1-.446-.296 4.186 4.186 0 0 1-.385-.323 3.34 3.34 0 0 1-.573-.725 2.722 2.722 0 0 1-.27-2.04c.05-.19.118-.373.203-.55.085-.176.185-.346.298-.506.114-.161.24-.313.373-.457a4.997 4.997 0 0 1 .888-.75c.157-.105.315-.2.472-.283a8.027 8.027 0 0 1 .74-.346 10.87 10.87 0 0 1 .757-.279c.127-.042.255-.08.383-.12l.383-.109a37.628 37.628 0 0 1 .767-.2 13.495 13.495 0 0 1 3.21-4.937 12.643 12.643 0 0 1 2.86-2.097 2.58 2.58 0 0 1 .589-.523 3.108 3.108 0 0 1 .698-.34 3.426 3.426 0 0 1 1.119-.194c.123 0 .245.004.363.014a8.947 8.947 0 0 1 1.437-.206 7.608 7.608 0 0 1 2.023.146 5.974 5.974 0 0 1 1.215.4c.193.086.378.183.556.29.244.146.477.311.699.495a6.465 6.465 0 0 1 1.187 1.308c.172.25.333.516.479.796.147.28.28.576.398.884.119.309.224.629.314.963.09.333.165.679.225 1.034.059.356.104.723.132 1.1 0 .016.003.03.003.046l.003.045c0 .016.002.03.003.046l.003.045c0 .016.001.03.003.046l.002.045c0 .016.002.03.003.046 0 .016.002.03.003.046a6.89 6.89 0 0 1 .252 1.195 6.297 6.297 0 0 1 .033 1.178 5.391 5.391 0 0 1-.065.572 5.328 5.328 0 0 1-.296 1.084 4.996 4.996 0 0 1-.232.504l-.032.06-.033.058-.034.058a.93.93 0 0 1-.034.057c-.011.018-.022.038-.035.057-.011.018-.024.037-.035.057a1.783 1.783 0 0 1-.037.055l-.037.056c-.028.098-.059.197-.089.296a9.648 9.648 0 0 1-.096.293 7.512 7.512 0 0 1-.102.291c-.035.097-.07.194-.107.29l-.113.288-.12.286c-.041.095-.084.19-.126.283a9.64 9.64 0 0 1-.275.57c-.053.1-.108.204-.167.31a8.556 8.556 0 0 1-.411.658 5.874 5.874 0 0 1-.526.65 4.443 4.443 0 0 1-.9.743 3.496 3.496 0 0 1-.51.26 3.95 3.95 0 0 1-.53.176 3.474 3.474 0 0 1-.804.1v.002Zm-1.569-2.884c.026.07.056.138.084.203a3.913 3.913 0 0 0 .192.375 2.75 2.75 0 0 0 .228.318 1.55 1.55 0 0 0 .275.252 1.393 1.393 0 0 0 .388.187 1.364 1.364 0 0 0 .486.05c.082-.005.165-.016.247-.032a2.177 2.177 0 0 0 .473-.15 2.176 2.176 0 0 0 .416-.236 3.268 3.268 0 0 0 .672-.657 4.613 4.613 0 0 0 .312-.447 8.344 8.344 0 0 0 .307-.54 7.206 7.206 0 0 1-.976.36 8.581 8.581 0 0 1-2.067.331 8.917 8.917 0 0 1-1.037-.011v-.003Zm-10.998-5.417-.242.07c-.079.024-.16.048-.237.074-.078.026-.157.051-.235.078a10.71 10.71 0 0 0-.459.171c-.075.03-.15.063-.225.095a10.037 10.037 0 0 0-.438.212 3.893 3.893 0 0 0-.611.404c-.096.079-.19.161-.276.248a2.86 2.86 0 0 0-.24.272 2.2 2.2 0 0 0-.194.29c-.055.1-.1.2-.134.303a1.336 1.336 0 0 0-.065.31 1.11 1.11 0 0 0 .117.608c.046.092.103.18.168.264.067.084.14.163.222.237a3.091 3.091 0 0 0 .539.387 4.625 4.625 0 0 0 .56.277c.09.037.173.07.25.098a9.532 9.532 0 0 0 1.967.492c.335.049.672.079 1.01.093a10.995 10.995 0 0 0 3.035-.295 11.96 11.96 0 0 0 1.947-.643 11.09 11.09 0 0 1-.293-.176 6.742 6.742 0 0 1-.284-.186 8.139 8.139 0 0 1-.797-.61 9.287 9.287 0 0 1-.705-.687 7.627 7.627 0 0 1-1.037-1.468 8.079 8.079 0 0 1-.372-.798 6.102 6.102 0 0 1-.147-.411 8.781 8.781 0 0 1-.121-.416l-.129.039a3.52 3.52 0 0 1-.13.037l-.13.037-.13.035-.13.034-.129.034a4.245 4.245 0 0 1-.128.033l-.129.033a11.307 11.307 0 0 0-.4 1.868 10.57 10.57 0 0 0-.063 1.905.906.906 0 0 1-.006.152.727.727 0 0 1-.18.391.762.762 0 0 1-.364.228.712.712 0 0 1-.434-.02.84.84 0 0 1-.247-.145.752.752 0 0 1-.257-.512 11.212 11.212 0 0 1-.008-1.302 10.968 10.968 0 0 1 .072-.86 14.468 14.468 0 0 1 .13-.851c.026-.141.055-.282.087-.422l.002-.007Zm10.488 3.858c.25.035.507.06.765.072a7.988 7.988 0 0 0 1.566-.077 6.537 6.537 0 0 0 1.489-.405c.233-.097.459-.21.671-.338.212-.127.413-.273.598-.433.185-.161.354-.34.506-.535a14.21 14.21 0 0 0 .319-1.507 12.36 12.36 0 0 0 .117-1.022 14.73 14.73 0 0 0 .04-1.028c0-.172-.003-.345-.01-.517a6.421 6.421 0 0 0-.288-.701c-.029-.059-.057-.116-.087-.172a5.27 5.27 0 0 0-.296-.508 8.329 8.329 0 0 0-.851-1.096 10.443 10.443 0 0 0-.486-.5c-.085-.08-.168-.16-.254-.238-.086-.079-.174-.155-.262-.232.01.034.019.07.027.105l.026.105a3.958 3.958 0 0 1 .043.215c.008.036.013.073.019.108l.017.11.014.11.013.11a5.903 5.903 0 0 1 .015 1.01 6.75 6.75 0 0 1-.151 1.046 8.618 8.618 0 0 1-.538 1.632 12.011 12.011 0 0 1-.541 1.082 11.017 11.017 0 0 1-.997 1.458 10.727 10.727 0 0 1-.782.88 13.413 13.413 0 0 1-.866.8v.022c.007.018.014.037.019.055l.02.056.02.055.02.056c.007.018.012.037.02.056l.018.057.018.057.019.057.01-.005Zm-6.375-5.096a5.563 5.563 0 0 0 .347 1.04 6.247 6.247 0 0 0 .774 1.28 6.49 6.49 0 0 0 1.1 1.084 7.476 7.476 0 0 0 1.753 1.024c.016-.01.033-.02.048-.031.016-.01.033-.02.048-.031l.048-.032.048-.031.048-.031c.016-.01.031-.022.048-.032l.048-.03c.017-.01.031-.022.047-.034a10.86 10.86 0 0 0-.355-.596 21.576 21.576 0 0 0-.125-.197l-.13-.198-.132-.2-.134-.2-.136-.202-.272-.406-.272-.41a17.118 17.118 0 0 1-.513-.849c-.08-.145-.158-.291-.233-.44a7.938 7.938 0 0 1-.392-.927 6.65 6.65 0 0 1-.15-.49c-.055.044-.11.089-.167.133a6.562 6.562 0 0 1-.732.486 5.868 5.868 0 0 1-.404.218 6.16 6.16 0 0 1-.21.102Zm2.811-2.458v.14c0 .046.003.092.006.139l.01.14c.004.046.008.093.015.139l.02.139c.007.047.016.093.024.14l.028.139c.01.047.022.092.034.138a5.5 5.5 0 0 0 .277.798 7.72 7.72 0 0 0 .385.768 15.728 15.728 0 0 0 .462.756c.081.125.165.252.25.378.084.127.171.254.257.382l.123.183.123.184.123.185.122.186.122.188.12.19.117.193.115.193a11.131 11.131 0 0 0 .665-.657 9.604 9.604 0 0 0 .604-.713 9.898 9.898 0 0 0 .996-1.58 8.69 8.69 0 0 0 .546-1.356 6.032 6.032 0 0 0 .242-1.27 4.984 4.984 0 0 0-.008-.794 3.732 3.732 0 0 0-.532-1.575 3.021 3.021 0 0 0-.493-.603 2.424 2.424 0 0 0-.609-.423 2.381 2.381 0 0 0-.826-.22 2.809 2.809 0 0 0-.878.07 3.014 3.014 0 0 0-1.555.922l-.051.06-.05.06c-.017.02-.032.042-.048.063l-.046.064a1.25 1.25 0 0 0-.045.064c-.016.021-.03.044-.044.066l-.043.067-.041.068v.061l-.001.061c0 .02-.001.041-.003.061l-.003.061c0 .02-.003.042-.004.062a.637.637 0 0 1-.006.06l-.005.063-.007.063a4.404 4.404 0 0 1-.17.768 3.457 3.457 0 0 1-.141.37 3.965 3.965 0 0 1-.178.359h.001Zm-4.442 1.268-.017.032c-.005.012-.011.022-.017.033l-.017.033c-.005.011-.011.021-.015.032-.006.012-.012.022-.016.033-.004.012-.011.022-.015.033l-.016.033-.015.032.017-.005a.081.081 0 0 0 .016-.006c.006-.003.012-.003.017-.006.006-.002.012-.002.017-.005l.017-.006s.012-.003.017-.006c.006-.003.012-.003.017-.005a.076.076 0 0 0 .017-.006v-.216h-.007Zm3.456-3.596a4.387 4.387 0 0 0-.869.724 4.214 4.214 0 0 0-.814 1.305c-.046.121-.087.245-.123.371l-.024.093-.022.092-.02.093-.018.094a1.534 1.534 0 0 0-.016.094c-.006.031-.01.062-.014.095-.004.031-.009.064-.011.095-.005.032-.007.064-.01.096.072-.043.142-.086.212-.131.069-.046.138-.091.206-.14a4.978 4.978 0 0 0 .74-.641c.054-.059.106-.12.157-.181.051-.061.098-.124.143-.188a6.834 6.834 0 0 1 .061-.49c.014-.08.028-.16.046-.24.019-.08.036-.158.057-.236a4.607 4.607 0 0 1 .142-.462 4.573 4.573 0 0 1 .183-.444l-.006.001Zm6.612-2.318.368.25.371.26a31.03 31.03 0 0 1 .749.545 22.337 22.337 0 0 1 .742.589 17.121 17.121 0 0 1 .718.639 5.98 5.98 0 0 0-.51-.75 4.812 4.812 0 0 0-.653-.66 4.12 4.12 0 0 0-.524-.369 3.088 3.088 0 0 0-.293-.16c-.051-.023-.1-.048-.152-.07-.051-.023-.104-.044-.157-.066a3.27 3.27 0 0 0-.16-.06 9.616 9.616 0 0 0-.162-.054 7.494 7.494 0 0 0-.337-.09v-.004ZM63.964 169.378h-.11c-.036 0-.073 0-.108-.003-.037 0-.073-.003-.109-.005l-.108-.005a3.97 3.97 0 0 1-.327-.029l-.109-.012a7.092 7.092 0 0 1-2.156-.639 7.913 7.913 0 0 1-1.321-.793 8.464 8.464 0 0 1-2.543-3.029 8.313 8.313 0 0 1-.566-1.455 7.679 7.679 0 0 1-.294-2.261 6.96 6.96 0 0 1 .057-.749 8.523 8.523 0 0 1 .395-1.653 9.393 9.393 0 0 1 .688-1.508 10.898 10.898 0 0 1 .934-1.377 13.39 13.39 0 0 1 1.131-1.262 9.689 9.689 0 0 1 .201-.312c.035-.051.07-.103.106-.152a5.15 5.15 0 0 1 .11-.151l.113-.15a7.13 7.13 0 0 1 .117-.146l.12-.145a10.189 10.189 0 0 1 1.47-1.403c.119-.094.239-.185.36-.275a11.648 11.648 0 0 1 .742-.503c.126-.08.251-.155.379-.231l.043-.114.046-.112.045-.112.047-.113.048-.111c.015-.037.032-.074.049-.111l.05-.111.053-.109.041-.076a.831.831 0 0 1 .05-.07c.018-.021.036-.042.056-.062a.584.584 0 0 1 .064-.056c.022-.017.045-.032.069-.048.024-.014.048-.028.075-.04.025-.011.052-.023.079-.031a.837.837 0 0 1 .167-.036c.028-.003.056-.004.084-.003.029 0 .057.003.085.008a.724.724 0 0 1 .38.169c.012.01.023.018.033.028l.032.029c.01.01.023.018.033.028l.032.029.033.028.032.029.033.028.032.029.093-.042.094-.04.093-.039.093-.039.092-.038.092-.039.092-.037.092-.037a7.033 7.033 0 0 1 1.007-.848 6.035 6.035 0 0 1 1.116-.607 5.227 5.227 0 0 1 1.185-.339 4.788 4.788 0 0 1 1.218-.042.677.677 0 0 1 .25.069.833.833 0 0 1 .205.145.708.708 0 0 1 .144.205.748.748 0 0 1 .071.246l.141.013a6.847 6.847 0 0 1 .282.037c.048.007.096.016.142.024l.142.029a3.497 3.497 0 0 1 .28.07c.046.012.093.027.14.041a4.048 4.048 0 0 1 1.139.572 4.256 4.256 0 0 1 .649.57 4.26 4.26 0 0 1 .52.685 3.93 3.93 0 0 1 .33.691 3.224 3.224 0 0 1 .186.958 2.971 2.971 0 0 1-.043.627 2.877 2.877 0 0 1-.178.603.728.728 0 0 1-.178.255.907.907 0 0 1-.079.066.84.84 0 0 1-.283.122.895.895 0 0 1-.104.014 2.635 2.635 0 0 1-.972-.132 2.828 2.828 0 0 1-.428-.184 3.36 3.36 0 0 1-.394-.243 4.886 4.886 0 0 1-.366-.287 6.903 6.903 0 0 1-.342-.321c-.11-.111-.218-.223-.322-.337-.105-.114-.207-.229-.307-.341a58.46 58.46 0 0 1-.188-.211l-.186-.205a12.227 12.227 0 0 0-.187-.196 6.05 6.05 0 0 0-.377-.354 2.801 2.801 0 0 0-.595-.392 1.834 1.834 0 0 0-.33-.115 2.189 2.189 0 0 0-.699-.055 3.108 3.108 0 0 0-.736.141 5.576 5.576 0 0 0-.756.29 8.542 8.542 0 0 0-.378.186.028.028 0 0 0-.007.01c-.003.003-.006.006-.007.01-.003.003-.006.006-.007.01a.028.028 0 0 0-.007.01l-.008.01-.007.01-.007.01-.007.01a42.648 42.648 0 0 1 1.019.945l.25.243c.083.081.165.164.247.247a17.65 17.65 0 0 1 .483.506.835.835 0 0 1 .17-.138.763.763 0 0 1 .096-.049c.033-.014.068-.024.102-.034a.978.978 0 0 1 .106-.018.562.562 0 0 1 .109-.003.8.8 0 0 1 .216.042c.04.015.078.032.113.053.035.02.069.044.102.068a.839.839 0 0 1 .16.181.759.759 0 0 1 .116.468l-.01.11-.01.109-.01.11-.01.109-.009.11-.01.109-.01.11-.01.11a.58.58 0 0 1 .033.044l.032.044c.012.014.023.03.033.044l.032.044c.012.014.022.03.033.046l.032.045.033.046.032.045a13.576 13.576 0 0 1 1.07 1.786c.15.303.284.607.404.912.12.304.225.612.315.917a9.85 9.85 0 0 1 .355 1.83 8.406 8.406 0 0 1-.023 1.784l-.007.053-.007.053-.007.052-.009.053a2.31 2.31 0 0 0-.017.105l-.008.053a.874.874 0 0 1-.01.053 3.706 3.706 0 0 1-.1.828 3.24 3.24 0 0 1-.578 1.198l-.006.007-.005.007a.021.021 0 0 1-.006.007.02.02 0 0 1-.006.007l-.005.007a.021.021 0 0 1-.006.007.021.021 0 0 1-.006.007l-.005.008a7.13 7.13 0 0 1-.212.381 8.683 8.683 0 0 1-.763 1.08 8.288 8.288 0 0 1-1.296 1.253c-.18.143-.367.276-.556.401a8.106 8.106 0 0 1-1.182.652 8.492 8.492 0 0 1-.616.249c-.207.074-.416.14-.629.195a8.87 8.87 0 0 1-.635.141 7.213 7.213 0 0 1-1.28.114v-.007Zm-5.742-10.526a5.878 5.878 0 0 0-.23.636 5.2 5.2 0 0 0-.064.216l-.057.219-.05.222a5.427 5.427 0 0 0-.075.452 5.813 5.813 0 0 0 .054 1.817 6.584 6.584 0 0 0 .607 1.787 7.04 7.04 0 0 0 .694 1.106 7.18 7.18 0 0 0 .883.96 6.694 6.694 0 0 0 1.56 1.052 6.068 6.068 0 0 0 1.144.41 5.41 5.41 0 0 0 1.79.129 6.22 6.22 0 0 0 1.205-.233 6.589 6.589 0 0 0 1.17-.476 6.931 6.931 0 0 0 1.153-.751l.058-.047.058-.047c.018-.015.038-.031.056-.048l.057-.048.055-.049.055-.05.055-.049H68.328c-.008 0-.017 0-.024-.002l-.024-.001c-.008 0-.017 0-.024-.002l-.024-.001c-.008 0-.017 0-.024-.003a.57.57 0 0 1-.103.041l-.054.015a1.044 1.044 0 0 1-.11.015c-.018 0-.037.002-.057 0-.018 0-.038 0-.056-.003a.541.541 0 0 1-.057-.007l-.635-.106a81.587 81.587 0 0 1-.64-.113 25.376 25.376 0 0 1-1.92-.424 14.581 14.581 0 0 1-1.264-.404 11.39 11.39 0 0 1-.62-.253 9.395 9.395 0 0 1-1.338-.724 8.658 8.658 0 0 1-1.13-.888 6.75 6.75 0 0 1-.48-.498 7.424 7.424 0 0 1-.42-.529 6.629 6.629 0 0 1-.355-.56 5.834 5.834 0 0 1-.388-.841 5.362 5.362 0 0 1-.163-.527 8.743 8.743 0 0 1-.063-.271 9.34 9.34 0 0 1-.051-.273 4.698 4.698 0 0 1-.038-.277 6.232 6.232 0 0 1-.04-.564l-.004-.008Zm10.921.624-.055.635-.055.634-.055.635-.055.635-.055.634-.055.635-.055.634-.055.635c.045-.003.091-.006.14-.012a1.954 1.954 0 0 0 .61-.169 1.444 1.444 0 0 0 .3-.188c.047-.038.094-.079.138-.126l.079-.168c.025-.057.05-.113.073-.169a4.334 4.334 0 0 0 .13-.343c.02-.059.04-.116.057-.174l.052-.175c.017-.058.031-.117.047-.176.014-.059.028-.118.04-.177a3.526 3.526 0 0 0-.089-.663 5.059 5.059 0 0 0-.227-.745 8.285 8.285 0 0 0-.369-.828 13.041 13.041 0 0 0-.51-.908c0-.003-.002-.004-.004-.007 0-.003-.003-.005-.004-.007l-.004-.008a.037.037 0 0 1-.005-.007l-.004-.007-.004-.007-.004-.007-.004-.007.002.001Zm-3.552 2.778c.026.064.053.126.08.189.03.062.057.124.087.185.03.061.06.121.093.179a3.46 3.46 0 0 0 .208.344 3.256 3.256 0 0 0 .237.322 4.855 4.855 0 0 0 .218.242c.03.03.06.058.092.087l.096.082a2.208 2.208 0 0 0 .205.152c.035.025.072.047.107.07.037.023.074.044.112.066l.114.061.08-.934.081-.933.08-.933.081-.934.08-.933.081-.933.08-.934.081-.933a6.063 6.063 0 0 1-.172-.911 4.312 4.312 0 0 1 .004-.927 21.417 21.417 0 0 0-.513-.572 35.327 35.327 0 0 0-.81-.824 29.468 29.468 0 0 0-.56-.531c-.095-.087-.19-.175-.285-.26a7.332 7.332 0 0 0-.276.75c-.08.254-.144.513-.2.775a9.868 9.868 0 0 0-.132.794c-.034.266-.06.535-.076.804-.017.269-.026.538-.029.805-.002.268.002.535.01.8a31.144 31.144 0 0 0 .099 1.552l.007.078.007.079.007.078.007.078.008.078.008.079.008.076.009.077a9.021 9.021 0 0 0 .205.377 6.816 6.816 0 0 0 .34.547c.038.059.08.118.12.177.041.059.084.117.126.175.043.059.086.116.13.173a.705.705 0 0 1 .157.408.701.701 0 0 1-.004.144.705.705 0 0 1-.09.273.778.778 0 0 1-.191.226l-.024.019-.025.017c-.008.005-.016.011-.025.015-.008.006-.017.01-.025.015a.304.304 0 0 0-.026.014l-.027.013-.026.011-.027.01-.002-.004Zm-4.993-6.717a6.901 6.901 0 0 0-.722 1.748 5.829 5.829 0 0 0-.124.625 5.262 5.262 0 0 0-.026 1.269 4.386 4.386 0 0 0 .83 2.146c.104.142.216.281.337.416.122.136.25.266.388.395a6.694 6.694 0 0 0 .917.708 7.867 7.867 0 0 0 1.277.667c.062.026.124.052.186.076l.188.072c.064.023.126.047.19.069l.19.065.192.063.194.059.195.057a6.226 6.226 0 0 1-.492-.897 7.973 7.973 0 0 1-.49-1.462 11.86 11.86 0 0 1-.2-1.023c-.028-.172-.051-.345-.073-.518a11.256 11.256 0 0 1-.79-2.225 11.184 11.184 0 0 1-.16-.772 12.106 12.106 0 0 1-.165-2.357 12.1 12.1 0 0 1 .05-.786 13.38 13.38 0 0 0-.249.19c-.082.064-.165.128-.245.194l-.244.196a19.351 19.351 0 0 0-.473.401l-.23.205-.226.208-.222.211h-.003Zm10.355-5.286a6.52 6.52 0 0 1 .264.247l.128.127.123.128.12.13c.04.042.079.086.117.129l.116.128.113.127.199.223a8.408 8.408 0 0 0 .37.394 6.452 6.452 0 0 0 .342.316 2.094 2.094 0 0 0 .489.316 2.454 2.454 0 0 0-.017-.205l-.017-.098a1.51 1.51 0 0 0-.05-.184l-.03-.085c-.009-.028-.02-.056-.03-.081l-.033-.076a2.674 2.674 0 0 0-.658-.865 2.82 2.82 0 0 0-.688-.444 2.377 2.377 0 0 0-.249-.093l-.075-.023-.075-.02-.075-.019a3.032 3.032 0 0 1-.076-.017c-.025-.005-.05-.011-.076-.015l-.076-.015-.077-.012c-.025-.005-.05-.007-.076-.012l-.003-.001ZM137.554 84.534h-.044a.447.447 0 0 1-.088-.011l-.043-.01c-.015-.004-.03-.007-.044-.013a.74.74 0 0 1-.044-.015l-.042-.019c-.015-.007-.029-.013-.043-.021a.795.795 0 0 1-.229-.188.776.776 0 0 1-.162-.394.74.74 0 0 1 .085-.431l1.161-2.201 1.161-2.201 1.162-2.201 1.161-2.202 1.162-2.2 1.161-2.202 1.161-2.2 1.16-2.202a.78.78 0 0 1 .281-.296.818.818 0 0 1 .191-.078.83.83 0 0 1 .218-.023.687.687 0 0 1 .207.04.86.86 0 0 1 .186.093.682.682 0 0 1 .151.14.745.745 0 0 1 .06.086c.019.03.034.062.049.095l.538 1.27.538 1.271.538 1.27.539 1.271.538 1.27.538 1.271.539 1.271.538 1.27 1.458-2.038 1.458-2.04 1.458-2.038 1.458-2.039 1.458-2.039 1.459-2.039 1.458-2.039 1.458-2.038a.8.8 0 0 1 .22-.203.692.692 0 0 1 .181-.08c.031-.01.065-.016.097-.022a.813.813 0 0 1 .396.053.653.653 0 0 1 .171.102.745.745 0 0 1 .235.322l.472 1.249.471 1.25.472 1.248.472 1.25.472 1.249.472 1.249.472 1.25.472 1.249a52.307 52.307 0 0 1 2.203-1.76 53.242 53.242 0 0 1 7.129-4.554 54.33 54.33 0 0 1 5.107-2.39 51.285 51.285 0 0 1 5.321-1.83.717.717 0 0 1 .299-.02.758.758 0 0 1 .269.089.69.69 0 0 1 .294.31.731.731 0 0 1 .082.29c.004.05.003.1-.004.148a.931.931 0 0 1-.031.141.825.825 0 0 1-.139.25.698.698 0 0 1-.226.183.733.733 0 0 1-.139.055 51.589 51.589 0 0 0-5.413 1.877 52.26 52.26 0 0 0-14.584 9.04.802.802 0 0 1-.15.101.885.885 0 0 1-.254.077.619.619 0 0 1-.178 0 .805.805 0 0 1-.334-.127.644.644 0 0 1-.131-.118.666.666 0 0 1-.14-.23l-.456-1.211-.457-1.21-.456-1.212-.456-1.21-.457-1.211-.456-1.211-.456-1.21-.457-1.212-1.454 2.032-1.453 2.032-1.454 2.032-1.454 2.031-1.454 2.032-1.454 2.032-1.454 2.032-1.454 2.031a.804.804 0 0 1-.135.144.619.619 0 0 1-.166.102.948.948 0 0 1-.091.035.58.58 0 0 1-.095.021.572.572 0 0 1-.099.009c-.032 0-.066 0-.1-.006a1.086 1.086 0 0 1-.099-.017.599.599 0 0 1-.181-.073c-.028-.015-.055-.034-.082-.052a.77.77 0 0 1-.24-.308l-.527-1.243-.527-1.244-.527-1.243-.527-1.244-.527-1.243-.527-1.244-.527-1.243-.527-1.244-1.07 2.028-1.069 2.027-1.07 2.028-1.069 2.027-1.07 2.028-1.07 2.027-1.069 2.028-1.07 2.027a.725.725 0 0 1-.367.34.8.8 0 0 1-.191.053.771.771 0 0 1-.099.007l-.005.008ZM72.917 79.14a15.135 15.135 0 0 1-1.017-.034 11.921 11.921 0 0 1-1.009-.117 9.55 9.55 0 0 1-.992-.22 8.407 8.407 0 0 1-.487-.153 6.887 6.887 0 0 1-.776-.33 6.609 6.609 0 0 1-.588-.338 5.802 5.802 0 0 1-.835-.649 5.456 5.456 0 0 1-.5-.518l-.075.022-.076.02c-.025.007-.05.013-.076.018l-.077.019-.076.017-.078.016a1.29 1.29 0 0 1-.077.014l-.078.013c-.33.055-.665.08-1 .08a6.757 6.757 0 0 1-1.998-.323 7.454 7.454 0 0 1-2.697-1.55 7.543 7.543 0 0 1-1.377-1.633l-.072-.119-.07-.12-.068-.12-.066-.122-.064-.124a5.387 5.387 0 0 1-.062-.125c-.02-.043-.041-.084-.06-.127-.02-.043-.04-.085-.058-.128a9.468 9.468 0 0 1-.915.075 7.286 7.286 0 0 1-1.874-.196 6.547 6.547 0 0 1-.94-.31 6.277 6.277 0 0 1-2.49-1.877 7.32 7.32 0 0 1-.836-1.303 8.35 8.35 0 0 1-.57-1.467 9.44 9.44 0 0 1-.306-1.57 10.283 10.283 0 0 1 .155-3.22c.11-.524.261-1.038.455-1.529.19-.486.411-.955.658-1.408.246-.453.517-.891.81-1.314.292-.422.603-.83.93-1.223.326-.394.668-.774 1.02-1.141a27.18 27.18 0 0 1 1.08-1.065c.365-.342.735-.672 1.107-.993.37-.32.74-.629 1.105-.929.364-.3.723-.59 1.07-.87a.72.72 0 0 1 .265-.137.823.823 0 0 1 .284-.024.768.768 0 0 1 .394.168.77.77 0 0 1 .242.371.81.81 0 0 1 .024.286.777.777 0 0 1-.167.397.763.763 0 0 1-.107.107c-.35.281-.703.567-1.059.859-.356.292-.713.59-1.068.896-.354.306-.706.62-1.052.94-.346.321-.684.651-1.012.991-.328.34-.644.69-.945 1.05-.301.36-.588.733-.855 1.118-.267.385-.514.782-.739 1.193-.223.411-.424.835-.596 1.275-.157.4-.281.82-.373 1.25a8.627 8.627 0 0 0 .09 3.961c.113.423.26.831.444 1.215.184.385.401.747.655 1.076.255.33.546.627.872.884a4.603 4.603 0 0 0 1.419.764 5.314 5.314 0 0 0 1.67.27c.111 0 .223 0 .333-.006.112-.004.222-.012.332-.022a9.796 9.796 0 0 1-.275-2.664 10.344 10.344 0 0 1 .133-1.376 10.732 10.732 0 0 1 .532-2.014 8.764 8.764 0 0 1 .538-1.171 7.291 7.291 0 0 1 .667-1 5.731 5.731 0 0 1 .788-.814c.142-.119.288-.23.437-.332a4.831 4.831 0 0 1 1.235-.603c.215-.069.433-.12.65-.157a4.417 4.417 0 0 1 1.298-.02 3.769 3.769 0 0 1 1.738.703c.21.158.396.334.558.526.163.191.304.398.423.614.119.216.216.442.294.676.078.233.135.473.174.717a5.234 5.234 0 0 1-.119 2.165c-.06.226-.137.445-.227.65a6.131 6.131 0 0 1-.569 1.025 6.795 6.795 0 0 1-.365.486 8.057 8.057 0 0 1-.905.931 11.117 11.117 0 0 1-1.148.888c-.214.145-.437.29-.672.434-.098.06-.202.122-.31.185l-.34.192c-.12.064-.242.13-.37.195a12.737 12.737 0 0 1-.81.382 13.006 13.006 0 0 1-1.37.504c.01.023.022.044.033.067l.034.067.035.065.035.066.037.064.037.064.038.064c.013.021.025.043.038.062a5.983 5.983 0 0 0 1.094 1.304 6.024 6.024 0 0 0 2.129 1.238c.256.084.516.148.779.192.262.044.524.067.786.07.262 0 .523-.02.78-.062a5.215 5.215 0 0 1-.183-.495 4.137 4.137 0 0 1-.19-1.336c.002-.094.007-.188.014-.282a3.61 3.61 0 0 1 .4-1.339 4.023 4.023 0 0 1 .889-1.138 3.958 3.958 0 0 1 1.193-.741 3.48 3.48 0 0 1 .784-.206 3.137 3.137 0 0 1 .774-.01c.127.015.251.038.376.07a2.7 2.7 0 0 1 .363.119c.118.048.234.105.347.17a.705.705 0 0 1 .258.245.85.85 0 0 1 .102.248c.006.03.01.06.013.09.024.261.027.523.009.784a5.283 5.283 0 0 1-.34 1.52 5.933 5.933 0 0 1-.752 1.383 6.095 6.095 0 0 1-1.753 1.62c.05.05.102.096.155.143a5.017 5.017 0 0 0 .328.262 4.56 4.56 0 0 0 .52.333c.06.033.12.064.179.093.06.03.12.056.18.084.194.085.395.159.598.223.204.064.412.118.62.163a8.698 8.698 0 0 0 1.292.177c.22.016.44.024.661.027a17.26 17.26 0 0 0 1.336-.033c.223-.013.443-.028.663-.045a.71.71 0 0 1 .157.004.69.69 0 0 1 .277.092.748.748 0 0 1 .29.308.87.87 0 0 1 .052.136.864.864 0 0 1 .026.15.685.685 0 0 1-.005.152.69.69 0 0 1-.091.276.689.689 0 0 1-.305.296.656.656 0 0 1-.136.054.833.833 0 0 1-.149.027l-.234.017-.235.016c-.079.006-.156.01-.236.014l-.237.013-.237.01-.238.007c-.079.001-.158.004-.237.004l-.239.002Zm-3.724-7.77c-.037 0-.074 0-.11.004-.037.004-.074.005-.112.01-.037.007-.075.012-.112.02a1.713 1.713 0 0 0-.342.102l-.114.048a2.552 2.552 0 0 0-1.168 1.097 2.162 2.162 0 0 0-.207.528 1.8 1.8 0 0 0-.044.27 2.8 2.8 0 0 0 .045.758c.013.062.028.123.043.184a3.841 3.841 0 0 0 .12.358c.024.06.05.117.076.174a4.593 4.593 0 0 0 .89-.664 4.608 4.608 0 0 0 .701-.845 4.464 4.464 0 0 0 .474-.97 3.652 3.652 0 0 0 .196-1.037l-.041-.008-.04-.008-.042-.008-.042-.005-.043-.004-.042-.003c-.014 0-.028 0-.042-.002h-.044Zm-5.728-9.003a2.749 2.749 0 0 0-.482.04 3.319 3.319 0 0 0-1.717.84 4.614 4.614 0 0 0-.671.76 5.802 5.802 0 0 0-.5.843 7.506 7.506 0 0 0-.479 1.23c-.06.198-.111.398-.158.597a8.806 8.806 0 0 0-.194 1.198c-.018.199-.03.398-.036.596a8.174 8.174 0 0 0 .048 1.172 8.414 8.414 0 0 0 .205 1.127 10.405 10.405 0 0 0 1.26-.454 12.565 12.565 0 0 0 1.088-.53 13.967 13.967 0 0 0 1.69-1.086c.162-.124.315-.247.459-.373a7.023 7.023 0 0 0 .759-.762 5.402 5.402 0 0 0 .556-.796c.076-.136.146-.274.206-.414.063-.142.115-.291.157-.447a3.762 3.762 0 0 0 .132-.97c0-.165-.012-.33-.034-.492a2.961 2.961 0 0 0-.106-.475 2.69 2.69 0 0 0-.181-.443 2.273 2.273 0 0 0-.26-.392 2.026 2.026 0 0 0-.832-.604 2.522 2.522 0 0 0-.355-.108 2.767 2.767 0 0 0-.367-.051 2.763 2.763 0 0 0-.187-.006h-.001ZM97.747 174.71a11.752 11.752 0 0 1-2.564-.279 11.184 11.184 0 0 1-1.65-.495 11.2 11.2 0 0 1-2.297-1.203 11.263 11.263 0 0 1-2.384-2.213 12.127 12.127 0 0 1-2.549-5.916 11.414 11.414 0 0 1 .024-3.264 11.13 11.13 0 0 1 .369-1.598 11.624 11.624 0 0 1 1.389-2.939 12.143 12.143 0 0 1 2.126-2.452 11.56 11.56 0 0 1 2.706-1.782c.49-.232.998-.427 1.521-.584a.705.705 0 0 1 .149-.028.692.692 0 0 1 .42.087.605.605 0 0 1 .118.081.743.743 0 0 1 .268.663.824.824 0 0 1-.084.274.755.755 0 0 1-.303.305.8.8 0 0 1-.14.058 9.13 9.13 0 0 0-1.31.507 9.835 9.835 0 0 0-1.226.697 10.574 10.574 0 0 0-2.126 1.878 10.81 10.81 0 0 0-1.563 2.375c-.205.426-.38.867-.521 1.317a9.191 9.191 0 0 0-.43 2.783c0 .472.033.945.1 1.414a10.708 10.708 0 0 0 1.42 4.011 10.352 10.352 0 0 0 1.768 2.207 9.236 9.236 0 0 0 2.311 1.585c.423.203.862.376 1.312.516a10.408 10.408 0 0 0 2.789.473 10.562 10.562 0 0 0 2.814-.28 9.85 9.85 0 0 0 1.344-.426 9.32 9.32 0 0 0 1.262-.617.766.766 0 0 1 .279-.096.764.764 0 0 1 .42.069.71.71 0 0 1 .23.175.68.68 0 0 1 .151.26.716.716 0 0 1 .037.289.856.856 0 0 1-.022.142.81.81 0 0 1-.125.259.792.792 0 0 1-.22.198 10.957 10.957 0 0 1-2.083.949 11.658 11.658 0 0 1-2.217.508 12.015 12.015 0 0 1-1.515.097l.002-.005Z"/><path d="M100.922 179c-.021 0-.042 0-.064-.003a.452.452 0 0 1-.063-.008c-.021-.005-.043-.009-.064-.015a.372.372 0 0 1-.062-.02.522.522 0 0 1-.12-.056.693.693 0 0 1-.11-.08.726.726 0 0 1-.235-.37.768.768 0 0 1 .007-.428.647.647 0 0 1 .058-.135.702.702 0 0 1 .086-.126c.16-.189.322-.382.481-.579.158-.196.315-.397.465-.6.149-.204.295-.41.43-.618.136-.209.262-.419.375-.633.113-.213.215-.428.299-.646.085-.216.154-.435.204-.654.049-.219.079-.44.087-.662a3.051 3.051 0 0 0-.281-1.389 3.457 3.457 0 0 0-.392-.643 4.42 4.42 0 0 0-.529-.57 6.191 6.191 0 0 0-.641-.507 8.751 8.751 0 0 0-.729-.448c-.255-.141-.52-.273-.793-.398a17.805 17.805 0 0 0-.83-.356 30.555 30.555 0 0 0-.847-.322.714.714 0 0 1-.253-.153.816.816 0 0 1-.17-.232.769.769 0 0 1-.069-.279.736.736 0 0 1 .044-.294.756.756 0 0 1 .517-.474.691.691 0 0 1 .29-.014.76.76 0 0 1 .147.036c.33.12.664.247.994.382.331.135.659.277.98.429.32.154.634.316.935.493.301.175.59.363.863.565.273.202.529.418.764.65.235.232.448.481.636.748a4.66 4.66 0 0 1 .856 2.732 4.786 4.786 0 0 1-.086.865 5.65 5.65 0 0 1-.226.834 7.058 7.058 0 0 1-.343.804c-.131.263-.277.52-.435.774a12.37 12.37 0 0 1-.502.742c-.175.244-.359.481-.545.713-.187.232-.376.46-.564.683a.631.631 0 0 1-.189.16c-.023.014-.047.025-.071.037a.546.546 0 0 1-.073.028.688.688 0 0 1-.234.038l.002-.001ZM140.358 157.547l-.152-.001c-.051 0-.102-.003-.151-.005a3.776 3.776 0 0 1-.303-.018l-.151-.014-.151-.018c-.051-.005-.1-.012-.151-.019a9.172 9.172 0 0 0-.15-.023.786.786 0 0 1-.277-.105.728.728 0 0 1-.278-.322.739.739 0 0 1-.057-.435.736.736 0 0 1 .191-.395.799.799 0 0 1 .106-.095.746.746 0 0 1 .559-.129c.259.042.52.068.783.075.263.009.526 0 .787-.026.262-.024.523-.065.78-.122a6.796 6.796 0 0 0 1.492-.519 6.435 6.435 0 0 0 1.323-.861 5.866 5.866 0 0 0 .888-.933c.102-.133.198-.271.288-.412a6.757 6.757 0 0 0 .811-1.842c.044-.164.082-.327.113-.494.032-.166.058-.333.077-.501a7.335 7.335 0 0 1-.606.141 6.291 6.291 0 0 1-1.18.108 5.82 5.82 0 0 1-.565-.03 5.016 5.016 0 0 1-1.063-.229 4.277 4.277 0 0 1-.945-.453 3.547 3.547 0 0 1-.842-.762 3.837 3.837 0 0 1-.584-.994 3.725 3.725 0 0 1-.26-1.073 3.89 3.89 0 0 1-.012-.323 2.996 2.996 0 0 1 .147-.919 2.877 2.877 0 0 1 .247-.555 2.815 2.815 0 0 1 1.023-1.017 3.18 3.18 0 0 1 .524-.248 3.47 3.47 0 0 1 1.163-.21 3.636 3.636 0 0 1 1.781.438 4.264 4.264 0 0 1 .824.585 4.698 4.698 0 0 1 .695.784c.105.146.202.3.294.46a6.083 6.083 0 0 1 .474 1.045 7.108 7.108 0 0 1 .187.63l.013.051.013.052a.795.795 0 0 1 .011.052c.004.017.009.034.011.053.005.017.008.034.012.053l.011.052.011.053a6.87 6.87 0 0 0 .827-.631 8.13 8.13 0 0 0 .383-.362 7.907 7.907 0 0 0 1.29-1.736 8.269 8.269 0 0 0 .922-2.659c.04-.244.067-.488.082-.732a7.323 7.323 0 0 0-.049-1.44 6.71 6.71 0 0 0-.338-1.367 6.41 6.41 0 0 0-.627-1.26 7.18 7.18 0 0 0-.89-1.126 7.952 7.952 0 0 0-1.122-.957 8.031 8.031 0 0 0-1.317-.75 7.752 7.752 0 0 0-.709-.283 7.692 7.692 0 0 0-1.45-.353 7.205 7.205 0 0 0-1.448-.069 6.9 6.9 0 0 0-1.397.22 6.52 6.52 0 0 0-.664.217.708.708 0 0 1-.434.032.792.792 0 0 1-.37-.21.737.737 0 0 1-.212-.543.723.723 0 0 1 .133-.406.74.74 0 0 1 .342-.273 8.019 8.019 0 0 1 2.489-.533 8.966 8.966 0 0 1 2.615.243 9.766 9.766 0 0 1 1.713.589 9.698 9.698 0 0 1 1.572.899c.245.172.479.356.702.548a8.922 8.922 0 0 1 1.213 1.262c.178.228.344.462.498.704a7.944 7.944 0 0 1 1.241 4.047 9.084 9.084 0 0 1-.107 1.753 9.66 9.66 0 0 1-1.548 3.912 9.443 9.443 0 0 1-.925 1.163 9.33 9.33 0 0 1-1.078.979 8.394 8.394 0 0 1-1.204.771 8.21 8.21 0 0 1-.552 2.816 8.342 8.342 0 0 1-.633 1.29 7.32 7.32 0 0 1-.854 1.145c-.183.204-.38.396-.585.577a7.923 7.923 0 0 1-2.852 1.605 8.495 8.495 0 0 1-1.609.34 8.03 8.03 0 0 1-.82.044l.011.004Zm3.461-12.266a2.22 2.22 0 0 0-.591.081 1.693 1.693 0 0 0-.52.256 1.345 1.345 0 0 0-.531.983 1.925 1.925 0 0 0 .079.73 2.136 2.136 0 0 0 .174.433 2.305 2.305 0 0 0 .572.714c.058.047.117.091.179.131.112.072.231.137.354.192a3.118 3.118 0 0 0 .804.238 4.158 4.158 0 0 0 .905.041c.158-.01.319-.027.482-.054a5.852 5.852 0 0 0 1.002-.258 2.906 2.906 0 0 1-.013-.092 1.328 1.328 0 0 0-.014-.091 1.445 1.445 0 0 0-.016-.091 2.449 2.449 0 0 0-.017-.091 2.429 2.429 0 0 0-.038-.182l-.021-.09a5.983 5.983 0 0 0-.15-.514c-.048-.136-.1-.27-.157-.398a4.369 4.369 0 0 0-.392-.706 3.37 3.37 0 0 0-.485-.569 2.725 2.725 0 0 0-.564-.41c-.038-.02-.076-.04-.116-.058a1.576 1.576 0 0 0-.248-.094c-.044-.013-.086-.026-.132-.036-.043-.011-.089-.019-.134-.028-.045-.009-.09-.014-.136-.02a2.05 2.05 0 0 0-.275-.017h-.001ZM55.08 120.087c-.019 0-.039 0-.058-.002a1.221 1.221 0 0 1-.12-.02.527.527 0 0 1-.057-.017l-.057-.022a.717.717 0 0 1-.108-.058c-.019-.011-.034-.023-.051-.036a.64.64 0 0 1-.158-.168.664.664 0 0 1-.098-.203.733.733 0 0 1-.025-.34.806.806 0 0 1 .026-.114l.24-.743.238-.742.239-.743.239-.743.238-.742.24-.743.238-.743.239-.743-1.296.314-1.296.313-1.295.313-1.296.313-1.295.313-1.296.313-1.296.313-1.295.313a.699.699 0 0 1-.434-.026.814.814 0 0 1-.243-.149.783.783 0 0 1-.22-.379.715.715 0 0 1 .027-.437.744.744 0 0 1 .524-.466l1.456-.353 1.457-.353 1.457-.353 1.456-.353 1.457-.353 1.457-.352 1.456-.353 1.457-.353c.033-.009.067-.013.099-.017a.654.654 0 0 1 .196.007.754.754 0 0 1 .587.97l-.21.652-.209.652-.209.651-.209.652-.209.651-.209.652-.209.652-.21.651 1.056-.687 1.056-.687 1.055-.687 1.056-.687 1.055-.688 1.055-.687 1.056-.687 1.055-.687a.691.691 0 0 1 .276-.11.7.7 0 0 1 .285.006.695.695 0 0 1 .261.114.752.752 0 0 1 .328.634.777.777 0 0 1-.13.406.795.795 0 0 1-.093.114.833.833 0 0 1-.117.095l-1.275.831-1.274.831-1.274.831-1.275.831-1.274.83-1.275.831-1.274.831-1.275.831-.046.029-.048.024-.05.021a1.009 1.009 0 0 1-.101.03.748.748 0 0 1-.053.01c-.017.003-.035.004-.052.006l-.052.001-.01-.006ZM118.705 178.624a.674.674 0 0 1-.143-.014.67.67 0 0 1-.134-.04.72.72 0 0 1-.324-.25.794.794 0 0 1-.12-.252.687.687 0 0 1-.023-.144l-.076-1.173-.076-1.174-.077-1.174-.076-1.174-.076-1.174-.076-1.174-.077-1.173-.076-1.174-.328.482-.328.483-.327.482-.328.482-.328.483-.328.482-.328.482-.327.483a1.31 1.31 0 0 1-.072.091.724.724 0 0 1-.612.231.788.788 0 0 1-.225-.056.79.79 0 0 1-.191-.12.664.664 0 0 1-.145-.171.717.717 0 0 1-.109-.323l-.177-1.761-.176-1.762-.177-1.761-.176-1.761-.177-1.762-.177-1.761-.176-1.762-.177-1.761a.857.857 0 0 1 0-.152.816.816 0 0 1 .085-.278.793.793 0 0 1 .179-.222.734.734 0 0 1 .556-.168.798.798 0 0 1 .277.084.741.741 0 0 1 .384.587l.151 1.506.151 1.507.151 1.507.152 1.506.151 1.507.151 1.507.151 1.507.151 1.506.337-.493.336-.494.336-.494.336-.493.337-.494.336-.494.336-.493.336-.494a.796.796 0 0 1 .256-.234.862.862 0 0 1 .212-.078.712.712 0 0 1 .229-.011.786.786 0 0 1 .226.061c.035.016.069.036.102.055a.679.679 0 0 1 .233.247c.02.032.035.067.049.104a.767.767 0 0 1 .051.227l.094 1.444.093 1.444.093 1.445.093 1.444.094 1.444.093 1.444.093 1.444.093 1.444a.778.778 0 0 1-.039.296.799.799 0 0 1-.144.248.772.772 0 0 1-.226.175.804.804 0 0 1-.286.078h-.045l-.001-.006ZM124.497 71.964h-.028l-.028-.001c-.01 0-.019-.002-.028-.003-.01 0-.019-.003-.029-.005l-.028-.004-.028-.005-.028-.008-.029-.008a.714.714 0 0 1-.258-.144.696.696 0 0 1-.178-.225.7.7 0 0 1-.082-.276.732.732 0 0 1 .031-.297l.966-3.103.967-3.103.966-3.103.966-3.104.967-3.103.966-3.103.967-3.103.966-3.103a.756.756 0 0 1 .246-.361.69.69 0 0 1 .253-.133.81.81 0 0 1 .141-.028.756.756 0 0 1 .652.279.696.696 0 0 1 .077.12.7.7 0 0 1 .082.276.791.791 0 0 1-.03.297l-.966 3.104-.966 3.103-.967 3.103-.966 3.103-.967 3.103-.966 3.104-.966 3.103-.967 3.103a.755.755 0 0 1-.71.525h.002ZM146.191 100.887a.708.708 0 0 1-.223-.034.725.725 0 0 1-.366-.255.85.85 0 0 1-.15-.356c-.007-.05-.009-.098-.007-.148a.693.693 0 0 1 .143-.402.715.715 0 0 1 .213-.197.712.712 0 0 1 .136-.065l1.828-.662 1.828-.662 1.828-.661 1.829-.662 1.828-.661 1.828-.662 1.828-.661 1.829-.662a.753.753 0 0 1 .145-.037c.048-.007.098-.01.146-.007a.791.791 0 0 1 .277.07.73.73 0 0 1 .23.17.89.89 0 0 1 .089.118.774.774 0 0 1 .088.575.71.71 0 0 1-.218.367.726.726 0 0 1-.253.154l-1.828.662-1.828.661-1.829.662-1.828.661-1.828.662-1.829.661-1.828.662-1.828.662-.031.01-.031.008a.173.173 0 0 1-.031.007l-.031.006-.032.004a.155.155 0 0 1-.031.003l-.031.002h-.031l-.001.007ZM48.363 143.956a.698.698 0 0 1-.22-.032.701.701 0 0 1-.285-.165.89.89 0 0 1-.14-.177.788.788 0 0 1-.09-.253.74.74 0 0 1 .124-.552.683.683 0 0 1 .208-.202.674.674 0 0 1 .134-.068l1.667-.648 1.668-.647 1.667-.648 1.667-.647 1.667-.647 1.667-.648 1.668-.647 1.667-.647a.717.717 0 0 1 .29-.05.758.758 0 0 1 .404.133.695.695 0 0 1 .199.21.786.786 0 0 1 .117.428.761.761 0 0 1-.342.607.738.738 0 0 1-.134.069l-1.667.647-1.667.647-1.668.648-1.667.647-1.667.648-1.667.647-1.668.647-1.667.648-.032.011-.034.01-.034.009-.034.007-.034.005-.034.005a.194.194 0 0 0-.034.003h-.034l.005.002ZM59.978 89.739h-.076l-.013-.001c-.004 0-.009 0-.013-.002l-.832-.115-.832-.115-.832-.115-.833-.116-.832-.115-.832-.115-.832-.115-.832-.116a.72.72 0 0 1-.396-.183.828.828 0 0 1-.222-.363.708.708 0 0 1-.018-.297.73.73 0 0 1 .097-.282.882.882 0 0 1 .085-.117.853.853 0 0 1 .105-.098.73.73 0 0 1 .401-.15c.05-.002.1 0 .151.008l.832.115.833.115.832.115.832.116.832.115.832.115.833.115.832.116a.718.718 0 0 1 .28.098c.04.025.08.054.115.085a.841.841 0 0 1 .096.106.736.736 0 0 1 .144.555.816.816 0 0 1-.084.258.846.846 0 0 1-.074.111.716.716 0 0 1-.444.265.698.698 0 0 1-.134.013l-.001-.006Z"/></g><defs><clipPath id="a"><path fill="#fff" d="M45 37h237v142H45z"/></clipPath></defs></svg>