<svg xmlns="http://www.w3.org/2000/svg" width="328" height="224" fill="none"><g clip-path="url(#a)"><path fill="#B3C1F8" d="M256.085 193.708a103.437 103.437 0 0 0 7.352-8.25c6.194-7.765 11.292-16.559 14.6-25.938 1.386-3.929 1.343-7.042 1.713-11.028.429-4.615 2.376-9.07 3.706-13.489 5.463-18.151 10.98-36.463 13.191-55.35 1.823-15.559 4.026-36.577-14.363-42.584-8.534-2.787-17.877-1.41-26.512 1.049-8.635 2.459-16.998 5.973-25.847 7.496-12.682 2.184-25.805.146-38.017-3.912-31.266-10.387-60.779-34.9-95.767-27.519-16.146 3.407-30.205 14.02-39.91 27.35-9.707 13.33-15.372 29.228-18.763 45.358-7.122 33.888-8.25 78.379 13.909 106.818l204.708-.001Z" opacity=".54"/><path fill="#A7ADFF" d="M279.328 26.49c-3.665-8.45-9.541-15.987-17.293-20.04-14.348-7.498-30.878-6.901-46.078-2.398-16.531 4.898-31.892 13.687-44.482 25.454-6.769 6.326-12.771 13.514-20.18 19.078-12.958 9.733-29.38 13.827-45.546 15.08-12.027.93-24.426.47-35.752 4.616-13.81 5.055-24.492 16.553-31.53 29.452-5.197 9.526-8.633 19.865-11.592 30.267-2.391 8.407-2.533 17.004-4.007 25.64-2.162 12.663-2.744 26.298-.585 39.312h262.045a187.237 187.237 0 0 0 3.589-5.684c8.568-14.145 14.201-29.862 17.538-46.017 3.165-15.322 7.152-33.93 3.884-49.404-.507-2.403-1.192-4.807-2.479-6.9-4.25-6.918-13.801-8.772-18.798-15.171-5.421-6.94-3.914-16.748-4.426-25.536-.338-5.799-1.809-11.987-4.308-17.749Z" opacity=".56"/><path fill="#88A2E8" d="M262.226 192.678c5.243-4.12 9.235-9.42 10.867-16.962 2.619-12.104 2.65-24.598 2.669-36.981.019-12.038.035-24.106-1.094-36.103-.879-9.344-2.661-21.237-6.262-29.912-2.124-5.115-5.9-9.724-10.99-11.92-2.628-1.134-5.841-1.537-8.241.023-1.224.795-2.104 2.013-3.208 2.967-3.201 2.765-8.383 2.886-11.71.272-2.182-1.714-3.462-4.294-4.761-6.746-3.602-6.8-7.969-13.363-13.99-18.162-17.327-13.81-36.925-1.399-51.278 10.778-7.03 5.964-14.018 12.36-19.997 19.394-5.213 6.131-9.253 13.267-14.425 19.517a165.574 165.574 0 0 1-36.532 32.753c-8.197 5.388-16.969 10.12-23.898 17.06-5.078 5.086-9 11.202-12.543 17.452-9.687 17.083-15.624 43.15 5.316 54.926 6.514 3.664 14.009 5.174 21.421 6.137 15.041 1.955 30.279 1.843 45.367.512 7.737-.683 15.421-1.737 23.097-2.895 5.234-.79 10.406-.277 15.574-1.12 14.089-2.295 27.652-3.897 41.955-4.611 11.977-.598 22.17-1.362 33.488-6.156 6.913-2.928 13.721-5.937 19.175-10.223Z" opacity=".54"/><path fill="#F0F0F0" d="M301.27 225.393c-13.695 1.399-27.997.208-41.635.208H68.288c-10.212 0-20.502-.004-30.673.603-3.855.23-7.851.218-11.408-1.286-2.488-1.052-4.836-3.02-5.922-5.539-1.397-3.241 1.102-5.867.223-9.073-.527-1.923-2.64-3.259-4.285-4.103-4.807-2.464-7.707-8.585-4.709-13.541 1.371-2.267 3.721-3.809 6.215-4.709 5.207-1.878 11.138-1.856 16.597-1.843 5.163.012 10.31.67 15.465.671h236.787c2.703 0 5.406.018 8.109 0 2.949-.02 7.493-.273 8.465 3.494.91 3.527-3.655 6.243-3.961 9.639-.857 9.513 18.277 5.55 18.512 16.383.053 2.45-1.557 4.707-3.617 6.038-2.061 1.331-4.521 1.883-6.942 2.282a96.12 96.12 0 0 1-5.874.776Z"/><path fill="#A1E3DD" d="M301.27 225.393c-13.695 1.399-27.997.208-41.635.208H68.288c-10.212 0-20.502-.004-30.673.603-3.855.23-7.851.218-11.408-1.286-2.488-1.052-4.836-3.02-5.922-5.539-1.397-3.241 1.102-5.867.223-9.073-.527-1.923-2.64-3.259-4.285-4.103-4.807-2.464-7.707-8.585-4.709-13.541 1.371-2.267 3.721-3.809 6.215-4.709 5.207-1.878 11.138-1.856 16.597-1.843 5.163.012 10.31.67 15.465.671h236.787c2.703 0 5.406.018 8.109 0 2.949-.02 7.493-.273 8.465 3.494.91 3.527-3.655 6.243-3.961 9.639-.857 9.513 18.277 5.55 18.512 16.383.053 2.45-1.557 4.707-3.617 6.038-2.061 1.331-4.521 1.883-6.942 2.282a96.12 96.12 0 0 1-5.874.776Z"/><mask id="b" width="308" height="41" x="10" y="186" maskUnits="userSpaceOnUse" style="mask-type:luminance"><path fill="#fff" d="M301.27 225.393c-13.695 1.399-27.997.208-41.635.208H68.288c-10.212 0-20.502-.004-30.673.603-3.855.23-7.851.218-11.408-1.286-2.488-1.052-4.836-3.02-5.922-5.539-1.397-3.241 1.102-5.867.223-9.073-.527-1.923-2.64-3.259-4.285-4.103-4.807-2.464-7.707-8.585-4.709-13.541 1.371-2.267 3.721-3.809 6.215-4.709 5.207-1.878 11.138-1.856 16.597-1.843 5.163.012 10.31.67 15.465.671h236.787c2.703 0 5.406.018 8.109 0 2.949-.02 7.493-.273 8.465 3.494.91 3.527-3.655 6.243-3.961 9.639-.857 9.513 18.277 5.55 18.512 16.383.053 2.45-1.557 4.707-3.617 6.038-2.061 1.331-4.521 1.883-6.942 2.282a96.12 96.12 0 0 1-5.874.776Z"/></mask><g mask="url(#b)"><path stroke="#fff" stroke-miterlimit="10" stroke-width=".75" d="M4.46 191.131h312.292M4.46 195.817h312.292M4.46 200.502h312.292M4.46 205.187h312.292M4.46 209.872h312.292"/></g><mask id="c" width="308" height="41" x="10" y="186" maskUnits="userSpaceOnUse" style="mask-type:luminance"><path fill="#fff" d="M301.27 225.393c-13.695 1.399-27.997.208-41.635.208H68.288c-10.212 0-20.502-.004-30.673.603-3.855.23-7.851.218-11.408-1.286-2.488-1.052-4.836-3.02-5.922-5.539-1.397-3.241 1.102-5.867.223-9.073-.527-1.923-2.64-3.259-4.285-4.103-4.807-2.464-7.707-8.585-4.709-13.541 1.371-2.267 3.721-3.809 6.215-4.709 5.207-1.878 11.138-1.856 16.597-1.843 5.163.012 10.31.67 15.465.671h236.787c2.703 0 5.406.018 8.109 0 2.949-.02 7.493-.273 8.465 3.494.91 3.527-3.655 6.243-3.961 9.639-.857 9.513 18.277 5.55 18.512 16.383.053 2.45-1.557 4.707-3.617 6.038-2.061 1.331-4.521 1.883-6.942 2.282a96.12 96.12 0 0 1-5.874.776Z"/></mask><g mask="url(#c)"><path stroke="#fff" stroke-miterlimit="10" stroke-width=".75" d="M4.46 214.558h312.292M4.46 219.242h312.292M4.46 223.928h312.292M4.46 228.613h312.292M4.46 233.298h312.292"/></g><path fill="#110809" d="M277.684 186.251h-1.393v-30.683h1.393v30.683Z"/><path stroke="#110809" stroke-miterlimit="10" stroke-width="2" d="M289.165 192.689c0-4.531-8.027-6.431-12.039-6.439-4.774-.009-12.038 1.749-12.038 6.439m11.903 1.211v-7.525"/><path fill="#110809" d="M263.119 193.782a1.968 1.968 0 0 0 1.207 1.85 1.98 1.98 0 0 0 2.168-.436 1.952 1.952 0 0 0 .564-1.414 1.966 1.966 0 0 0-1.969-1.931 1.966 1.966 0 0 0-1.97 1.931Zm11.939 0a1.96 1.96 0 0 0 1.207 1.85 1.972 1.972 0 0 0 2.168-.436 1.965 1.965 0 0 0-1.406-3.345 1.971 1.971 0 0 0-1.969 1.931Zm11.938 0a1.961 1.961 0 0 0 .564 1.414 1.959 1.959 0 0 0 1.406.59 1.976 1.976 0 0 0 1.83-1.24 1.966 1.966 0 0 0-1.83-2.695 1.97 1.97 0 0 0-1.97 1.931Z"/><path fill="#FFF5F6" d="M279.68 145.267v-22.576c0-3.907 3.172-7.075 7.084-7.075h7.801a7.079 7.079 0 0 1 7.083 7.075v25.239c0 5.574-4.566 10.135-10.147 10.135h-25.43a1.196 1.196 0 0 1-1.194-1.193 1.192 1.192 0 0 1 1.194-1.192h3.184c5.757 0 10.425-4.662 10.425-10.413Z"/><path fill="#110809" d="M96.76 151.551h1.393v30.683H96.76v-30.683Z"/><path stroke="#110809" stroke-miterlimit="10" stroke-width="2" d="M85.278 188.673c0-4.531 8.027-6.431 12.039-6.439 4.774-.009 12.038 1.749 12.038 6.439m-11.903 1.212v-7.526"/><path fill="#110809" d="M111.325 189.767a1.97 1.97 0 1 1-3.35-1.368 1.974 1.974 0 0 1 2.761 0c.368.361.58.852.589 1.368Zm-11.94 0a1.96 1.96 0 0 1-.563 1.414 1.976 1.976 0 0 1-2.168.436 1.976 1.976 0 0 1-1.068-1.087 1.965 1.965 0 0 1 1.83-2.695 1.972 1.972 0 0 1 1.97 1.932ZM85.477 191.734a1.969 1.969 0 1 0-1.97-1.967c0 1.086.882 1.967 1.97 1.967Z"/><path fill="#F7FAE6" d="M97.444 141.25v-22.575c0-3.907-3.172-7.075-7.084-7.075h-7.8c-3.913 0-7.084 3.167-7.084 7.075v25.239c0 5.574 4.567 10.135 10.148 10.135h25.429a1.193 1.193 0 0 0 0-2.385h-3.184c-5.757 0-10.425-4.662-10.425-10.414Z"/><path fill="#FF9575" d="M156.741 92.973a11.57 11.57 0 0 0 .746-1.909c.623-2.13.598-4.513 1.837-6.355.662.07.905.899.96 1.562.204 2.466.008 4.945-.187 7.41-.049.621-.1 1.251-.324 1.831-.253.654-.709 1.207-1.157 1.746-.876 1.052-3.149 5.052-4.68 4.492-1.091-.398-1.513-2.809-1.197-3.756.47-1.41 1.458-1.864 2.426-2.797.634-.612 1.161-1.394 1.576-2.224Z"/><path fill="#110809" d="M132.573 195c.059.097.13.189.216.273 1.15 1.138 3.511.896 5.088.903 2.229.009 4.471.017 6.697-.349.701-.116 1.459-.303 1.932-.853 1.072-1.244-.639-2.284-1.605-2.531-.992-.254-2.035-.32-3.051-.492-1.015-.173-2.033-.467-2.805-1.108a3.611 3.611 0 0 1-1.225-2.06c-.174-.854-.091-1.866-.715-2.453-.551-.518-1.681-.541-2.374-.166-.86.465-1.454 1.335-1.781 2.221-.513 1.393-.396 2.982-.554 4.424-.081.742-.196 1.578.177 2.191Z"/><path fill="#0E398A" d="M140.832 152.219a45.525 45.525 0 0 0-.167-1.099c-.696-4.232-2.207-8.098-3.231-12.212-1.413-5.674-2.831-11.303-4.696-16.852-.766-2.28-1.365-5.143-2.538-7.229-1.079-1.919-2.541-1.763-4.77-1.346-1.248.234-2.575.506-3.483 1.393-.593.58-.939 1.361-1.254 2.129-1.758 4.298-2.483 8.228-2.826 12.774-.232 3.086.423 5.397 1.161 8.279.834 3.258.82 6.22 2.695 9.191 1.263 2.001 2.99 3.761 3.736 6.006.742 2.235.634 4.639 1.378 6.888.655 1.98 1.608 3.845 2.429 5.76.928 2.166 1.033 4.58 1.125 6.934l.688 17.665 8.194-1.724c.367-.078.766-.173 1.001-.466.257-.319.24-.771.215-1.179-.447-7.194.409-14.396.745-21.596.207-4.434.214-8.911-.402-13.316Z"/><path fill="#110809" d="M105.767 197.677c.058.097.13.189.216.274 1.15 1.137 3.511.896 5.088.902 2.229.009 4.47.018 6.697-.349.701-.115 1.459-.302 1.932-.852 1.072-1.244-.639-2.284-1.605-2.531-.992-.254-2.036-.32-3.051-.493-1.015-.172-2.033-.467-2.805-1.107a3.614 3.614 0 0 1-1.225-2.06c-.174-.854-.091-1.867-.715-2.453-.551-.519-1.681-.542-2.375-.166-.86.465-1.453 1.335-1.78 2.221-.514 1.392-.396 2.982-.554 4.424-.081.741-.196 1.577.177 2.19Z"/><path fill="#FF9575" d="M135.967 78.59c.125-.032.249-.068.37-.112 1.097-.395 1.914-1.374 2.332-2.462.417-1.088.478-2.28.426-3.445-.04-.873-.141-1.746-.08-2.617.062-.89.29-1.797.063-2.658-.579-2.192-3.264-2.465-5.144-2.405-2.239.072-4.841 1.375-6.035 3.321-.628 1.025-.83 2.358-.314 3.444.424.894 1.271 1.524 2.168 1.946l-3.958 4.483c-1.182 1.34-2.655 2.554-3.1 4.363-.261 1.06 1.142 1.346 1.663.577.335-.494.793-.923 1.291-1.328.133.85.754 1.322 1.443 1.332.093.739.828 1.347 1.607 1.067 2.71-.972 3.609-4.356 6.39-5.273.287-.095.585-.155.878-.232Z"/><path fill="#F02B66" d="M126.57 87.69c.399-1.453 2.384-4.41 1.652-5.73-.606-1.092-2.023-1.532-3.258-1.336-1.236.196-2.326.9-3.336 1.638-5.781 4.22-10.283 10.086-13.223 16.607-.624 1.384-1.187 2.824-1.313 4.337-.133 1.604.23 3.203.592 4.771l4.672 20.274c1.677.707 3.645-.641 4.287-2.342.642-1.702.341-3.593.06-5.389a173.21 173.21 0 0 1-.914-6.693c-.285-2.447-.486-5.068.683-7.238.514-.954 1.282-1.791 1.558-2.839.176-.667.139-1.382.366-2.033.538-1.547 2.259-2.443 3.219-3.707a29.344 29.344 0 0 0 3.175-5.342 33.653 33.653 0 0 0 1.78-4.977Z"/><path fill="#F02B66" d="M135.939 99.459c.021-2.497.682-4.953 1.498-7.296.805-2.31 2.126-4.508 2.688-6.876.082-.345.149-.705.078-1.052-.121-.585-.608-1.02-1.1-1.359-3.173-2.193-7.881-3.184-11.686-3.015-5.567.249-9.644 5.118-10.266 10.463-.333 2.857.15 5.744.755 8.556.605 2.813 1.338 5.615 1.515 8.487.121 1.958-.022 3.915-.089 5.872-.062 1.822-.47 3.799 1.505 4.697 4.794 2.181 9.888.989 12.431-3.708 1.181-2.183 1.733-4.644 2.2-7.081.503-2.619.451-5.147.471-7.689Z"/><path fill="#F02B66" d="m153.054 96.248-6.134 5.883c-.612.587-1.233 1.181-1.974 1.596-.647-2.715-1.124-5.503-1.842-8.196-.648-2.43-.479-4.976-.941-7.437-.223-1.191-.568-2.1-1.252-2.98-.641-.825-.96-1.868-1.972-2.35-.255-.121-.532-.192-.784-.32-.623-.316-1.122-.985-1.821-.963a.55.55 0 0 0-.359.125.623.623 0 0 0-.144.235c-.179.455-.163.958-.177 1.447-.029.986-.106 2.19-.58 3.077-.456.85-.87 1.554-1.175 2.504-.707 2.204-1.246 4.515-1.153 6.844.063 1.553.954 2.349 1.457 3.816.536 1.563.642 3.247.963 4.86a19.507 19.507 0 0 0 5.011 9.626c.419.439.883.872 1.463 1.05 4.428 1.357 7.994-4.376 10.403-7.106 2.498-2.83 4.8-6.595 5.999-10.184a26.096 26.096 0 0 0-3.357-3.092l-1.631 1.565Z"/><path fill="#2155B5" d="M124.12 109.502a7.932 7.932 0 0 0-2.317-.589c-.494-.048-1.6-.402-2.035-.1-.478.333-.609 1.61-.888 2.161-.83 1.637-2.177 2.958-3.404 4.295a47.179 47.179 0 0 0-5.109 6.675c-.843 1.334-1.632 2.742-1.926 4.292-.645 3.4 1.235 6.31 1.296 9.626.062 3.346-1.847 6.394-2.492 9.677-.952 4.833.882 9.777.774 14.701-.056 2.537-.626 5.029-1.061 7.529-1.431 8.227-1.404 16.628-1.373 24.977l5.614-.558c.664-.066 1.359-.143 1.913-.514.413-.277.709-.693.982-1.109 3.634-5.552 2.464-12.33 3.851-18.632 1.101-4.998 2.19-9.998 3.267-15.001.403-1.876 1.078-3.701 1.513-5.596.841-3.666 1.316-7.214 2.356-10.82 1.16-4.022 2.638-8.325 3.208-12.444.14-1.01 3.224-12.976 4.457-12.215-3.042-1.876-5.434-5.023-8.626-6.355Z"/><path fill="#1C0029" d="M141.272 68.184c.953-.845 1.614-1.971 1.151-3.295-.483-1.385-2.093-2.24-3.534-1.953-1.042.207-1.928.906-2.96 1.154-1.881.45-3.878-.663-5.754-.199a3.557 3.557 0 0 0-2.031 1.386c-.506.716-.731 1.602-1.239 2.317-.818 1.151-2.186 1.641-3.452 2.128-1.037.398-2.853.823-3.44 1.846a3.764 3.764 0 0 0-.457 2.398c.047.326.137.65.115.978-.052.782-.702 1.366-1.19 1.979-1.011 1.27-1.409 3.117-.656 4.554.506.966 1.446 1.63 2.411 2.138.685.36 1.414.666 2.184.747 2.578.272 5.164-.477 7.007-2.365a8.18 8.18 0 0 0 2.301-5.793c-.018-1.05-.184-2.269.574-2.997.611-.588 1.316-.679 1.499-1.61.129-.656-.232-1.396.124-2.004.276-.471.786-.796 1.309-.927.74-.184 1.52-.052 2.268.104 1.422.296 2.538.464 3.671-.5l.099-.086Z"/><path fill="#FF9575" d="M134.309 72.561c-.012-.229-.043-.457-.041-.686.002-.224.036-.454-.026-.67-.137-.482-.735-.72-1.221-.599-.487.122-.864.51-1.134.933-.546.854-.524 2.261.563 2.711.823.34 1.78-.551 1.855-1.36.009-.11.01-.22.004-.329Z"/><path stroke="#051433" stroke-miterlimit="10" d="M122.598 122.305c-1.288-.714-5.052-3.126-5.054-3.126-.177-.06-2.52 3.63-2.814 5.427-.121.746-.033 1.572.463 2.142.29.333.694.557 1.12.673.937.254 1.961-.007 2.78-.529 1.169-.746 2.883-3.37 3.505-4.587Z" opacity=".6"/><path fill="#fff" d="M136.685 74.362c.102.367.316.716.648.904.33.188.787.176 1.061-.087.104-.105.185-.231.238-.369.089-.211.141-.439.153-.668 0-.018-.002-.042-.02-.047-.017-.005-.022.034-.006.026"/><path fill="#FF9575" d="M105.142 35.879c.038-1.162-.158-2.41-.213-3.529-.028-.567-.056-1.136-.167-1.693a1.122 1.122 0 0 0-.148-.415c-.128-.192-.349-.297-.559-.393-.449-.204-.998-.403-1.409-.128-.146.098-.25.245-.35.39-.582.843-.869 1.832-1.074 2.824-.131.637-.062 2.2-.664 2.54.335-.19-.181-2.837-.985-2.597-.191.057-.305.26-.33.459-.023.197.024.395.051.593.202 1.476-.693 2.914-.61 4.401.055.984.52 1.884.665 2.852.149 1 .243 2.112.165 3.124-.057.746.01 3.094-.814 3.522a4.974 4.974 0 0 1 3.469-.403l.659-4.233c.144-.929.291-1.866.635-2.74.481-1.22 1.339-2.294 1.581-3.605.057-.312.087-.637.098-.97Z"/><path fill="#111314" d="M85.24 192.558c.136.119.279.231.424.335 1.577 1.133 3.503 1.562 5.314 2.169.955.321 3.606 1.082 2.408 2.491-1.224 1.44-4.05 1.131-5.688.994-1.787-.149-3.566-.514-5.356-.411-1.137.065-2.278.319-3.402.139-3.928-.626-1.895-6.014-1.886-8.643.008-2.567-.08-5.178.59-7.682.296-1.103.849-2.283 1.923-2.674.688-.251 1.78-.077 2.457.194.814.327.965.972 1.198 1.805.717 2.566.92 5.376.838 8.023-.019.632-.036 1.282.177 1.878.193.544.565 1.001 1.003 1.382Z"/><path fill="#FF9575" d="M72.758 69.827c.044.16.09.319.137.477.176.594.158 1.285.215 1.902.102 1.104.154 2.238.357 3.33.262 1.41 3.888 7.72 5.25 7.693 1.492-.03 2.672-6.14 2.418-7.593-.346-1.979-1.397-5.895-1.401-5.92-.441-1.203-1.203-2.372-2.383-2.956-1.24-.615-2.981-.489-4.317-.346-.215.023-.442.057-.608.196-.32.267-.258.765-.168 1.171.152.689.315 1.371.5 2.046Z"/><path fill="url(#d)" d="M80.093 71.939a.113.113 0 0 0 .02-.095c-.217-.847-.378-1.45-.38-1.46-1.89-5.152-7.231-3.635-6.846.077.036.343.106 1.134.188 2.027l.618.438c2.092 1.566 4.832 1.023 6.4-.987Z"/><path fill="#FF9575" d="M78.849 59.105c-1.017-.387-2.744 1.065-3.805 1.336-1.03.37-2.65.846-3.299 1.72-1.372 1.851-.716 4.683.535 6.569.21.316.665 1.13.905 1.423 1.919 2.336 4.907 2.188 6.347 1.642 1.72-.653 2.497-2.254 2.535-4.362.007-.379-.133-1.593-.175-1.97-.257-2.312-1.972-5.95-3.043-6.357Z"/><path fill="#151A36" d="M80.139 54.913c-.216.072-.434.205-.628.318-1.136.666-2.53.644-3.817.917-1.916.408-3.85 1.382-4.868 3.125-1.249 2.14-.442 4.842.205 7.064.044.151.09.303.165.442.79 1.464 1.852.229 2.003-.888.094-.697 0-1.412.118-2.105.27-1.575 1.774-2.91 3.377-2.795 1.495.107 3.292-.318 4.052-1.754a4.848 4.848 0 0 0 .288-3.815c-.06-.173-.137-.351-.285-.459-.183-.132-.395-.122-.61-.05Z"/><path fill="#151A36" d="M81.87 64.337a2.84 2.84 0 0 1-.025.243c-.052-.01-.157-.035-.19-.08-.777-1.08-.888-2.49-1.624-3.584-.31-.46-.827-.469-1.098-.835-.392-.53-.122-1.577.386-1.931.481-.337 1.222-.249 1.583.214.114.146.19.32.255.493.402 1.068.48 2.226.555 3.364.042.658.2 1.448.158 2.116Z"/><path fill="#FF9575" d="M72.974 67.828c-.15.287-.388.534-.686.66-.3.128-.66.124-.94-.042-.43-.257-.814-1.16-.873-1.64a1.41 1.41 0 0 1 .532-1.269c1.428-1.094 2.587 1.098 1.967 2.29Zm9.347-3.614.004.035c.025.26.05.526 0 .783-.051.257-.192.508-.423.632-.472.251-1.133-.287-1.342-.687-.26-.501-.252-1.22.019-1.715.194-.356.585-.655.98-.566.266.06.471.283.58.532.108.249.137.524.163.795l.02.191Z"/><path fill="#FAD100" d="M88.66 77.537c-.148-.267-.48-.356-.778-.424a35.094 35.094 0 0 1-2.606-.706c-.807-.251-1.51-.626-2.36-.773-.213-.037-.428-.066-.634-.129a3.891 3.891 0 0 1-.46-.186l-.845-.383c.127.922-.027 1.952-.619 2.698-.775.975-2.217 1.307-3.407 1.142-1.153-.16-2.235-.765-2.753-1.828-.29-.594-.614-1.214-.834-1.837-.434-.092-1.431.212-1.748.28-.912.201-1.819.422-2.72.663-1.376.359-2.753.725-4.116 1.131-1.478 1.186.048 3.266-.159 4.176-.615 2.716-.264 35.572-.264 35.572l22.148-.358c.133-1.991.258-3.983.381-5.976.268-4.311.522-8.624.75-12.938.22-4.139.434-8.28.528-12.424.018-.79.02-1.578.028-2.368.006-.629-.079-1.25.005-1.877l.019-.128c.15-.956.519-1.875.53-2.853.002-.163-.007-.332-.086-.474Z"/><path fill="#D4004A" d="M89.914 123.608c-.1-1.856-.21-3.711-.33-5.566-.09-1.423-.218-2.904-.955-4.125-.994-1.646-3.93-3.25-5.638-4.156-2.426-1.288-5.491-.614-7.632.983-2.25 1.678-3.658 4.268-4.536 6.931a24.555 24.555 0 0 0-.481 13.624c.604 2.388 1.974 5.03 2.042 7.5.082 3.003-1.114 5.554.136 8.554.632 1.516 1.728 2.801 2.391 4.303 1.026 2.324.942 4.964.84 7.501l-1.219 30.124H85.6c0-.005.003-.011.005-.016a700.95 700.95 0 0 0 4.149-33.509c1.067-10.74.741-21.351.161-32.148Z"/><path fill="#111314" d="M48.805 191.367c-.052.216-.066.424-.012.611.161.563 1.023 1.011 1.404 1.492.709.892 1.916 1.211 3.049 1.341 1.025.117 3.196-.019 3.784 1.096.108.204.129.444.109.674-.248 2.864-5.186 2.17-7.06 2.046l-5.297-.353c-2.548-.17-4.85-1.233-3.931-4.22.187-.608.456-1.187.724-1.764l2.022-4.354c.56-1.207 1.15-2.452 2.157-3.323 1.213-1.049 4.22-1.497 4.871.472.224.679-.013 1.415-.25 2.089l-.927 2.651c-.147.419-.513 1.005-.643 1.542Z"/><path fill="#F02B66" d="M78.603 111.333c-.051-.526-.125-1.09-.483-1.479-.291-.316-.722-.461-1.06-.727-1.017-.801-.559-1.24-2.22-1.486a13.91 13.91 0 0 0-3.774-.034c-2.19.278-4.506 1.066-6.041 2.722-2.719 2.933-3.975 7.054-4.387 10.953-.554 5.234.138 10.545-.498 15.77-.375 3.087-1.21 6.1-1.727 9.167-.29 1.727-.493 3.507-1.282 5.07-.548 1.084-1.354 2.012-2.056 3.003-3.138 4.423-3.14 9.788-4.899 14.75-2.044 5.767-5.722 13.432-8.035 19.095.368.143.69.259.846.327.85.37 1.716.701 2.575 1.048 1.697.687 3.34 1.495 4.984 2.303 3.808-6.613 9.463-15.059 13.408-21.55 3.913-6.441 7.862-12.055 10.054-19.419 3.778-12.689 5.9-26.275 4.595-39.513Z"/><path fill="#2155B5" d="M78.83 99.308c.041-.2.08-.4.115-.597.589-3.374.945-6.784 1.215-10.198.135-1.707.258-3.417.358-5.128.085-1.447.344-2.867.444-4.321.086-1.253.19-2.587 1.045-3.558a.443.443 0 0 0 .196-.001c2.396-.525 4.45-2.737 6.056-5.04.25-.111.514-.145.781-.048.492.18.724.738.834 1.25.342 1.606.009 3.239.117 4.857.096 1.45.274 2.66.242 4.124-.037 1.608.217 3.113-.453 4.635-.767 1.747-.685 3.496-.628 5.392.318 10.618 1.112 21.235 2.14 31.768.047.209-.243.316-.457.327-2.622.137-5.249-.083-7.865-.303-.473-.039-.963-.084-1.378-.316-.375-.21-.655-.556-.888-.917-1.419-2.195-1.407-4.67-1.548-7.169l-.5-8.841c-.064-1.134-.245-2.307-.219-3.442.017-.82.222-1.654.392-2.474Z"/><path fill="#2155B5" d="M61.954 98.374c-.894 7.161-2.218 14.261-3.098 21.425-.078.637-.46 1.642.131 2.134.308.256.723.333 1.118.398 2.813.453 5.656.694 8.506.72 2.15.02 5.298.392 7.22-.794 1.822-1.124 2.302-3.511 2.611-5.626.431-2.941.846-5.893.96-8.867.054-1.392.068-2.8-.113-4.18-.184-1.399-.047-2.823-.277-4.215-.155-.944-.49-1.847-.812-2.749a102.792 102.792 0 0 1-3.17-10.693c-.836-3.51-1.322-7.072-2.002-10.604-.005-.03-.012-.06-.034-.08-.026-.025-.066-.029-.101-.03-1.156-.032-2.226.283-3.363.36-1.059.073-2.127-.027-3.181.096-1.055.123-2.141.512-2.79 1.352-1.04 1.345-1.01 3.389-.937 5 .068 1.494.352 3 .309 4.497-.11 3.967-.485 7.92-.977 11.856Z"/><path fill="#FF9575" d="M52.386 132.821c.022-1.275-.677-2.471-1.317-3.549-.082-.137-.168-.275-.295-.371-.127-.096-.305-.141-.448-.072a.582.582 0 0 0-.219.225c-.776 1.228-.044 1.85.752 2.716.294.32.61.737.466 1.148-.08.227-.285.381-.452.554-.256.265-.441 1.308.238.987.72-.341 1.261-.825 1.275-1.638Z"/><path fill="#111314" d="M52.515 136.627c-.01-.963.115-2.257-.58-3.032-.619-.689-1.75-.89-2.623-.96-2.415-.194-3.363 1.279-3.711 3.466-.092.575.807.688.899.113.117-.74.22-1.574.761-2.135.611-.633 1.532-.619 2.35-.5.83.121 1.634.333 1.903 1.234.171.574.096 1.346.103 1.944.007.579.904.446.898-.13Z"/><path fill="#FF9575" d="M51.507 128.096c-.143.607-.307 1.21-.373 1.829-.101.929.141 1.752.242 2.658.076.678.205 1.579-.377 2.085-.291.253-.688.362-1.075.362-1.092 0-2.155-.657-2.627-1.639-.32-.664-.416-1.413-.462-2.149-.128-2.041 1.025-3.792 1.86-5.593.226-.489.538-1.227 1.054-1.484.71-.354 1.416.138 1.718.774.342.717.337 1.554.212 2.323-.046.28-.107.557-.172.834Z"/><path fill="#0E398A" d="m61.054 156.901-28.368-3.579a.663.663 0 0 1-.574-.738l2.24-17.714a.663.663 0 0 1 .74-.572l28.368 3.579a.663.663 0 0 1 .574.738l-2.24 17.714a.663.663 0 0 1-.74.572Z"/><path fill="#2155B5" d="m63.788 138.596-15.306 5.688a.53.53 0 0 1-.479-.061l-13.408-9.31c-.402-.28-.151-.86.344-.798l28.714 3.623c.496.063.594.687.135.858Z"/><path fill="#2155B5" d="M48.757 143.986c.034-.546-.814-.656-.847-.107a16.43 16.43 0 0 1-.175 1.59c-.086.543.762.649.848.107.084-.527.142-1.057.174-1.59Zm13.368-66.292c-3.123 2.374-5.19 6.134-5.812 10.044-.17 1.067-.248 2.163-.648 3.166-.373.932-1.004 1.733-1.567 2.564a20.293 20.293 0 0 0-3.17 7.832c-.56 3.187-.35 6.478-.99 9.651-1.092 5.432-2.573 10.523-3.045 16.077.504.114 5.983 1.112 5.866 1.445.828-2.372 1.735-4.733 2.506-7.122.61-1.888 1.43-3.532 2.207-5.371 1.173-2.776.716-6.139 2.354-8.668.637-.984 1.549-1.762 2.235-2.712 2.12-2.934 1.812-7.018 3.546-10.195.964-1.766 2.515-3.165 3.418-4.962 1.61-3.202.74-6.825.145-10.154-.468-2.611-1.83-4.312-4.613-3.05-.863.392-1.679.88-2.432 1.455Z"/><path fill="#111314" d="M80.577 101.887a.933.933 0 0 1-.936.935.938.938 0 0 1-.936-.935.934.934 0 0 1 .936-.935.938.938 0 0 1 .936.935Zm0 5.809a.933.933 0 0 1-.936.935.934.934 0 1 1 0-1.87.938.938 0 0 1 .936.935Z"/><path fill="#fff" d="M76.443 67.905c.209.985 1.109 1.654 2.069 1.505.96-.15 1.613-1.06 1.512-2.062l-3.58.557Z"/><path fill="#2155B5" d="M98.006 42.488c-.985 2.803-1.075 6.438-1.59 9.309-.166.93-.337 1.87-.72 2.733-.519 1.17-1.404 2.142-1.988 3.283-1.122 2.192-1.042 4.806-1.902 7.114-1.373 3.688-4.938 6.131-6.76 9.619-1.868 3.572-1.947 8.114-1.477 12.33.17 1.522.411 3 .666 4.376.657 3.55 6.96-3.275 7.969-4.346 3.29-3.492 6.311-7.48 7.41-12.238.308-1.331.458-2.694.727-4.033.288-1.43.712-2.83 1.083-4.24 1.546-5.878 3-12.326 2.872-18.42-.035-1.676-.124-3.35-.162-5.023-2.049.053-4.105-.128-6.128-.464Z"/><path fill="#0E398A" d="M71.909 75.22c-.052.369-.125 1.532-.137 1.65l-.239 2.323-.462 4.492-.081.792 2.928.769-2.262 2.685 7.307 11.127c-.586-2.87-1.163-5.74-1.794-8.602-.586-2.657-1.32-5.257-1.985-7.89-.64-2.54-1.284-5.078-1.932-7.617-.444.011-.886.064-1.317.16-.008.002-.017.043-.026.111Zm11.165 3.782a98.936 98.936 0 0 1-.44-3.546c-.587-.011-1.124-.23-1.665-.48.026.423-.097 1.611-.108 1.766-.049.664-.12 1.327-.215 1.986-.18 1.252-.483 2.475-.71 3.71-.466 2.535-.458 5.147-.578 7.73-.07 1.485-.125 2.97-.185 4.456a415.281 415.281 0 0 1-.148 3.384c-.01.223.066.8-.05.978l4.57-11.055-2.52-2.685c.089.094 1.389-.374 1.53-.412.336-.091.674-.176 1.007-.271.18-.053.367-.066.42-.229.066-.205-.151-.761-.194-.986-.27-1.443-.508-2.892-.714-4.346Z"/><path fill="#110809" d="M243.684 195.228a4.556 4.556 0 0 1-.605 1.001c-1.588 1.987-4.482 2.182-6.792 3.251-1.047.485-2.575 1.888-1.548 3.085.711.83 2.504.754 3.475.685a98.445 98.445 0 0 0 10.24-1.277c.312-.056.64-.12.88-.328.368-.318.416-.862.435-1.348.119-3.122.139-6.247.062-9.37 0-.005-4.308-.109-4.715.072-.901.401-.77 1.145-.875 2.015-.092.762-.247 1.52-.557 2.214Zm26.265 3.972c-.248.27-.553.51-.921.731a27.922 27.922 0 0 1-4.747 2.281c-1.259.464-2.65.91-3.393 2.027-1.685 2.531 1.784 3.147 3.463 3.026a98.19 98.19 0 0 0 10.239-1.277c.312-.055.64-.12.88-.327.369-.319.416-.863.435-1.349.119-3.121.139-6.247.063-9.37.001.036-4.398-.174-4.77.071-.706.468-.365 1.467-.43 2.187-.074.838-.337 1.475-.819 2Z"/><path fill="#D4004A" d="M270.585 131.823c-.383-3.556-1.508-7.501-2.883-10.789-.185-.444-.543-1.623-1.11-1.726-.322-.059-1.406.795-1.751.951-.709.318-1.449.561-2.193.781-1.648.488-3.349.805-4.964 1.404-1.244.462-3.357 1.244-3.917 2.5a92.557 92.557 0 0 0-2.178 5.315c-.603 1.613-1.5 3.311-1.799 5-.26 1.471-.258 2.839-.76 4.325-2.017 5.969-5.58 11.405-6.898 17.565-.56 2.614-.7 5.299-.786 7.971-.326 10.143.102 20.967.852 31.088h8.727c.269-1.908.537-4.485.806-6.393.298-2.128.601-4.269 1.291-6.303.399-1.173.923-2.304 1.245-3.501.962-3.577.085-7.618 1.825-10.889.429-.806 1.002-1.528 1.452-2.323.744-1.312 1.137-2.79 1.48-4.258 1.011-4.323 1.69-8.808 3.778-12.728 1.183-2.222 2.781-3.013 4.468-4.633 1.332-1.278 2.376-3.89 2.783-5.652.583-2.52.81-5.128.532-7.705Z"/><path fill="#FF9575" d="M232.237 74.875c-.437-1.165-.33-2.443-.211-3.659.168-1.718.13-3.45-.111-5.16-.068-.475-.154-.959-.388-1.38-.347-.621-1.392-1.243-2.066-.741-.247.184-.403.464-.54.74-.318.649-.696 1.404-.662 2.136.035.73.262 1.522-.004 2.239-.237.637-.599-.138-.681-.49-.073-.314-.468-1.145-.909-.949-.494.221-.048 1.683.062 2.072.435 1.557 1.294 2.982 1.534 4.596.125.848.068 1.713.154 2.566.147 1.46.681 2.827.925 4.271a26.92 26.92 0 0 1 .346 3.036c.029.532.039 1.065.092 1.595.103 1.033.365 2.043.625 3.049l.847 3.262c.255.985.574 1.876.914 2.822.735 2.044 1.623 3.59 2.949 5.26 1.24 1.561 2.109 3.892 4.445 3.866 1.165-.013 2.624-.451 3.748-.78a12.512 12.512 0 0 0 3.898-1.91c1.933-1.419 3.429-3.445 4.133-5.736.239-.778.387-1.62.167-2.404-.592-2.112-3.037-2.368-4.857-2.089l-3.091.475c-.99.152-2.339 1.126-2.93-.138-1.335-2.857-3.26-5.474-4.759-8.251-1.183-2.192-1.962-4.585-3.008-6.842a21.333 21.333 0 0 1-.622-1.456Z"/><path fill="#F02B66" d="M281.279 135.859c.539-4.777-.847-9.743-3.782-13.552-1.82-2.363-4.378-4.353-7.345-4.68-10.798-1.189-9.667 18.445-9.089 24.87.462 5.128 1.296 10.217 1.68 15.353.267 3.56-.033 7.122-.007 10.668.027 3.606 1.468 7.293 2.19 10.828.301 1.477 2.167 14.225 2.817 20.547h9.189a439.693 439.693 0 0 0 3.124-34.089c.204-3.906.371-7.861.453-11.752.085-4.035-.89-7.983-.321-12.068.285-2.055.858-4.064 1.091-6.125Z"/><path fill="#2155B5" d="M256.093 88.398c-1.577-.385-3.571.012-4.993.271-2.267.414-4.407 1.263-6.612 1.892-.117.042-.236.08-.353.122-.142.05-.285.104-.427.162l-.049.772c.43 4.108 1.106 8.186 1.731 12.27 4.369-1.761 8.182-4.903 10.677-8.9.34-.543.701-1.375.973-2.294.015-.242.02-.485.004-.728-.083-1.231-.605-2.379-.951-3.567Z"/><path fill="#2155B5" d="M252.517 126.542c2.335-.583-2.687-19.687-3.056-21.494-.508-2.48-1.016-4.971-1.153-7.499-.088-1.625.015-3.369.973-4.684.626-.86 1.551-1.444 2.453-2.008 4.714-2.943 8.783-6.787 14.629-7.053.337-.015.684-.019.998.103.626.244.96.91 1.237 1.521 1.369 3.015 1.901 6.306 3.3 9.249 1.43 3.009 2.403 6.008 3.222 9.254 1.675 6.64 3.204 13.369 3.926 20.191-.867-1.798-10.321.278-12.385.519a425.96 425.96 0 0 0-14.144 1.901Z"/><path fill="#FF9575" d="M269.227 86.155c1.066 1.199 1.61 3.06 1.954 4.707.916 4.398 1.836 8.84 1.752 13.332-.049 2.669-.453 5.318-.857 7.957l-2.18 14.264c-.363 2.377-.732 4.754-1.09 7.131-.179 1.19-.122 3.293-.975 4.275-.469.539-1.246.66-1.956.739-3.438.384-6.896.6-10.356.646-.487-1.794.939-3.658 2.675-4.329 1.735-.671 3.671-.458 5.518-.235l-1.495-17.751c-.598-4.174.303-8.553-.623-12.661-.928-4.114-1.179-8.318-1.546-12.553-.119-1.375-.211-2.869.553-4.019.669-1.006 1.851-1.526 2.97-1.984 1.177-.481 2.445-.962 3.69-.7.804.169 1.447.596 1.966 1.18Z"/><path fill="#2155B5" d="M259.659 102.663a61.793 61.793 0 0 1 14.375-.962 75.846 75.846 0 0 0-1.504-10.765c-.459-2.148-1.089-4.41-2.728-5.874-2.836-2.534-8.91-1.868-10.284 1.964-1.6 4.466-.711 11.136.141 15.637Z"/><path fill="#FF9575" d="M258.948 82.713c.152.865.906 4.696.98 5.482.129 1.376-1.567 8.187-2.836 8.52-1.392.365-4.102-4.99-4.251-6.407-.202-1.926-.262-5.836-.264-5.861.392-5.278 5.747-5.279 6.371-1.734Z"/><path fill="url(#e)" d="M258.089 80.664c-.3-.304-.767-.318-1.429-.355-.821-.045-1.672.062-2.357.554-1.104.792-1.852 2.214-1.726 3.584.049.537.056 1.023.132 1.491.078.48.23.94.576 1.417.45.621 1.043 1.123 1.63 1.617.298.252.609.51.985.613.64.176 1.305-.13 1.889-.445 2.995-1.616 1.11-5.195.642-7.7-.069-.37-.182-.615-.342-.776Z"/><path fill="#FF9575" d="M250.593 74.372c.841-.628 2.826.264 3.883.236 1.053.07 2.682.086 3.515.726 1.762 1.355 1.902 4.154 1.24 6.233-.11.348-.317 1.224-.464 1.559-1.163 2.673-3.974 3.323-5.454 3.196-1.768-.152-2.911-1.432-3.504-3.378-.107-.35-.298-1.513-.359-1.873-.373-2.211.257-6.038 1.143-6.699Z"/><path fill="#110809" d="M248.724 70.22c.819-.509 1.903-.66 2.665-.097.832.615 1.17 1.343 2.295 1.283 1.077-.059 1.784-.502 2.89-.07 1.772.69 2.875 2.636 3.086 4.45.152 1.317.076 3.065-.055 4.398-.037.077-.254.175-.315-.128-.128-.639-.152-1.429-.385-2.031-.127-.328-.416-.618-.767-.637-.299-.017-.647.147-.87-.052-.112-.099-.145-.256-.19-.399a1.954 1.954 0 0 0-1.524-1.322c-1.634-.263-3.109.333-4.725.32-2.661-.022-4.844-3.507-2.433-5.482a3.16 3.16 0 0 1 .328-.234Z"/><path fill="#110809" d="M249.184 80.017c.032.31.073.248.23.102.573-1.58.048-4.267 1.252-4.573.09-.023.316-1.04.091-1-.378.07-1.145.301-1.319.589-.573.945-.383 3.622-.254 4.882Z"/><path fill="#FF9575" d="M258.248 80.06c-.013.668.39 1.216.901 1.227.51.01.935-.522.949-1.188.014-.667-.39-1.216-.901-1.227-.51-.01-.935.522-.949 1.189Zm-9.896-.213c-.013.666.39 1.216.901 1.226.51.01.935-.522.949-1.188.014-.667-.39-1.216-.9-1.227-.512-.01-.936.522-.95 1.189Z"/><path fill="#fff" d="M255.15 81.9c.067.97-.592 1.827-1.521 1.942-.929.114-1.777-.558-1.947-1.514l3.468-.427Z"/><path fill="#110809" d="M177.321 180.599c.951 1.418 1.632 2.762 1.38 4.655-.372 2.78-2.644 4.624-3.244 7.323-.054.243-.094.501-.029.763.126.51.628.902 1.117 1.031 2.628.69 4.927-3.167 6.412-4.66l5.606-5.637c.5-.497.432-1.403-.15-2.003l-6.258-6.457-.919-.961c-1.524-1.592-3.809-1.768-5.062-.389-1.084 1.191-.997 3.228.1 4.828.363.526.721 1.02 1.047 1.507ZM199.611 185.246h-1.393v-30.683h1.393v30.683Z"/><path stroke="#110809" stroke-miterlimit="10" stroke-width="2" d="M211.092 191.685c0-4.531-8.027-6.431-12.038-6.439-4.775-.009-12.039 1.749-12.039 6.439m11.904 1.212v-7.526"/><path fill="#110809" d="M185.046 192.778a1.953 1.953 0 0 0 .564 1.415 1.974 1.974 0 0 0 2.167.436 1.968 1.968 0 1 0-2.142-3.218c-.368.361-.58.852-.589 1.367Zm11.938 0a1.973 1.973 0 0 0 1.97 2.004 1.971 1.971 0 0 0 1.83-1.24 1.964 1.964 0 0 0-.45-2.131 1.968 1.968 0 0 0-2.76 0c-.369.361-.58.852-.59 1.367Zm11.94 0a1.953 1.953 0 0 0 .563 1.415 1.971 1.971 0 0 0 3.376-1.415 1.968 1.968 0 0 0-3.35-1.367c-.368.361-.58.852-.589 1.367Z"/><path fill="#fff" d="M200.268 144.262v-22.576a7.08 7.08 0 0 1 7.083-7.075h7.8c3.912 0 7.084 3.168 7.084 7.075v25.239c0 5.574-4.567 10.135-10.148 10.135h-25.43a1.193 1.193 0 1 1 0-2.385h3.184c5.758.001 10.427-4.662 10.427-10.413Z"/><path fill="#110809" d="M173.324 191.595c-.304 1.68-.751 3.12-2.25 4.304-2.204 1.74-5.119 1.486-7.43 3.01-.208.137-.417.295-.552.528-.265.453-.177 1.084.084 1.516 1.409 2.321 5.746 1.146 7.853 1.104l7.954-.156c.705-.011 1.287-.709 1.287-1.544l-.001-8.986.008-1.329c.013-2.203-1.506-3.916-3.366-3.796-1.608.103-2.964 1.628-3.289 3.539-.107.632-.195 1.235-.298 1.81Z"/><path fill="#FF9575" d="M187.105 122.404c-1.523 1.482-3.311 2.534-5.562 2.36-1.68-.129-3.197-1.008-4.648-1.865-3.05-1.801-4.993-4.905-6.889-7.778-2.619-3.969-6.01-7.552-7.742-12.047-.855-2.217-1.455-4.104-1.275-6.524.174-2.356.77-4.736.242-7.09-.178-.79-1.082-3.214.075-3.65 1.061-.401 2.059 1.323 2.285 2.078.269.898.267 1.85.345 2.784.339 4.042 2.023 9.591 5.342 12.192 1.076.843 2.422 1.263 3.566 2.011 2.247 1.469 3.494 4.03 5.338 5.979.449.475.983.937 1.633 1.004 1.901.198 2.172-2.061 2.914-3.204 1.434-2.211 5.17-4.871 7.911-4.264 1.871.415 3.395 2.081 3.64 3.979.106.82-.006 1.651-.119 2.469-.11.804-.222 1.614-.473 2.385-.49 1.505-1.482 2.786-2.457 4.034-1.235 1.581-2.535 3.598-4.126 5.147Z"/><path fill="#7A483A" d="m189.932 131.207-.002-.001c.009-.031.014-.063.022-.094l-.02.095Zm.085-.374a3.32 3.32 0 0 1-.065.279l.075-.358c-.004.026-.005.053-.01.079Z"/><path fill="#BFE464" d="M195.72 104.748c-.022 1.602-.175 3.157-.177 4.028-.002 1.082-.02 2.175-.27 3.228-.22.925-.615 1.799-1.033 2.653-1.277 2.613-2.754 5.428-4.679 7.619-.83-1.096-1.844-2.278-2.583-3.497-1.127-1.86-2.205-3.749-3.284-5.637-.596-1.042-2.442-2.973-2.105-4.134.243-.837 3.128-2.917 3.833-3.798 1.63-2.037 5.034-5.697 7.866-5.914 2.128-.163 2.471 2.714 2.432 5.452Z"/><path fill="#0E398A" d="M160.857 149.259a5.957 5.957 0 0 1 1.525-3.976c2.028-2.233 5.299-2.726 8.296-3.084l12.201-1.456c6.956-.83 14.415-1.574 20.605 1.702 4.247 2.247 5.709 7.457 1.628 10.761-2.27 1.839-5.286 2.404-8.165 2.908l-12.33 2.16c-3.627.636-7.851 1.981-11.186-.271-.884-.596-1.645-1.398-2.635-1.795-2.819-1.133-7.985-1.743-9.458-4.81a4.993 4.993 0 0 1-.481-2.139Z"/><path fill="#0E398A" d="M166.355 143.011c1.2-.291 2.515-.412 3.922-.4 3.824.032 6.576 3.901 4.596 7.463-.429.772-1.068 1.464-1.211 2.336-.131.799.183 1.598.49 2.347 3.35 8.152 8.484 16.939 9.407 25.729-2.424 1.214-9.59 1.951-10.997-.505l-3.74-6.535c-.789-1.378-1.581-2.761-2.556-4.013-1.2-1.543-2.662-2.867-3.863-4.409-3.374-4.331-4.438-10.358-2.748-15.58 1.215-3.754 3.572-5.673 6.7-6.433Z"/><path fill="#2155B5" d="M176.343 152.03c4.662-6.467 14.542-5.551 18.327-13.11.122-.244.239-.495.417-.701.581-.68 1.604-.707 2.499-.704 5.073.019 10.105-.74 15.092-1.601 2.966-.513 2.922-.055 3.989 2.698.796 2.054 1.495 4.161 1.691 6.369.269 3.021-.531 6.296-2.796 8.318-1.229 1.099-2.787 1.75-4.319 2.362a200.164 200.164 0 0 1-22.703 7.535c-1.446.385-2.915.757-4.411.745-2.866-.023-5.678-1.561-7.238-3.963-2.202-3.386-2.009-5.922-.548-7.948Z"/><path fill="#BFE464" d="M190.177 101.74c.434-.668 1.014-1.293 1.774-1.868 2.496-1.886 6.076-1.711 9.034-1.807 3.098-.1 6.452.134 9.351 1.31 2.969 1.205 3.588 2.465 3.676 5.4.117 3.906 1.289 7.841 1.726 11.741.712 6.336.841 12.723.387 19.082-.183 2.473-.401 2.489-2.83 2.827-5.68.789-13.254 2.434-18.886.834-.298-10.061-3.695-19.757-5.108-29.723-.415-2.929-.551-5.6.876-7.796Z"/><path fill="#FF9575" d="M201.306 104.698a5.175 5.175 0 0 0 2.171-1.631c2.313-3.008.106-5.057-.027-8.104-.096-2.217 1.44-4.435.731-6.538-.14-.414-.546-.864-.937-.669-.136.068-.225.2-.309.325-1.942 2.924-4.521 2.685-7.862 3.287.432-.078.534 7.223.435 7.72-.113.563-.268 1.122-.295 1.695-.087 1.894 1.378 3.694 3.22 4.15.952.236 1.961.131 2.873-.235Z"/><path fill="url(#f)" d="m203.496 93.077-7.346.359.603 5.418c2.454 1.291 8.083.917 6.743-1.76v-4.017Z"/><path fill="#FF9575" d="M197.823 96.15c.989.075 1.945-.359 2.833-1.121.771-.662 1.409-1.462 2.146-2.16.442-.42.926-.81 1.263-1.317.447-.676.596-1.499.736-2.296.175-.994.482-1.897.255-2.92-.128-.576-.413-1.103-.71-1.61a27.318 27.318 0 0 0-1.395-2.146c-1.005-1.397-2.667-2.591-4.479-1.915-.85.317-1.536 1.004-1.945 1.813-.544 1.077-.621 2.333-1.098 3.441-.157.365-.356.71-.534 1.066-.739 1.478-1.342 3.352-.96 5.005.328 1.42 1.064 2.782 2.31 3.594.531.346 1.059.526 1.578.565Z"/><path fill="#110809" d="M206.506 85.018c-1.085-.43-1.11-1.012-1.408-2.069-.307-1.084-1.104-1.998-2.084-2.556-.981-.559-2.131-.78-3.259-.75-.899.023-1.808.208-2.595.644-.788.437-1.444 1.142-1.718 1.999-.113.354-.158.743-.042 1.095.286.872 1.564 1.226 2.325 1.526.872.343 1.764.654 2.593 1.094 1.62.858 2.41 2.177 1.597 3.955-.3.658-.396 1.805-1.476 1.529-.321-.082-.541-.363-.756-.614-.432-.504-.944-.95-1.546-1.232-.655-.308-1.256-.28-1.957-.267-.572.01-1.221.186-1.778.066-.234-.05-.149-.421-.451-.415-.189.004-.281.228-.326.41l-.506 2.057c-.285 1.156-.565 2.704-.04 3.83.405.868 1.167 1.497 2.019 1.906 1.649.792 3.998.98 5.567-.11 1.165-.81 1.467-2.102 2.441-3.01.86-.8 2.558-.925 3.041-2.084.297-.71-.074-1.566.215-2.283.658-1.627 3.369-3.446.144-4.721Zm-11.977 8.012a.694.694 0 0 1-.146-.245c-.201-.565.124-1.203.594-1.575.825-.654 2.105-.651 2.926.007.515.414 1.137.98 1.196 1.675.027.311-.072.644-.309.85-.305.263-.778.26-1.141.082-.581-.286-.73-.949-1.472-.687-.439.156-.479.331-.95.228-.262-.057-.525-.145-.698-.335Z"/><path fill="#FF9575" d="M203.014 89.673a2.29 2.29 0 0 0-.237.283c-.338.477-.72 1.291-.779 1.873.308.124.706.286 1.041.22.252-.05.478-.19.674-.356a2.653 2.653 0 0 0 .904-1.656c.027-.204.025-.428-.094-.595-.167-.236-.508-.278-.787-.205a1.611 1.611 0 0 0-.722.436Z"/><path fill="#fff" d="M198.499 92.829s-1.006.631-2.147.168c-1.304-.53-1.38-1.607-1.38-1.607"/><path fill="#FF9575" d="M217.12 132.828c.455-.05.911-.08 1.368-.089-1.421-1.8-3.268-3.234-4.663-5.055-1.567-2.046-1.403-4.085-2.143-6.378-.61-1.894-1.81-3.563-2.405-5.49-1.447-4.684.312-13.097 7.102-11.041 1.929.584 3.449 2.128 4.436 3.884.987 1.755 1.508 3.726 2.02 5.673l3.266 12.433c.488 1.856.852 3.762 1.305 5.605.635 2.587 2.212 5.487-1.46 6.523-2.208.624-4.517.778-6.806.928-4.289.283-8.605.735-12.902.85-2.611.07-5.113-.748-7.685-1.038-2.239-.252-4.391.535-6.583.164-.92-.156-1.9-.834-1.843-1.765.033-.525.394-.974.799-1.311 1.634-1.357 4.022-1.356 6.082-.83.467.12.942.264 1.423.228.503-.037.967-.267 1.432-.462 2.973-1.248 5.635-.267 8.578-.722 2.949-.456 5.691-1.778 8.679-2.107Z"/><path fill="#BFE464" d="M206.459 113.523c-.048-.155-.094-.31-.14-.466-.681-2.291-1.233-4.699-.838-7.055.395-2.358 1.94-4.661 4.244-5.305 1.485-.415 3.09-.104 4.515.483 3.523 1.452 6.087 4.482 7.736 7.835.782 1.59 1.832 3.471.985 4.741-1.044 1.564-13.57 7.511-13.058 8.574a62.186 62.186 0 0 1-3.444-8.807Z"/><path fill="#2155B5" d="M176.617 152.311c-2.915 5.461-1.562 12.168-2.128 18.059a388.898 388.898 0 0 1-2.81 22.385 35.774 35.774 0 0 1 11.266.904c2.106-7.187 4.224-14.423 4.994-21.872.236-2.274.35-4.587 1.043-6.767.841-2.643 2.508-5.003 3.056-7.722.695-3.455-2.268-9.102-6.012-9.526-3.171-.359-7.869 1.651-9.409 4.539Z"/><path fill="#fff" d="M140.924 138.452h35.432v-.23c0-.556-.451-1.007-1.008-1.007h-34.424v1.237Z"/><path fill="#FFF5F5" d="M134.837 137.215h35.406l-6.315-18.677c-.217-.641-.861-1.079-1.59-1.079h-31.917c-1.124 0-1.925 1.005-1.591 1.993l6.007 17.763Z"/><path fill="#C9CDD1" d="M170.413 138.452h-35.576v-1.237h35.576v1.237ZM147.51 127.107c.114.754.858 1.201 1.655 1.134.799-.066 1.49-.64 1.441-1.413-.051-.79-.788-1.462-1.649-1.454a.265.265 0 0 0-.135.036.262.262 0 0 0-.139-.001c-.79.198-1.285.957-1.173 1.698Zm1.31-1.245a.27.27 0 0 0 .066-.027.27.27 0 0 0 .056.008c.414.021.806.199.999.537.467.812-.188 1.369-.879 1.399-1.291.055-1.39-1.63-.242-1.917Z"/><path fill="#006149" d="m232.049 107.278-.003-.043c-.088-1.246.781-2.451.538-3.676-.025-.131-.074-.272-.189-.337-.196-.111-.431.061-.571.237-.858 1.075-.774 2.493-.614 3.776.172 1.38-.506 2.499-.725 3.85-.153.942.022 1.793-.173 2.708-.231 1.078-.365 2.052-.019 3.134.146.456.36.914.318 1.391-.052.582-.471 1.057-.694 1.596-.595 1.441.227 3.253-.593 4.579-.085.138-.213.279-.374.271-.196-.01-.306-.225-.374-.409-.925-2.525-1.85-5.373-1.477-8.093.082-.595.234-1.181.274-1.78.037-.551-.02-1.103-.078-1.652l-.407-3.887c-.025-.237-.054-.486-.193-.681-.139-.194-.426-.303-.624-.169-.139.095-.189.275-.218.442-.226 1.314.274 2.655.156 3.983-.066.745-.325 1.458-.467 2.192-.315 1.619.199 3.728.503 5.336.22 1.144.323 2.318.486 3.471.088.622.353 1.224.419 1.835.051.471-.341 2.025-.801.926a3.165 3.165 0 0 1-.236-1.429c.017-.257.066-.515.036-.77-.031-.256-.163-.52-.402-.618-.244-.101-.54-.008-.775-.128-.274-.138-.342-.489-.38-.792-.114-.915-.223-1.871.096-2.735.102-.274.245-.535.297-.822.126-.698-.435-1.005-.563-1.603-.12-.563.317-1.052.387-1.588a1 1 0 0 0-.561-1.009c-.112-.05-.241-.085-.317-.181-.108-.138-.064-.337-.011-.503.108-.332.233-.657.376-.975.405-.899-.726-1.652-1.398-.931-.296.318-.295.803-.277 1.238.112 2.645.225 5.304.756 7.898.364 1.78.929 3.533 1.795 5.135.404.746.99 1.418 1.346 2.169.514 1.083.855 2.603 2.44 2.281.889-.181 1.568-.885 2.138-1.589.849-1.052 1.62-2.475 1.034-3.692-.159-.331-.411-.618-.528-.967-.096-.288-.094-.6-.082-.904.039-1.068.172-2.131.395-3.177.256-1.201.769-2.624.408-3.855-.308-1.047-.662-1.873-.385-3.027.283-1.182 1.196-2.21 1.163-3.423-.027-1.045-.76-1.963-.852-3.003Z"/><path fill="#40A876" d="M232.151 131.701c1.545-1.255 2.441-3.486 2.199-5.362-.124-.956-.444-2.071.21-2.781.219-.238.524-.389.727-.642.494-.613.202-1.52-.149-2.225-.622-1.246-.965-2.472-.105-3.657.664-.914 1.789-1.555 2.028-2.736.32-1.58-1.289-3.291-.486-4.69.221-.386.595-.659.87-1.009a2.426 2.426 0 0 0 .362-2.303c-.179-.483-.641-1.139-1.166-1.297-.752-.226-.746.127-1 .851a10.639 10.639 0 0 0-.579 4.13c.126 2.109-.709 4.446-1.047 6.531a90.165 90.165 0 0 1-.626 3.382c-.14.693-.242 1.419-.45 2.093-.104.337-.617 1.006-.591 1.314-.232-2.719 1.147-5.305 1.498-8.013.031-.239.051-.497-.064-.709-.09-.166-.252-.281-.362-.434-.551-.765.177-2.545.291-3.441.197-1.547.265-3.12.38-4.675.139-1.883.406-3.695.181-5.601-.009-.073-.021-.151-.074-.201-.081-.074-.22-.041-.292.04-.073.082-.097.195-.114.303-.441 2.753-.561 5.566-.994 8.34-.471 3.017-.809 6.04-1.149 9.074-.327 2.926-1.045 5.831-1.392 8.772-.075.642-.295 1.447-.937 1.526-.57.071-1.005-.544-1.077-1.113-.192-1.528 1.128-2.782 1.7-4.211.417-1.045.43-2.218.205-3.32-.229-1.126-.665-2.406.014-3.334.273-.373.698-.628.914-1.036.16-.305.186-.66.2-1.004a22.47 22.47 0 0 0-.099-3.24c-.097-.936-.447-1.947-.367-2.88.157-1.831.666-3.62.565-5.483-.086-1.609-1.365.889-1.402 1.539-.048.851.099 1.71-.019 2.553-.134.953-.605 1.882-.454 2.833.02.124.05.254.011.373-.04.119-.183.214-.293.152-.055-.031-.086-.093-.109-.152-.636-1.612.877-4.478-.463-5.818-1.06 1.312-.804 4.313-.732 5.915.184 4.099.881 8.257.097 12.335-.056.291-.132.603-.358.796-.375.322-.992.14-1.311-.237-.319-.377-.425-.883-.552-1.36-.126-.477-.307-.98-.71-1.265-.41.427-.511 1.072-.433 1.658.078.586.311 1.138.489 1.702a9.5 9.5 0 0 1 .443 2.999c-.016 1.064-.203 2.171.186 3.162.651 1.661 3.527 3.232 5.211 2.557a4.614 4.614 0 0 0 1.175-.701Z"/><path fill="#0E398A" d="m222.323 126.631 13.896.235-3.658 11.84-7.939.11-2.299-12.185Z"/><path fill="#fff" d="M21.293 138.497h275.355v2.821H21.292v-2.821Z"/><path fill="#fff" d="M268.501 139.929h2.68v73.625h-2.68v-73.625Zm-24.678 73.033h-2.681l17.307-73.033h2.68l-17.306 73.033Zm-172.347 0h2.68l-17.305-73.033H54.17l17.306 73.033ZM44.67 139.929h2.68v73.625h-2.68v-73.625Z"/><path fill="#138F70" d="M43.236 198.454c-.054.43-.101.861-.14 1.293-.136 1.525-.411 3.281-1.731 4.059-1.184.697-2.79.238-3.75-.742-.962-.981-1.398-2.356-1.66-3.703-.67-3.49-.38-7.097.841-10.435.758-2.059 2.914-5.189 2.668-7.411-.26-2.346-3.026-3.708-3.134-6.22-.119-2.793 2.4-5.153 3.845-7.293.523-.772.975-1.638 1.008-2.57.117-3.282-4.638-4.945-4.958-8.213-.394-4.034 5.189-5.654 5.243-9.503.03-2.076-1.81-4.244-1.629-6.713.18-2.439 1.137-4.837 2.82-6.629.666-.707 1.619-1.367 2.54-1.062.921.305 1.296 1.424 1.282 2.393-.013.968-.279 1.947-.082 2.896.59 2.846 2.552 3.87 2.304 7.11-.14 1.82-.78 3.736-1.6 5.35-2.934 5.77-2.055 5.096 1.449 10.084 1.846 2.628 1.847 6.414.001 9.042-1.07 1.525-2.741 2.809-2.928 4.662-.088.863.169 1.679.504 2.489.389.94.883 1.874 1.065 2.867.259 1.41-.127 2.849-.51 4.23-1.306 4.719-2.84 9.225-3.448 14.019Z"/><path fill="#47BA9B" d="m31.574 193.952-.785-5.396c-.23-1.587-.47-3.203-1.183-4.639-.635-1.279-1.621-2.365-2.202-3.669-1.258-2.827-.413-6.103.521-9.052.65-2.047 1.338-4.246.701-6.297-.333-1.074-1.005-2.005-1.57-2.978-1.137-1.964-3.254-6.646-1.923-8.969 2.265-3.952 4.442-.189 4.601 2.518a10.967 10.967 0 0 0 2.73 6.587c.924 1.038 2.076 1.943 2.586 3.235 1.347 3.419-2.476 6.9-2.173 10.562.241 2.917 2.974 4.966 4.07 7.68 2.026 5.014 3.436 12.309 2.035 17.61-.242.919-.616 1.879-1.407 2.407-1.262.843-3.08.173-3.996-1.036-.917-1.208-1.164-2.778-1.382-4.279-.207-1.427-.414-2.856-.623-4.284Z"/><path fill="#2155B5" d="M39.77 218.105a9.829 9.829 0 0 1-6.51-2.464 9.806 9.806 0 0 1-3.241-6.154l-1.513-12.328h22.31l-1.275 12.157a9.822 9.822 0 0 1-9.771 8.789Z"/><path fill="#47BA9B" d="M43.563 192.235c.194-1.865.018-3.875.993-5.476 1.292-2.12 4.343-3.045 4.88-5.467.526-2.371-1.748-4.916-.69-7.103.887-1.832 3.62-2.18 4.46-4.034.74-1.636-.375-3.46-.668-5.231-.355-2.142.644-4.448 2.448-5.659.36-.242.773-.448 1.207-.425 1.163.061 1.602 1.653 1.194 2.742-.407 1.089-1.297 1.954-1.656 3.059-.967 2.977 2.074 6.805-.106 9.054-.648.668-1.608.949-2.287 1.585-2.262 2.116-.016 6.13-1.358 8.921-.898 1.868-3.197 2.72-4.176 4.547-.633 1.182-.617 2.588-.83 3.912-.229 1.432-.782 2.872-1.869 3.835-1.143 1.014-2.76 1.482-3.04-.296-.144-.928 1.38-2.824 1.498-3.964Z"/><path fill="url(#g)" d="M31.598 205.089c2.512-.584 5.03-1.133 7.488-1.811 3.78-1.04 7.547-2.129 11.298-3.268l.138-.053.294-2.798h-22.31l1.033 8.421c.685-.168 1.372-.331 2.06-.491Z"/><path fill="#2155B5" d="M52.154 198.496h-24.54l-1.34-5.348h26.773l-.892 5.348Z"/><path fill="#138F70" d="M275.641 188.844c-.742-2.875-1.738-5.885-.929-8.742.539-1.904 1.838-3.526 2.368-5.433.861-3.103-.433-6.443.133-9.612.539-3.015 2.672-5.478 3.821-8.317 1.512-3.738 1.263-7.975 2.544-11.797.412-1.228 1.033-2.467 2.129-3.161 1.095-.693 2.758-.615 3.485.458.414.613.452 1.4.422 2.139-.326 7.947-6.776 15.085-5.597 22.951.336 2.238 1.29 4.496.726 6.688-.558 2.172-2.479 3.723-3.404 5.767-1.012 2.235-.742 4.815-.414 7.245.328 2.431.682 4.981-.189 7.275-.451 1.191-4.178 5.297-5.484 3.163-.154-.253.99-3.253 1.024-3.819.097-1.61-.235-3.256-.635-4.805Z"/><path fill="#47BA9B" d="M272.683 192.307a5.808 5.808 0 0 0-.006-.185c-.095-1.893-1.419-3.496-2.845-4.748-2.362-2.076-4.606-7.475-5.02-10.616-.285-2.16.084-4.356-.081-6.527-.254-3.357-1.756-6.471-2.76-9.684a33.397 33.397 0 0 1-1.508-9.155c-.029-1.226.128-2.67 1.185-3.297.867-.513 2.04-.212 2.783.468.744.681 1.139 1.657 1.429 2.62 1.448 4.799.902 10.125 2.979 14.687.948 2.082 2.428 3.965 2.853 6.212.462 2.444-.39 5.019.219 7.43 1.021 4.04 4.976 6.33 5.3 10.701.037.492.036.992.175 1.464.214.728.734 1.318 1.152 1.952 1.086 1.645 2.816 5.263 1.053 6.703-3.218 2.631-6.998-2.939-7.058-5.683-.02-.782.158-1.56.15-2.342Z"/><path fill="#47BA9B" d="M282.759 186.804c.32-1.086.651-2.195 1.306-3.119 1.213-1.711 3.46-2.691 4.097-4.689.263-.826.204-1.716.311-2.577.189-1.534.962-3.03 2.236-3.906 1.274-.878 3.061-1.043 4.385-.243 1.714 1.038 2.237 3.241 2.561 5.216 1.009 6.139 1.522 12.792-1.469 18.249-.137.251-.291.508-.536.658-.696.427-1.559-.269-1.942-.99-1.841-3.47.459-8.06-1.356-11.544-.144-.276-.36-.569-.671-.583-.247-.011-.461.163-.626.347-.922 1.033-1.034 2.601-1.947 3.642-.824.939-2.16 1.29-3.017 2.199-.715.759-1.009 1.81-1.277 2.818-.486 1.816-1.012 9.103-3.701 5.942-2.349-2.763.802-8.553 1.646-11.42Z"/><path fill="#2155B5" d="M278.516 219.069h-.375c-5.238 0-9.653-3.901-10.29-9.094l-1.652-13.458h24.022l-1.394 13.277c-.553 5.272-5.004 9.275-10.311 9.275Z"/><path fill="url(#h)" d="M277.591 203.105a482.843 482.843 0 0 0 12.165-3.519l.149-.058.316-3.012h-24.022l1.113 9.067c3.431-.844 6.909-1.548 10.279-2.478Z"/><path fill="#2155B5" d="M291.662 197.957h-26.424l-1.441-5.759h28.826l-.961 5.759Z"/><mask id="i" width="27" height="42" x="221" y="169" maskUnits="userSpaceOnUse" style="mask-type:luminance"><path fill="#fff" d="M238.916 198.457c.141-.996.483-1.888 1.267-2.347 1.12-.654 2.613-.108 3.915-.351 3.659-.683 3.63-5.784 3.556-8.593a147.476 147.476 0 0 0-.241-5.358c-.029-.473-.068-.966-.314-1.371-.443-.73-1.456-.943-2.278-.708-1.601.457-2.5 2.184-2.784 3.823-.284 1.638-.145 3.343-.576 4.949-.08.301-.183.601-.356.861-.2.296-.476.532-.8.683-.468.222-1.052.259-1.488-.021-.505-.324-.42-.731-.418-1.223.004-.587-.081-1.192-.151-1.791a194.872 194.872 0 0 1-.416-4.036c-.248-2.646-.464-5.296-.741-7.939-.127-1.213-.263-2.459-.869-3.545-2.621-4.699-6.614-.571-6.981 2.855-.835 7.796 3.231 15.147 2.89 22.884-.015.326-.031.662-.18.958-.612 1.218-2.567 1.005-3.471.302-1.417-1.101-.91-3.487-.912-4.922-.001-1.172-.377-2.496-1.511-3.045-1.287-.622-2.966.125-3.7 1.273-.945 1.482-.84 4.02-.699 5.669.103 1.192.387 2.399 1.087 3.41.701 1.01 1.871 1.8 3.178 1.878.757.046 1.62-.114 2.193.339.7.551.449 1.56.476 2.402.055 1.673 1.482 3.103 3.148 3.807 1.666.703 3.545.821 5.377.929 1.553-2.489 1.657-5.358 1.737-8.14.029-.925-.118-2.363.062-3.632Z"/></mask><g mask="url(#i)"><path fill="#138F70" d="M238.916 198.457c.141-.996.483-1.888 1.267-2.347 1.12-.654 2.613-.108 3.915-.351 3.659-.683 3.63-5.784 3.556-8.593a147.476 147.476 0 0 0-.241-5.358c-.029-.473-.068-.966-.314-1.371-.443-.73-1.456-.943-2.278-.708-1.601.457-2.5 2.184-2.784 3.823-.284 1.638-.145 3.343-.576 4.949-.08.301-.183.601-.356.861-.2.296-.476.532-.8.683-.468.222-1.052.259-1.488-.021-.505-.324-.42-.731-.418-1.223.004-.587-.081-1.192-.151-1.791a194.872 194.872 0 0 1-.416-4.036c-.248-2.646-.464-5.296-.741-7.939-.127-1.213-.263-2.459-.869-3.545-2.621-4.699-6.614-.571-6.981 2.855-.835 7.796 3.231 15.147 2.89 22.884-.015.326-.031.662-.18.958-.612 1.218-2.567 1.005-3.471.302-1.417-1.101-.91-3.487-.912-4.922-.001-1.172-.377-2.496-1.511-3.045-1.287-.622-2.966.125-3.7 1.273-.945 1.482-.84 4.02-.699 5.669.103 1.192.387 2.399 1.087 3.41.701 1.01 1.871 1.8 3.178 1.878.757.046 1.62-.114 2.193.339.7.551.449 1.56.476 2.402.055 1.673 1.482 3.103 3.148 3.807 1.666.703 3.545.821 5.377.929 1.553-2.489 1.657-5.358 1.737-8.14.029-.925-.118-2.363.062-3.632Z"/><path stroke="#47BA9B" stroke-miterlimit="10" stroke-width=".5" d="M233.986 169.661c1.864 12.929 3.473 26.088 1.177 38.959m-2.969-39.046c-.526 2.408-1.055 4.835-1.043 7.29.022 4.681 1.997 9.157 2.773 13.785.866 5.169.224 10.437-.419 15.634"/><path stroke="#47BA9B" stroke-miterlimit="10" stroke-width=".5" d="M236.24 192.395c2.253-.322 4.945-.647 6.369-2.45.203-.257.38-.537.474-.842.377-1.224.189-2.61.183-3.867-.005-1.205.022-3.319.022-4.883m-9.083 20.628c-2.025.33-4.265.625-6.011-.368-1.068-.607-1.793-1.635-2.176-2.729-.383-1.094-.455-2.258-.448-3.407.008-1.251.106-2.503.32-3.739"/><path stroke="#47BA9B" stroke-miterlimit="10" stroke-width=".5" d="M236.264 194.462a36.806 36.806 0 0 0 7.511-1.938c.508-.191 1.027-.402 1.399-.772.399-.395.585-.928.742-1.446.355-1.17.504-9.172.112-11.126"/></g><path fill="#FAD100" d="m226.669 205.944 15.164-.322-.827 6.753a6.679 6.679 0 0 1-6.632 5.861 6.682 6.682 0 0 1-4.317-1.582 6.664 6.664 0 0 1-2.27-3.995l-1.118-6.715Z"/><path fill="#7B6ED5" d="M208.787 56.868a9.361 9.361 0 0 0 0-13.251c-3.664-3.66-9.605-3.66-13.268 0a9.362 9.362 0 0 0 0 13.251c3.664 3.66 9.604 3.66 13.268 0Z"/><path stroke="#fff" stroke-miterlimit="10" d="M202.155 44v7.58L199 46.5m-26.75 84.059 5.01-3.06h24.369c2.492 0 4.512-2.028 4.512-4.532v-3.94c0-2.503-2.02-4.532-4.512-4.532h-24.866c-2.492 0-4.512 2.029-4.512 4.532l-.001 11.532Z"/><path fill="#fff" d="M185.387 120.997a.954.954 0 0 1-.952.956.954.954 0 0 1-.952-.956c0-.528.426-.956.952-.956s.952.428.952.956Zm5.712 0a.954.954 0 0 1-.952.956.954.954 0 0 1-.952-.956c0-.528.426-.956.952-.956s.952.428.952.956Zm5.712 0a.954.954 0 0 1-.952.956.954.954 0 0 1-.952-.956c0-.528.426-.956.952-.956s.952.428.952.956Z"/><path stroke="#fff" stroke-miterlimit="10" d="m234.574 66.975 5.01-3.06h24.369c2.492 0 4.512-2.029 4.512-4.532v-3.94c0-2.503-2.02-4.532-4.512-4.532h-24.866c-2.492 0-4.512 2.029-4.512 4.532v11.532h-.001Z"/><path fill="#fff" d="M247.711 57.413a.954.954 0 0 1-.952.956.954.954 0 0 1-.951-.956c0-.528.426-.956.951-.956.526 0 .952.428.952.956Zm5.712 0a.954.954 0 0 1-.952.956.954.954 0 0 1-.951-.956c0-.528.426-.956.951-.956.526 0 .952.428.952.956Zm5.712 0a.954.954 0 0 1-.952.956.954.954 0 0 1-.951-.956c0-.528.426-.956.951-.956.526 0 .952.428.952.956Z"/><path stroke="#fff" stroke-miterlimit="10" d="M72.72 41.234a38.607 38.607 0 0 1 1.744 7.548m5.198-9.876-1.452 8.42m8.757-4.345a12.16 12.16 0 0 0-2.63 3.765"/></g><defs><linearGradient id="d" x1="73.862" x2="78.43" y1="64.426" y2="77.059" gradientUnits="userSpaceOnUse"><stop offset=".265" stop-color="#371B85" stop-opacity=".915"/><stop offset=".555" stop-color="#F26D5A" stop-opacity="0"/></linearGradient><linearGradient id="e" x1="257.011" x2="254.932" y1="78.055" y2="92.958" gradientUnits="userSpaceOnUse"><stop offset=".265" stop-color="#371B85" stop-opacity=".915"/><stop offset=".555" stop-color="#F26D5A" stop-opacity="0"/></linearGradient><linearGradient id="f" x1="201.637" x2="198.069" y1="88.689" y2="103.37" gradientUnits="userSpaceOnUse"><stop offset=".265" stop-color="#371B85" stop-opacity=".915"/><stop offset=".555" stop-color="#F26D5A" stop-opacity="0"/></linearGradient><linearGradient id="g" x1="39.322" x2="41.639" y1="194.398" y2="213.341" gradientUnits="userSpaceOnUse"><stop stop-color="#201B59" stop-opacity=".915"/><stop offset=".555" stop-color="#2D3A8D" stop-opacity="0"/></linearGradient><linearGradient id="h" x1="277.845" x2="280.34" y1="193.544" y2="213.94" gradientUnits="userSpaceOnUse"><stop stop-color="#201B59" stop-opacity=".915"/><stop offset=".555" stop-color="#2D3A8D" stop-opacity="0"/></linearGradient><clipPath id="a"><path fill="#fff" d="M0 0h328v224H0z"/></clipPath></defs></svg>