<svg xmlns="http://www.w3.org/2000/svg" width="328" height="224" fill="none"><g clip-path="url(#a)"><rect width="328" height="224" fill="#F0F5FF" rx="12"/><g clip-path="url(#b)"><path fill="#8BA9F5" fill-rule="evenodd" d="m193.026 143.832-8.149-24.45h-26.14l6.621 24.45h27.668Zm12.448 37.32-8.153-24.452h-28.472l6.633 24.452h29.992Zm12.436 37.321-8.152-24.453H178.97l6.625 24.453h32.315Zm-107.82 0 8.154-24.453h30.787l-6.621 24.453h-32.32Zm28.95-116.798L86 250h13.578l6.223-18.66h33.12L133.859 250h13.579l14.105-57.15-5.804-23.547-3.218 11.847h-29.988l8.148-24.451h21.943l-3.174-12.869h-14.476l8.154-24.45h.281l-4.369-17.706v.001ZM141.812 93h9.774l3.663 13.513h25.341L176.083 93h9.774l56.144 157h-13.577l-6.224-18.66h-33.115l5.062 18.66h-13.585l-38.75-157Z" clip-rule="evenodd"/></g><g clip-path="url(#c)"><path fill="#FCAB28" d="M149.687 54.798c-.167-.049-4.154-1.24-10.701-6.854-6.763-5.802-6.98-15.383-6.986-15.787a1.248 1.248 0 0 1 .348-.883c.228-.235.539-.371.866-.374l11.607-.138.029 2.477-10.296.122c.292 2.616 1.452 8.775 6.026 12.697 6.075 5.21 9.752 6.348 9.788 6.36l-.681 2.38ZM179.313 54.798l-.676-2.382c.03-.009 3.707-1.147 9.783-6.357 4.573-3.922 5.734-10.08 6.026-12.697l-10.296-.122.029-2.477 11.607.138c.327.004.638.139.866.374.228.235.353.554.348.883-.006.404-.222 9.986-6.987 15.787-6.546 5.614-10.534 6.806-10.701 6.854l.001-.001Z"/><path fill="#FFCF3F" d="M144.29 30.9s-1.503-.55-1.503-2.064c0-1.513-.273-2.202 1.093-3.578C145.246 23.88 155.579 22 163.908 22c8.33 0 19.709 2.294 21.075 3.532 1.366 1.239.82 4.542.547 5.091-.273.551-1.366.413-1.366.413L144.29 30.9Z"/><path fill="#FFD733" d="M163.818 26.633c-5.142 0-15.978.689-19.938 3.579 0 0 0 14.862 4.097 22.432 4.097 7.569 11.334 13.762 11.334 13.762h9.832s7.238-6.193 11.334-13.763c4.096-7.569 4.096-22.431 4.096-22.431-4.37-2.89-15.614-3.579-20.755-3.579Z"/><path fill="#FFE266" d="M163.818 26.633c-5.142 0-15.978.689-19.938 3.579 0 0 0 14.862 4.097 22.432 1.941 3.585 4.586 6.86 6.833 9.317 1.573.672 3.38 1.096 5.457 1.14 12.563.276 15.84-10.459 17.206-14.311 2.152-6.071 3.376-15.603 3.858-20.028-5.279-1.682-13.373-2.129-17.512-2.129h-.001Z"/><path fill="#FFCE45" d="M178.292 84.983c-1.229-3.716-3.824-3.165-3.824-3.165s-.004-1.195-1.82-1.366c-1.126-.35-4.025-1.471-5.008-4.002-1.229-3.165-.683-7.157-.683-7.157l-2.731-.359-2.731.36s.547 3.99-.683 7.156c-.982 2.53-3.882 3.653-5.007 4.002-1.816.171-1.821 1.366-1.821 1.366s-2.594-.55-3.823 3.165h28.131Z"/><path fill="#FCAB28" d="M153.985 81.818c1.707-.111 3.414-.186 5.121-.224 1.707-.046 3.414-.058 5.121-.064 1.707.005 3.414.017 5.121.063 1.707.038 3.414.112 5.121.224-1.707.111-3.414.187-5.121.224-1.707.045-3.414.057-5.121.063a213.788 213.788 0 0 1-5.121-.064 119.126 119.126 0 0 1-5.121-.224v.002ZM169.143 68.332h-9.696a1.097 1.097 0 0 1-1.092-1.101c0-.609.489-1.102 1.092-1.102h9.696c.604 0 1.093.493 1.093 1.102 0 .608-.489 1.101-1.093 1.101Z"/><path fill="#FCAB28" d="M168.596 69.721h-8.602a.974.974 0 0 1-.97-.977c0-.54.434-.977.97-.977h8.602c.535 0 .97.437.97.977s-.434.977-.97.977Z"/><path fill="#FFE266" d="M159.311 66.405a56.544 56.544 0 0 1 2.457-.11c.82-.027 1.639-.03 2.458-.034.82.003 1.638.007 2.458.032l1.229.04c.41.024.82.038 1.23.07-.41.033-.82.047-1.23.071l-1.229.04c-.82.026-1.638.03-2.458.032a86.887 86.887 0 0 1-2.458-.033 54.854 54.854 0 0 1-2.457-.11v.002ZM159.357 68.057a58.51 58.51 0 0 1 2.503-.11 94.228 94.228 0 0 1 5.008-.001l1.251.04c.417.023.834.037 1.251.07-.417.032-.834.046-1.251.07l-1.251.04c-.835.026-1.67.03-2.504.032a90.115 90.115 0 0 1-2.504-.033 56.92 56.92 0 0 1-2.503-.11v.002ZM161.591 69.891c.879-.112 1.757-.138 2.636-.144.879.005 1.757.03 2.636.144-.879.114-1.757.14-2.636.144-.879-.004-1.757-.03-2.636-.144Z"/><path fill="#FCAB28" d="M150.754 83.653a205.82 205.82 0 0 1 6.737-.224 379.12 379.12 0 0 1 6.736-.064c2.245.005 4.491.017 6.738.063 2.245.038 4.491.112 6.737.224a202.88 202.88 0 0 1-6.737.223c-2.247.046-4.492.058-6.738.064a369.766 369.766 0 0 1-6.736-.065 206.192 206.192 0 0 1-6.737-.223v.002Z"/><path fill="#FFFFFD" d="M156.917 22.368a80.56 80.56 0 0 0-6.468.892c-.226 6.796-.297 18.152 1.352 24.43 2.458 9.358 6.828 14.037 6.828 14.037s-2.731-13.762-2.458-25.872c.13-5.8.449-10.332.746-13.486v-.001Z" opacity=".48"/><path fill="#FCAB28" d="M184.573 30.212c-1.513-.873-3.189-1.372-4.873-1.76-1.688-.39-3.401-.662-5.12-.873a90.93 90.93 0 0 0-5.178-.468 89.218 89.218 0 0 0-5.193-.187 79.306 79.306 0 0 0-5.193.14c-1.731.09-3.458.245-5.179.446-1.718.21-3.433.473-5.119.868-1.68.393-3.359.901-4.838 1.834.708-.506 1.473-.95 2.29-1.261.202-.082.402-.172.608-.248l.62-.213c.412-.149.832-.269 1.253-.386 1.685-.464 3.404-.789 5.13-1.04a72.928 72.928 0 0 1 10.433-.715c3.489.04 6.973.285 10.426.786 1.726.252 3.443.586 5.128 1.044.424.106.839.246 1.254.38.418.124.825.288 1.231.448.412.145.801.35 1.195.537.201.088.386.205.571.322l.556.345h-.002Z"/></g></g><defs><clipPath id="a"><rect width="328" height="224" fill="#fff" rx="12"/></clipPath><clipPath id="b"><path fill="#fff" d="M86 93h156v157H86z"/></clipPath><clipPath id="c"><path fill="#fff" d="M132 22h65v62h-65z"/></clipPath></defs></svg>
