<svg xmlns="http://www.w3.org/2000/svg" width="160" height="160" fill="none"><rect width="159" height="159" x=".5" y=".5" fill="#F3F3FF" rx="7.5"/><rect width="159" height="159" x=".5" y=".5" stroke="#D7D6FF" rx="7.5"/><path fill="#507849" d="M132.126 116.058c-.734 3.447-3.796 6.032-7.453 6.032h-22.929c-6.114-24.862 4.53-43.099 4.53-43.099s11.365 10.76 21.695 28.356c1.572 2.679 2.957 5.625 4.157 8.711Z"/><path fill="#000" d="M80.388 56.556H67.319L54.34 91.422l49.882-3.709s2.96-15.576-5.197-30.226c-8.153-14.648-18.636-.931-18.636-.931Z"/><path fill="#000" d="M69.586 37.447c-.406-.252-.63-.873-.913.527-.513 2.557-.127 8.955-4.71 11.78-4.988 3.075-10.397 2.927-12.923 10.526-2.472 7.438 2.825 11.17-1.776 16.716-3.46 4.173-7.297-.307-15.52 4.79-10.858 6.732-11.451 42.644 19.862 34.063 5.625-1.541 9.769-32.712 9.769-32.712l15.406-39.99-9.195-5.7Z"/><path fill="#000" d="M68.916 41.829c-.536-1.185-.742-2.501-.541-3.787.214-1.373.632-2.844.937-3.652 1.505-3.99 5.782-11.371 16.63-10.281 14.757 1.483 13.085 27.976 13.085 27.976l-26.39-2.016-3.721-8.24Z"/><path fill="#EFB31D" d="M114.611 122.09H48.688c.547-15.453 2.806-30.767 8.944-38.44 4.401-5.497 9.304-9.014 13.904-11.262 9.549-4.67 17.875-3.89 17.875-3.89 14.126 1.736 21.823 16.176 23.628 25.434.676 3.459 1.188 15.034 1.572 28.158Z"/><path fill="#F98575" d="M93.92 76.032s-.824 1.603-5.653 1.157c-7.432-.69-9.814-4.005-9.814-4.005L78.12 60.5l2.27.445 13.463 2.603.022 6.186.045 6.298Z"/><path fill="#000" d="M93.873 69.734c-3.538-.356-10.324-1.824-13.084-7.588-.223-.444-.357-.867-.4-1.201l13.462 2.603.022 6.186Z"/><path fill="#F98575" d="M95.956 34.583s7.052 15.73 4.651 24.627c-2.401 8.898-10.5 7.578-15.353 5.91-4.854-1.67-7.127-4.614-7.127-4.614s-4.503 1.575-7.566-2.597c-3.063-4.173-1.248-9.016 1.322-10.147 2.569-1.13 5.655.704 5.655.704l-2.45-4.568s9.893-23.426 20.868-9.315Z"/><path fill="#000" d="M98.278 47.929a.583.583 0 0 1-.576-.498l-.432-2.934a.583.583 0 0 1 .133-.462l1.179-1.383a.583.583 0 0 1 .886.756l-1.008 1.18.394 2.675a.581.581 0 0 1-.576.666ZM86.799 42.989a.582.582 0 0 1-.517-.848c1.098-2.134 3.794-1.578 3.907-1.554a.582.582 0 0 1-.244 1.138c-.079-.016-1.94-.389-2.627.948a.585.585 0 0 1-.52.316ZM98.063 41.171a.583.583 0 0 1-.48-.253c-.116-.165-.534-.637-.934-.637-.334.002-.639.347-.838.637a.582.582 0 1 1-.96-.658c.519-.759 1.123-1.143 1.797-1.143 1.088.001 1.817 1.028 1.896 1.146a.581.581 0 0 1-.48.908Z"/><path fill="#000" d="M77.536 48.465s6.912.185 11.63-7.374c4.718-7.56 4.166-9.478 4.166-9.478l4.701 7.803s1.052-5.41-1.113-8.86c-2.164-3.449-4.412-2.734-4.412-2.734l-14.976 3.742-3.945 12.005 3.95 4.895Z"/><path fill="#000" d="M89.54 48.631a.583.583 0 0 1-.577-.508l-.375-2.942a.58.58 0 0 1 .173-.493l1.519-1.464a.582.582 0 1 1 .808.838l-1.308 1.262.34 2.653a.584.584 0 0 1-.505.652l-.075.002ZM96.698 53.743a.582.582 0 0 1-.583-.574c-.043-3.05-1.855-7.04-1.873-7.081a.583.583 0 0 1 1.058-.486c.08.172 1.933 4.252 1.98 7.55a.582.582 0 0 1-.574.591h-.008ZM92.943 59.74c-.071 0-.143-.002-.217-.008-2.073-.148-3.158-2.848-3.202-2.963a.578.578 0 0 1 .09-.58.566.566 0 0 1 .55-.206l5.405.927a.58.58 0 0 1 .413.85c-.045.084-1.097 1.98-3.04 1.98Zm-1.8-2.409c.406.594.988 1.191 1.666 1.24.681.041 1.234-.315 1.606-.679l-3.271-.56ZM76.962 55.103a.583.583 0 0 1-.417-.175l-4.326-4.451a.583.583 0 0 1 .835-.812l4.326 4.45a.583.583 0 0 1-.418.988Z"/><path fill="#000" d="M71.77 55.103a.583.583 0 0 1-.194-1.132l3.87-1.36a.582.582 0 1 1 .387 1.1l-3.87 1.36a.591.591 0 0 1-.194.032Z"/><path fill="#AF4D04" d="M90.133 77.877c-7.656 0-11.876-4.068-12.09-4.28a.583.583 0 0 1 .819-.83c.06.062 6.122 5.862 16.733 3.257a.583.583 0 0 1 .277 1.13c-2.085.512-4 .723-5.739.723Z"/><path fill="#507849" d="M74.808 107.825c-2.084 6.509-5.648 11.074-9.49 14.265h-16.63c.547-15.453 2.806-30.767 8.944-38.44 4.401-5.497 9.304-9.014 13.904-11.262 2.911 6.44 7.965 20.764 3.272 35.437Z"/><path fill="#507849" d="M33.852 122.09c4.04-29.055 33.293-47.186 33.293-47.186l-4.587 47.186H33.852Z"/></svg>