<svg xmlns="http://www.w3.org/2000/svg" width="160" height="160" fill="none"><rect width="159" height="159" x=".5" y=".5" fill="#F3F3FF" rx="7.5"/><rect width="159" height="159" x=".5" y=".5" stroke="#D7D6FF" rx="7.5"/><path fill="#000" d="M69.867 36.246s-9.836-7.863-5.357-14.38c4.479-6.515 14.078.114 14.078.114s3.74-3.741 9.03-.713c5.291 3.026 5.896 10.41 5.896 10.41s5.39-.122 5.697 6.435c.308 6.558-6.75 12.398-6.75 12.398L69.866 36.246Z"/><path fill="#D9552D" d="M115.232 118.09H50.688l-.81-46.231c15.007-10.544 29.573-7.908 29.573-7.908s25.041-2.855 32.786 11.642c2.139 4 2.821 24.231 2.995 42.497Z"/><path fill="#F98575" d="m87.13 54.12.124 12.497s-2.219 3.615-9.523 4.281c-5.441.497-7.367-.716-7.367-.716l.697-6.336.688-6.18 13.172-3.034 2.21-.512Z"/><path fill="#000" d="M84.92 54.63c-.029.343-.154.747-.351 1.21-2.734 6.27-10.366 7.691-13.509 8.005l.688-6.18 13.172-3.034Z"/><path fill="#F98575" d="M68.68 29.208S62.277 44.94 64.948 53.62c2.672 8.68 10.602 7.101 15.324 5.29 4.723-1.81 6.86-4.79 6.86-4.79s4.49 1.397 7.362-2.818.918-8.923-1.65-9.947c-2.57-1.025-5.546.886-5.546.886l2.254-4.582s-10.55-22.727-20.872-8.452Z"/><path fill="#000" d="M87.82 49.067a.58.58 0 0 1-.342-1.044l5.591-4.105a.579.579 0 0 1 .685.931l-5.591 4.106a.569.569 0 0 1-.342.112Z"/><path fill="#000" d="M92.953 48.945a.575.575 0 0 1-.14-.017l-3.716-.918a.577.577 0 1 1 .278-1.121l3.716.918a.577.577 0 0 1-.138 1.138ZM79.208 35.777a.594.594 0 0 1-.198-.035c-.926-.336-3.587-.486-4.534-.513a.58.58 0 0 1-.56-.597c.011-.318.248-.543.597-.56.367.012 3.626.124 4.893.584a.577.577 0 0 1-.198 1.12ZM67.08 35.31a.579.579 0 0 1-.089-1.15c1.646-.26 2.144-.234 2.228-.228a.579.579 0 0 1 .525.626.56.56 0 0 1-.617.526c-.032.002-.48-.014-1.954.22a.88.88 0 0 1-.093.005ZM70.259 49.209a.58.58 0 0 1-.553-.408c-1.558-5.05 1.04-8.684 1.153-8.835a.577.577 0 0 1 .933.68c-.024.035-2.363 3.337-.983 7.815a.577.577 0 0 1-.55.748ZM67.195 41.313a.578.578 0 0 1-.56-.725l.754-2.874a.572.572 0 0 1 .706-.411c.308.08.493.396.412.705l-.753 2.874a.576.576 0 0 1-.559.431ZM75.107 41.39a.576.576 0 0 1-.558-.725l.752-2.874a.572.572 0 0 1 .705-.412c.309.08.494.397.412.705l-.753 2.874a.576.576 0 0 1-.558.431Z"/><path fill="#000" d="M67.399 32.752s1.331-2.526 4.45-2.578c3.116-.052 4.959 2.125 4.959 2.125s-1.316 5.264 2.951 8.01c4.267 2.746 7.54 1.934 7.54 1.934l3.063-1.127 2.211-4.515-8.99-9.498L72.01 21.14l-5.814 5.384 1.203 6.228ZM72.665 52.128c-.15 0-.244-.007-.265-.01a.576.576 0 0 1-.524-.622.58.58 0 0 1 .621-.529c.1.01 2.517.17 3.519-2.025a.583.583 0 0 1 .766-.286.58.58 0 0 1 .285.767c-1.138 2.49-3.588 2.705-4.402 2.705Z"/><path fill="#F9AD62" d="M71.06 63.845s-2.577 2.733-4.113 7.773c-.872 2.86-.658 7.08-.057 7.085.6.004 5.1-6.958 7.97-7.382 2.87-.424 5.272 7.912 6.497 8.204 1.226.292 5.991-2.989 7.682-7.737 1.692-4.749-1.343-7.81-1.343-7.81s-14.814 11.245-16.636-.133Z"/><path fill="#D9552D" d="M63.89 118.09H32.341c-.462 0-.902-.035-1.341-.127.96-6.59 2.867-16.613 6.393-25.364 5.85-14.578 12.486-20.74 12.486-20.74L63.89 118.09ZM129.393 116.552a7.786 7.786 0 0 1-1.526.902 7.568 7.568 0 0 1-3.041.636h-22.844l6.59-47.19s13.942 10.762 20.821 45.652Z"/><path fill="#F9AD62" d="M50.658 116.933a.578.578 0 0 1-.578-.578v-18.22a.578.578 0 0 1 1.156 0v18.22a.578.578 0 0 1-.578.578Z"/></svg>