<svg xmlns="http://www.w3.org/2000/svg" width="160" height="160" fill="none"><rect width="159" height="159" x=".5" y=".5" fill="#F3F3FF" rx="7.5"/><rect width="159" height="159" x=".5" y=".5" stroke="#D7D6FF" rx="7.5"/><path fill="#000" d="M71.895 46.98S46.204 30.042 55.117 20.305c8.913-9.737 20.111 14.531 20.111 14.531L71.895 46.98Z"/><path fill="#AF4D04" d="M129.068 116.74a7.216 7.216 0 0 1-3.496.888H96.468a45.9 45.9 0 0 1-.19-2.169c-1.597-24.09 12.929-31.43 12.929-31.43s10.924 19.491 19.861 32.711Z"/><path fill="#000" d="M87.949 30.554s-13.503-8.778-21.691 2.165c-7.95 10.624-.181 22.676-.181 22.676L84.451 41.07l3.498-10.516Z"/><path fill="#AF4D04" d="M115.376 117.628H46.659c-2.024-12.107-2.867-23.449-1.012-28.316 4.699-12.343 28.766-17.413 28.766-17.413s16.277 1.844 21.516 2.597c5.238.753 11.643 5.697 15.802 13.937 4.171 8.24 3.262 22.552 3.577 27.093.034.45.056 1.169.068 2.102Z"/><path fill="#F98875" d="m71.351 62.03-.576 12.626s2.111 3.733 9.471 4.67c5.482.698 7.472-.457 7.472-.457l-.475-6.43-.473-6.27-13.203-3.542-2.216-.598Z"/><path fill="#000" d="M73.567 62.626c.016.346.128.76.311 1.236 2.538 6.435 10.2 8.147 13.365 8.577l-.472-6.27-13.204-3.543Z"/><path fill="#F98875" d="M90.897 37.518s5.905 16.132 2.891 24.808c-3.013 8.676-10.97 6.795-15.678 4.795-4.708-2.001-6.76-5.088-6.76-5.088s-4.589 1.249-7.34-3.115c-2.75-4.364-.607-9.05 2.028-9.993 2.634-.944 5.573 1.097 5.573 1.097l-2.114-4.713s11.483-22.591 21.4-7.79Z"/><path fill="#000" d="M71.61 50.02s6.657 1.84 11.88-5.341c5.222-7.182 5.01-10.298 5.01-10.298l4.124 8.088s1.425-5.305-.483-8.886c-1.91-3.582-4.192-3.029-4.192-3.029l-15.151 2.667-4.765 11.656 3.578 5.143Z"/><path fill="#fff" d="M81.96 80.474c-7.492 0-11.588-5.417-11.637-5.486a.562.562 0 0 1 .903-.666c.235.316 5.863 7.706 16.302 4.016a.563.563 0 1 1 .376 1.06c-2.169.766-4.154 1.076-5.945 1.076Z"/><path fill="#AF4D04" d="M54.932 117.628h-19.29A7.312 7.312 0 0 1 31 115.976c4.733-19.403 17.592-31.363 17.592-31.363s.956 19.47 6.34 33.015Z"/><path fill="#fff" d="M105.955 117.587a.561.561 0 0 1-.498-.822c.028-.056 2.903-5.734 1.591-14.683-1.558-10.643-9.786-14.34-9.87-14.377a.561.561 0 0 1 .447-1.03c.362.156 8.884 3.959 10.536 15.245 1.367 9.332-1.581 15.122-1.708 15.364a.56.56 0 0 1-.498.303Z"/><path fill="#000" d="M89.72 57.498a.562.562 0 0 1-.533-.74c1.019-3.048-1.21-6.436-1.232-6.469a.562.562 0 0 1 .933-.626c.106.156 2.56 3.875 1.366 7.452a.565.565 0 0 1-.534.383ZM70.603 57.498a.56.56 0 0 1-.417-.185l-4.451-4.934a.56.56 0 1 1 .834-.753l4.451 4.934a.56.56 0 0 1-.417.938Z"/><path fill="#000" d="M65.805 56.096a.562.562 0 0 1-.07-1.12l3.164-.407a.572.572 0 0 1 .63.485.563.563 0 0 1-.487.63l-3.164.408a.528.528 0 0 1-.073.004ZM93.298 43.833a.54.54 0 0 1-.111-.01l-2.969-.594a.563.563 0 0 1 .22-1.102l2.968.593a.563.563 0 0 1-.108 1.113ZM80.858 45.48a.562.562 0 0 1-.242-1.07l3.976-1.89a.561.561 0 0 1 .484 1.014l-3.976 1.89a.565.565 0 0 1-.242.055ZM91.932 50.723a.561.561 0 0 1-.54-.41l-.855-3.053a.56.56 0 0 1 .116-.518l.96-1.116a.562.562 0 0 1 .852.733l-.763.887.773 2.763a.562.562 0 0 1-.543.714ZM83.039 51.325a.562.562 0 0 1-.54-.41l-.856-3.054a.563.563 0 0 1 .123-.528l1.325-1.468a.563.563 0 0 1 .834.753l-1.117 1.237.773 2.756a.562.562 0 0 1-.542.714ZM87.737 61.642c-2.366 0-4.194-1.828-4.284-1.92a.562.562 0 0 1 .802-.788c.02.02 2.151 2.125 4.446 1.443a.563.563 0 0 1 .32 1.077 4.46 4.46 0 0 1-1.284.188Z"/></svg>