<svg xmlns="http://www.w3.org/2000/svg" width="160" height="160" fill="none"><rect width="159" height="159" x=".5" y=".5" fill="#F3F3FF" rx="7.5"/><rect width="159" height="159" x=".5" y=".5" stroke="#D7D6FF" rx="7.5"/><path fill="#507849" d="M96.383 100.783 74.403 118.09h-41.14a7.59 7.59 0 0 1-2.262-.34c4.37-25.626 18.724-44.468 36.558-50.654 3.809-1.313 7.172-1.184 10.113-.036 14.072 5.46 18.712 33.723 18.712 33.723Z"/><path fill="#507849" d="M129.579 117.645a7.539 7.539 0 0 1-2.578.445h-76.14c1.254-19.369 2.508-34.883 3.48-38.058C56.24 73.762 69 69.357 77.671 67.06c4.652-1.23 8.132-1.863 8.132-1.863s17.4.739 31.016 17.483c6.515 8.014 11.612 21.747 12.76 34.965Z"/><path fill="#ADA9C4" d="M64.861 23.965s-6.045 6.837-2.722 14.376c3.323 7.538 6.886-13.694 6.886-13.694l-4.164-.682Z"/><path fill="#F98875" d="m85.19 54.688.23 13.563s-2.38 3.94-10.304 4.72c-5.902.58-8.002-.721-8.002-.721l.708-6.883.698-6.713 14.275-3.394 2.395-.572Z"/><path fill="#000" d="M82.795 55.26c-.028.372 2.183 1.538 1.972 2.043-2.92 6.827-13.8 10.258-17.208 10.622l.962-9.268 14.274-3.396Z"/><path fill="#F98875" d="M67.437 24.642c-1.862 1.516-3.165 3.602-3.936 5.876-1.773 5.234-5.35 17.456-3.007 24.95 3.045 9.739 11.825 7.915 17.046 5.85 5.22-2.064 7.562-5.424 7.562-5.424s4.993 1.54 8.139-3.215c3.145-4.754.934-10.032-1.926-11.167-2.86-1.136-6.143 1.03-6.143 1.03l2.456-5.163c.003 0-9.882-21.13-20.191-12.737Z"/><path fill="#000" d="M85.897 49.156a.587.587 0 0 1-.35-1.056l4.953-3.69a.587.587 0 0 1 .7.94l-4.952 3.69a.587.587 0 0 1-.35.116Z"/><path fill="#000" d="M91.465 48.986a.55.55 0 0 1-.137-.016l-4.041-.968a.585.585 0 1 1 .273-1.14l4.041.968a.585.585 0 0 1-.136 1.156ZM63.444 40.465a.585.585 0 0 1-.568-.731l.797-3.125a.585.585 0 1 1 1.135.29l-.796 3.124a.585.585 0 0 1-.568.442ZM72.037 41.636a.585.585 0 0 1-.568-.731l.797-3.125a.585.585 0 1 1 1.135.29l-.797 3.124a.585.585 0 0 1-.567.442Z"/><path fill="#6C6B7C" d="M62.953 33.643a.587.587 0 0 1-.063-1.168l2.572-.279a.585.585 0 1 1 .127 1.165l-2.572.279a.584.584 0 0 1-.064.003ZM74.625 35.71a.574.574 0 0 1-.226-.045L70.9 34.2a.584.584 0 1 1 .451-1.08l3.5 1.464a.585.585 0 0 1-.226 1.126Z"/><path fill="#ADA9C4" d="M85.175 42.543s-1.406 5.645-2.49 4.956c-1.082-.688-2.094-8.828-1.287-12.47.807-3.644 1.396-5.475 1.396-5.475s-14.817-1.317-18.723-4.838c-3.905-3.521 4.345-5.793 12.783-4.195 8.438 1.598 11.766 4.769 11.766 4.769s5.286-.789 7.262 2.437c1.976 3.225-2.522 15.479-2.522 15.479s-1.33-3.075-8.185-.663ZM56.917 48.373s4.14-4.584 6.248-3.896c2.107.688 2.873 3.769 2.873 3.769s2.5-3.463 5.259-2.488c2.758.974 8.672 1.335 8.734 2.292.062.957-1.649 1.298-1.649 1.298s-13.921 1.608-21.465-.975Z"/><path fill="#ADA9C4" d="M85.174 42.543s-.248 9.153-.07 13.35c.177 4.196-11.488 10.742-19.546 7.126-8.058-3.615-5.848-14.173-5.848-14.173l7.181.663s1.656-.939 3.538-1.325c1.882-.387 4.39.637 4.39.637l10.355-6.278Z"/><path fill="#000" d="M68.019 51.616a.586.586 0 0 1-.06-1.169c.024-.003 2.452-.284 3.336-2.054a.587.587 0 0 1 1.049.524c-1.175 2.35-4.137 2.682-4.263 2.695a.594.594 0 0 1-.062.004Z"/><path fill="#FCB35B" d="M71.408 73.607c-3.97 0-7.04-.773-7.314-.844a.585.585 0 0 1 .294-1.133c.14.035 14.094 3.534 21.061-4.72a.585.585 0 1 1 .896.755c-4.069 4.82-10.155 5.942-14.937 5.942Z"/><path fill="#fff" d="M61.608 45.299c-.154 0-.311-.008-.468-.024-1.42-.142-2.69-.904-3.572-2.148-.864-1.218-1.253-2.757-1.096-4.333.328-3.284 2.947-5.718 5.856-5.43 1.42.141 2.69.903 3.572 2.147.864 1.219 1.253 2.757 1.096 4.333-.31 3.106-2.677 5.455-5.387 5.455Zm-3.97-6.388c-.13 1.294.186 2.551.885 3.54.683.962 1.654 1.552 2.733 1.66 2.248.223 4.31-1.74 4.573-4.382.13-1.293-.186-2.55-.886-3.538-.683-.964-1.653-1.553-2.732-1.66-2.243-.237-4.31 1.738-4.573 4.38ZM74.637 47.535a5.947 5.947 0 0 1-4.644-2.195 5.945 5.945 0 0 1-1.323-4.385c.326-3.283 3.26-5.685 6.55-5.362a5.993 5.993 0 0 1 5.362 6.55 5.95 5.95 0 0 1-2.165 4.038 5.943 5.943 0 0 1-3.78 1.355Zm-.015-10.8a4.82 4.82 0 0 0-4.787 4.337 4.782 4.782 0 0 0 1.066 3.527 4.781 4.781 0 0 0 3.246 1.74 4.77 4.77 0 0 0 3.527-1.065 4.777 4.777 0 0 0 1.74-3.247 4.818 4.818 0 0 0-4.792-5.291Z"/><path fill="#fff" d="M80.365 42.672a.586.586 0 0 1-.31-1.083c4.611-2.885 11.934-.168 12.243-.052a.586.586 0 0 1-.415 1.097c-.07-.027-7.091-2.63-11.208-.051a.59.59 0 0 1-.31.089Z"/><path fill="#000" d="M66.125 47.304a.586.586 0 0 1-.525-.324c-2.04-4.077 2.167-8.31 2.347-8.488a.586.586 0 0 1 .824.833c-.038.038-3.783 3.815-2.123 7.131a.586.586 0 0 1-.523.848Z"/><path fill="#fff" d="M69.905 40.332a.578.578 0 0 1-.246-.055c-.441-.204-1.86-.703-2.556-.325a.587.587 0 0 1-.563-1.029c1.34-.731 3.385.185 3.613.292a.587.587 0 0 1-.248 1.117Z"/><path fill="#FCB35B" d="M50.861 115.9a.586.586 0 0 1-.586-.586v-11.865a.586.586 0 0 1 1.172 0v11.865a.585.585 0 0 1-.586.586Z"/></svg>