<svg xmlns="http://www.w3.org/2000/svg" width="75" height="20" fill="none"><g clip-path="url(#a)"><path fill="#fff" d="M0 0h75v20H0z"/><path fill="#24234C" d="M5.364 16.2c-.24 0-.527-.027-.86-.08-.32-.04-.64-.14-.96-.3-.307-.173-.567-.44-.78-.8-.214-.36-.32-.847-.32-1.46v-6.2h-1.42c-.254 0-.38-.127-.38-.38 0-.133.06-.247.18-.34l2.72-2.66a1.17 1.17 0 0 1 .12-.1.344.344 0 0 1 .48.04c.08.08.12.173.12.28v1.6h2.26c.226 0 .413.073.56.22.146.147.22.333.22.56 0 .213-.074.4-.22.56a.759.759 0 0 1-.56.22h-2.26v6.04c0 .387.073.667.22.84.146.173.32.28.52.32.213.027.4.04.56.04.32 0 .553-.027.7-.08.16-.067.326-.1.5-.1.186 0 .353.067.5.2a.67.67 0 0 1 .22.52c0 .307-.154.54-.46.7-.24.107-.5.193-.78.26-.267.067-.56.1-.88.1Zm6.716 0c-.573 0-1.113-.12-1.62-.36a3.077 3.077 0 0 1-1.2-1.02c-.293-.453-.44-.993-.44-1.62 0-.947.374-1.72 1.12-2.32.76-.613 1.92-.92 3.48-.92h2.42V9.8c0-.893-.22-1.527-.66-1.9-.44-.387-1.113-.58-2.02-.58-.56 0-1.053.053-1.48.16-.413.093-.806.2-1.18.32-.106.027-.193.04-.26.04a.711.711 0 0 1-.52-.22.734.734 0 0 1-.22-.54c0-.36.174-.613.52-.76.467-.2.98-.367 1.54-.5a7.752 7.752 0 0 1 1.92-.22c.974 0 1.767.193 2.38.58.614.387 1.067.88 1.36 1.48.294.6.44 1.227.44 1.88v5.66a.839.839 0 0 1-.28.64.87.87 0 0 1-.64.26.87.87 0 0 1-.64-.26.87.87 0 0 1-.26-.64v-.52c-.36.373-.84.72-1.44 1.04-.6.32-1.373.48-2.32.48Zm.68-1.6a3.54 3.54 0 0 0 1.76-.46c.547-.307.987-.653 1.32-1.04v-1.68h-2.18c-.933 0-1.673.12-2.22.36-.533.24-.8.647-.8 1.22 0 .427.147.8.44 1.12.307.32.867.48 1.68.48Zm11.25 1.6c-.733 0-1.4-.08-2-.24a7.402 7.402 0 0 1-1.64-.66.764.764 0 0 1-.34-.66c0-.2.074-.38.22-.54a.701.701 0 0 1 .56-.26c.12 0 .24.027.36.08.36.16.754.3 1.18.42.44.12.954.18 1.54.18.774 0 1.334-.12 1.68-.36.36-.253.54-.607.54-1.06 0-.293-.146-.52-.44-.68-.28-.16-.653-.293-1.12-.4-.453-.12-.933-.24-1.44-.36a9.031 9.031 0 0 1-1.46-.52 3.246 3.246 0 0 1-1.12-.9c-.28-.387-.42-.88-.42-1.48 0-.907.328-1.66.98-2.26.654-.6 1.628-.9 2.92-.9.547 0 1.06.047 1.54.14.494.093.947.213 1.36.36.188.053.328.16.42.32.108.147.16.293.16.44 0 .213-.08.4-.24.56a.726.726 0 0 1-.56.24h-.14l-.12-.04a7.257 7.257 0 0 0-2.28-.36c-.732 0-1.3.133-1.7.4-.4.267-.6.6-.6 1 0 .347.14.613.42.8.294.187.668.34 1.12.46.468.107.954.22 1.46.34.52.12 1.008.293 1.46.52.468.213.84.513 1.12.9.294.387.44.907.44 1.56 0 .813-.326 1.513-.98 2.1-.64.573-1.6.86-2.88.86Zm7.21-.1a.87.87 0 0 1-.64-.26.87.87 0 0 1-.26-.64V2.22c0-.267.087-.487.26-.66a.87.87 0 0 1 .64-.26.87.87 0 0 1 .64.26c.187.173.28.393.28.66v5.22a7.745 7.745 0 0 1 1.5-1.26c.587-.387 1.327-.58 2.22-.58.76 0 1.407.18 1.94.54.534.347.94.82 1.22 1.42.28.587.42 1.24.42 1.96v5.68a.839.839 0 0 1-.28.64.87.87 0 0 1-.64.26.87.87 0 0 1-.64-.26.87.87 0 0 1-.26-.64V9.72c0-.76-.173-1.353-.52-1.78-.333-.44-.893-.66-1.68-.66-.72 0-1.346.193-1.88.58-.533.387-1 .833-1.4 1.34v6a.839.839 0 0 1-.28.64.87.87 0 0 1-.64.26ZM43.368 3.72c-.28 0-.52-.1-.72-.3-.2-.2-.3-.44-.3-.72v-.08c0-.28.1-.52.3-.72.2-.2.44-.3.72-.3h.12c.28 0 .52.1.72.3.2.2.3.44.3.72v.08c0 .28-.1.52-.3.72-.2.2-.44.3-.72.3h-.12Zm.04 12.38a.87.87 0 0 1-.64-.26.87.87 0 0 1-.26-.64V6.62c0-.267.086-.487.26-.66a.87.87 0 0 1 .64-.26c.266 0 .486.087.66.26.173.173.26.393.26.66v8.58a.87.87 0 0 1-.26.64.894.894 0 0 1-.66.26Zm4.98 0a.87.87 0 0 1-.64-.26.87.87 0 0 1-.26-.64V2.22c0-.267.087-.487.26-.66a.87.87 0 0 1 .64-.26c.267 0 .487.087.66.26.173.173.26.393.26.66V15.2a.87.87 0 0 1-.26.64.894.894 0 0 1-.66.26Zm6.68.1c-.573 0-1.113-.12-1.62-.36a3.076 3.076 0 0 1-1.2-1.02c-.293-.453-.44-.993-.44-1.62 0-.947.374-1.72 1.12-2.32.76-.613 1.92-.92 3.48-.92h2.42V9.8c0-.893-.22-1.527-.66-1.9-.44-.387-1.113-.58-2.02-.58-.56 0-1.053.053-1.48.16-.413.093-.806.2-1.18.32-.106.027-.193.04-.26.04a.71.71 0 0 1-.52-.22.734.734 0 0 1-.22-.54c0-.36.174-.613.52-.76.467-.2.98-.367 1.54-.5a7.752 7.752 0 0 1 1.92-.22c.974 0 1.767.193 2.38.58.614.387 1.067.88 1.36 1.48.294.6.44 1.227.44 1.88v5.66a.84.84 0 0 1-.28.64.87.87 0 0 1-.64.26.87.87 0 0 1-.64-.26.87.87 0 0 1-.26-.64v-.52c-.36.373-.84.72-1.44 1.04-.6.32-1.373.48-2.32.48Zm.68-1.6a3.54 3.54 0 0 0 1.76-.46c.547-.307.987-.653 1.32-1.04v-1.68h-2.18c-.933 0-1.673.12-2.22.36-.533.24-.8.647-.8 1.22 0 .427.147.8.44 1.12.307.32.867.48 1.68.48Zm13.191 1.6c-.693 0-1.32-.133-1.88-.4a5.356 5.356 0 0 1-1.54-1.12v.52a.87.87 0 0 1-.26.64.894.894 0 0 1-.66.26.87.87 0 0 1-.64-.26.87.87 0 0 1-.26-.64V2.22c0-.267.087-.487.26-.66a.87.87 0 0 1 .64-.26c.267 0 .487.087.66.26.174.173.26.393.26.66v4.9c.467-.48.98-.853 1.54-1.12.56-.267 1.187-.4 1.88-.4.814 0 1.587.207 2.32.62.734.413 1.334 1.013 1.8 1.8.48.787.72 1.747.72 2.88 0 1.133-.24 2.093-.72 2.88-.466.787-1.066 1.387-1.8 1.8a4.656 4.656 0 0 1-2.32.62Zm-.26-1.7c.947 0 1.727-.307 2.34-.92.627-.613.94-1.507.94-2.68 0-1.187-.313-2.08-.94-2.68-.613-.613-1.393-.92-2.34-.92-.653 0-1.246.147-1.78.44-.533.28-.993.633-1.38 1.06V13c.387.427.847.787 1.38 1.08a3.77 3.77 0 0 0 1.78.42Z"/><rect width="4.231" height="4.231" x="41.3" fill="#24234C" rx="2.115"/><rect width="1.923" height="1.923" x="42.454" y="1.154" fill="#fff" rx=".962"/><rect width=".538" height="2.385" x="43.146" y="2.539" fill="#fff" rx=".269"/><rect width=".538" height="2.385" x="43.915" y="2.539" fill="#fff" rx=".269" transform="rotate(-90 43.915 2.539)"/></g><defs><clipPath id="a"><path fill="#fff" d="M0 0h75v20H0z"/></clipPath></defs></svg>